<svg xmlns="http://www.w3.org/2000/svg" viewBox="0 0 209.64 208.17"><defs><style>.cls-1{fill:#6e150e;}</style></defs><title>Element 1</title><g id="Ebene_2" data-name="Ebene 2"><g id="Ebene_1-2" data-name="Ebene 1"><path class="cls-1" d="M25.4,169.47C-21.41,114.22,4.33,27,73.67,6.46c34.29-10.14,66-4.56,94.89,16.76.92.68,1.95,1.19,2.93,1.79a106.6,106.6,0,0,0,13.12,13.16c8.39,11.24,15.53,23.14,19.52,36.72C219.3,126.6,192.47,181.48,141.07,200c-37,13.36-71.23,6.76-102.37-16.92C34.17,178.67,29.16,174.68,25.4,169.47ZM170.69,52c-3.16-5.65-7.91-9.7-13.24-13.16a12.79,12.79,0,0,0-1.67-1.77c-22.73-16.42-47.9-21.45-74.64-13.39C23.07,41.24,1.8,108.34,38.65,156.1c4.4,4.59,8,10,14,12.94.48,2,2.34,2.78,3.8,3.75,26.46,17.41,54.51,20.44,83.48,7.58,35.8-15.88,55.16-53,48.23-91.54C185.67,75.14,180.36,62.47,170.69,52Z"/><path class="cls-1" d="M184.61,38.17A106.6,106.6,0,0,1,171.49,25c7.77-7.73,15.62-15.39,23.27-23.24,2.07-2.12,3.38-2.54,5.5-.12,3.16,3.6,8.94,6.67,9.36,10.44.44,3.92-5.78,6.92-9.07,10.33C195.37,27.79,189.94,32.93,184.61,38.17Z"/><path class="cls-1" d="M25.4,169.47c3.76,5.21,8.77,9.2,13.3,13.65-7.81,7.72-15.71,15.36-23.38,23.21-2.24,2.29-3.67,2.61-5.85,0a63.83,63.83,0,0,0-7.78-7.73c-2.59-2.14-1.93-3.44.14-5.47C9.79,185.36,17.56,177.38,25.4,169.47Z"/><path class="cls-1" d="M170.69,52,52.62,169c-6-2.91-9.57-8.35-14-12.93,11.52-10.05,21.94-21.24,32.81-32q43.11-42.51,86-85.28C162.78,42.34,167.53,46.39,170.69,52Z"/></g></g></svg>