<?xml version="1.0" encoding="utf-8"?>
<!-- Generator: Adobe Illustrator 24.0.2, SVG Export Plug-In . SVG Version: 6.00 Build 0)  -->
<svg version="1.1" id="Ebene_1" xmlns="http://www.w3.org/2000/svg" xmlns:xlink="http://www.w3.org/1999/xlink" x="0px" y="0px"
	 viewBox="0 0 75.4 223.7" style="enable-background:new 0 0 75.4 223.7;" xml:space="preserve">
<style type="text/css">
	.st0{fill:#6E150E;}
	.st1{fill:none;}
	.st2{fill:#FFFFFF;}
</style>
<title>Element 2</title>
<g id="Ebene_2_1_">
	<g id="Ebene_1-2">
		<path class="st0" d="M75.5,223.7L75.5,223.7c0.2,0,0.4,0,0.5,0H75.5z"/>
		<path class="st0" d="M43.3,62c-0.4,2.7,0.8,4.8,1.8,7c2.1,4.7,1.7,5.6-3.3,6.9c-1.5,0.4-3.3,0.2-4.7,1.8c1.9,2.7,5,3.1,7.7,4.1
			c10.1,4,20.5,7.1,30.7,10.8v131c-10.4,0-20.9-1.5-31.4-4.8c-4.8-1.5-7.5-3.6-6.4-10c3-17.8,4.8-35.9,7.3-53.8
			c0.3-2.5-0.3-4.9-1.8-6.9C30.1,128.8,17,109.4,4,90c-5.4-8-5.3-8.1,0-15.7c9.1-13.1,18.4-26,27.4-39.2c2.2-3.3,4.4-3.8,7.9-2.2
			c12,5.4,24.1,10.6,36.2,15.8v21.5c-2.7,0.1-5.4,0.5-8,1.2c-8.7,2.3-15.6-0.5-21.2-7.2c-0.5-0.6-1.1-1.2-1.7-1.8
			C44.3,62.2,43.9,62.2,43.3,62z"/>
		<path class="st0" d="M75.5,8.7V27c-2,2.9-3.9,5.9-5.9,8.8c-1,1.5-2.4,1.7-5,1.5c-5.9-2.6-12.7-5.4-19.4-8.7
			c-2.6-1.3-1.8-3.7-0.4-5.6C50,16,55.2,9,60.4,2c1.8-2.5,3.7-2.4,5.9-0.7C69.3,3.7,72.4,6.2,75.5,8.7z"/>
		<path class="st0" d="M75.5,37.8v3.3C74.9,40.2,74.9,39.2,75.5,37.8z"/>
		<path class="st0" d="M71.3,76.2L71.3,76.2z"/>
		<path class="st0" d="M75.5,75.5v6.9c-2.4,1.6-5.2,2.5-7.1,1.9c-4.5-1.5-8.9-3.1-13.4-4.6v0c0,0,0,0,0,0v-1.8c2,0.9,4.3,1,6.5,0.2
			l11.4-2.1l2.6-0.5L75.5,75.5z"/>
		<path class="st0" d="M54.9,77.8l0,1.8c-1.6-0.5-3.3-0.4-4.4-2.3C52.4,77,53.2,77.1,54.9,77.8z"/>
		<path class="st1" d="M79.7,75.3l-4.4,0.1"/>
	</g>
</g>
<path class="st2" d="M75.5,82.3v-6.9l4.5-0.3C80.9,77.2,78.5,80.3,75.5,82.3z"/>
</svg>
