<?xml version="1.0" encoding="utf-8"?>
<!-- Generator: Adobe Illustrator 24.0.2, SVG Export Plug-In . SVG Version: 6.00 Build 0)  -->
<svg version="1.1" id="Ebene_1" xmlns="http://www.w3.org/2000/svg" xmlns:xlink="http://www.w3.org/1999/xlink" x="0px" y="0px"
	 viewBox="0 0 150.9 223.7" style="enable-background:new 0 0 150.9 223.7;" xml:space="preserve">
<style type="text/css">
	.st0{fill:#6E150E;}
</style>
<title>Element 2</title>
<g id="Ebene_2_1_">
	<g id="Ebene_1-2">
		<path class="st0" d="M138.2,100c-0.4,20.9-7,39.2-18.9,55.6c-2.2,2.9-3.4,6.4-3.3,10c0.2,15.3,0,30.6,0.1,45.9
			c0,2.7-0.6,4.3-3.3,5.3c-22.7,8.4-45.7,9.4-68.9,2.2c-4.8-1.5-7.5-3.6-6.4-10c3-17.8,4.8-35.9,7.3-53.8c0.3-2.4-0.3-4.9-1.8-6.9
			C30.1,128.8,17,109.4,4,90c-5.4-8-5.3-8.1,0-15.7c9.1-13,18.4-26,27.4-39.2c2.2-3.3,4.4-3.8,7.9-2.2c13.2,5.9,26.4,11.6,39.6,17.3
			c3.7,1.6,5.5,4.1,4.9,8.2c-0.3,1.8-0.6,3.6-0.8,5.4c-0.4,4.1-2.2,6.3-6.6,6.4c-3,0-6,0.4-8.9,1.2c-8.7,2.3-15.6-0.4-21.2-7.2
			c-0.5-0.6-1.1-1.2-1.7-1.8c-0.2-0.2-0.6-0.2-1.2-0.3c-0.5,2.6,0.8,4.8,1.8,7c2.1,4.7,1.7,5.6-3.3,6.8c-1.5,0.4-3.3,0.2-4.7,1.8
			c1.9,2.7,5,3.1,7.7,4.1c12.7,5,25.8,8.6,38.4,13.8c10.3,4.1,19.5,10.8,26.7,19.3c3.2,3.8,5.6,3.3,9,0.4
			C125.2,110,131.8,105.1,138.2,100z"/>
		<path class="st0" d="M131.2,58.3c-0.2,1.6-0.9,3.1-2.1,4.2c-9.3,10.6-18.7,21.1-27.9,31.8c-1.9,2.2-3.9,2.2-6.2,1
			c-4.3-2.2-8.4-4.6-12.7-6.8c-2.6-1.4-2.6-3.1-0.9-5.2c10.3-13,20.5-26.1,30.7-39.1c1.5-1.9,3.4-2.4,5.1-0.8
			c4.5,4.4,8.9,8.9,13.2,13.5C130.8,57.2,131.1,57.7,131.2,58.3z"/>
		<path class="st0" d="M150.9,81.1c0,1.4-1.1,2-2,2.7c-10.4,8.5-20.9,16.9-31.3,25.4c-2.2,1.8-4,1.7-6.1-0.2
			c-9.9-8.9-10.3-6.8-1.5-16.3c7.6-8.2,15-16.5,22.4-24.7c3.8-4.2,4.9-4.1,8.6,0.1c2.7,3.1,5.4,6.3,8.1,9.5
			C150,78.6,151,79.6,150.9,81.1z"/>
		<path class="st0" d="M64.6,37.4c-5.9-2.6-12.7-5.4-19.4-8.7c-2.6-1.3-1.8-3.7-0.4-5.6C50,16,55.2,9.1,60.4,2
			c1.8-2.5,3.7-2.4,5.9-0.7c4.8,3.8,9.5,7.7,14.3,11.5c2.1,1.7,1.9,3.7,0.6,5.7c-3.8,5.8-7.7,11.5-11.5,17.4
			C68.6,37.4,67.2,37.5,64.6,37.4z"/>
		<path class="st0" d="M88.1,63.5c0.2-2.6,0.3-5.2,0.7-7.7c0.6-4.8-1.4-7.8-5.7-9.9c-10-4.9-10-5-3.9-14.6c1.9-2.9,3.8-5.8,5.7-8.8
			c2.2-3.5,4.8-4.3,8.1-1.4c4.8,4.3,9.6,8.7,14.5,13c1.6,1.4,2.5,2.9,1.1,4.7c-6.3,8.5-12.8,16.8-19.2,25.2L88.1,63.5z"/>
		<path class="st0" d="M71.3,76.2"/>
		<path class="st0" d="M72.8,75.9l2.6-0.4l4.6-0.3c1.7,3.6-7.2,10.5-11.6,9s-9-3.1-13.4-4.7v-1.8c2.1,0.9,4.4,1,6.5,0.2"/>
		<path class="st0" d="M54.9,77.8l0,1.8c-1.6-0.5-3.3-0.4-4.4-2.3C52.4,77,53.2,77.1,54.9,77.8z"/>
		<path class="st0" d="M79.7,75.3l-4.4,0.1"/>
	</g>
</g>
</svg>
