<svg xmlns="http://www.w3.org/2000/svg" viewBox="0 0 539.33 224.11"><defs><style>.cls-1{fill:#fff;}</style></defs><title>logo</title><g id="Ebene_2" data-name="Ebene 2"><g id="svg4232"><path id="path84" class="cls-1" d="M140.76,46.46v36.9c0,1.84-1.58,4.86-3.42,6.7L99.76,127.64A4.08,4.08,0,0,1,97.3,129c-.6,0-1-.45-1-1.36v4.1a3.48,3.48,0,0,0,3.42,3.41h81.86a3.48,3.48,0,0,0,3.41-3.41v-82a3.37,3.37,0,0,0-3.41-3.28ZM88.69,131.74a3.49,3.49,0,0,1-3.42,3.41H44.41V179.7c0,.92.36,1.37,1,1.37a3.81,3.81,0,0,0,2.32-1.37l37.58-37.58c1.83-1.83,3.42-4.86,3.42-6.69v-3.69Z"/><path id="path88" class="cls-1" d="M139.8,0a4,4,0,0,0-2.46,1.37L99.76,39.08c-1.83,1.83-3.42,4.73-3.42,6.56v82c0,1.83,1.59,1.83,3.42,0l37.58-37.58c1.84-1.84,3.42-4.86,3.42-6.7v-82C140.76.45,140.4,0,139.8,0ZM3.42,46.46A3.37,3.37,0,0,0,0,49.74v82a3.48,3.48,0,0,0,3.42,3.41H85.27a3.48,3.48,0,0,0,3.42-3.41v-82a3.37,3.37,0,0,0-3.42-3.28Z"/><path id="path100" class="cls-1" d="M99.76,46.46a3.48,3.48,0,0,0-3.42,3.42v77.76c0,.91.36,1.36,1,1.36a4.08,4.08,0,0,0,2.46-1.36l37.58-37.58c1.84-1.84,3.42-4.87,3.42-6.7V46.46Zm-12,5.61a4.08,4.08,0,0,0-2.46,1.36L47.69,91.15c-1.83,1.87-3.28,4.73-3.28,6.56v37.44H85.27a3.48,3.48,0,0,0,3.42-3.41V53.43c0-.91-.36-1.36-1-1.36Z"/><path id="path238" class="cls-1" d="M392.75,46.6a2.35,2.35,0,0,0-1.64.55,1.9,1.9,0,0,0-.68,1.5v84.18a2.28,2.28,0,0,0,.68,1.64,2.32,2.32,0,0,0,1.64.68H413a40.61,40.61,0,0,0,11.89-1.77,30.73,30.73,0,0,0,9.71-4.92,23.16,23.16,0,0,0,6.55-8.07,23.8,23.8,0,0,0,2.46-10.79,19.77,19.77,0,0,0-1.5-7.79,21.48,21.48,0,0,0-4.1-6.42,22,22,0,0,0-6-4.51,24,24,0,0,0-7.11-2.46,22.48,22.48,0,0,0,5.47-2.6,26.22,26.22,0,0,0,5.33-4.37,24.57,24.57,0,0,0,4-5.88,15.3,15.3,0,0,0,1.64-6.83,20.56,20.56,0,0,0-2.19-9.84,20.3,20.3,0,0,0-5.87-7,25.19,25.19,0,0,0-8.47-4.1,38.6,38.6,0,0,0-10.12-1.23Zm61.36,0a2,2,0,0,0-1.51.55,1.42,1.42,0,0,0-.27,1.5l16.95,84.18a3.79,3.79,0,0,0,1.09,1.64,2.45,2.45,0,0,0,1.64.68h6.69a2.4,2.4,0,0,0,1.64-.68,3.61,3.61,0,0,0,1-1.64l14.49-74.2,14.62,74.2a3.44,3.44,0,0,0,1,1.64,2.41,2.41,0,0,0,1.64.68h6.69a2.34,2.34,0,0,0,1.64-.68,3.89,3.89,0,0,0,1-1.64l16.94-84.18a1.46,1.46,0,0,0-.27-1.5,1.65,1.65,0,0,0-1.37-.55h-5.33a2.44,2.44,0,0,0-2.59,2L516.56,123,501.94,48.65a2.31,2.31,0,0,0-2.46-2h-6.7a2.39,2.39,0,0,0-2.6,2L475.7,123,462.44,48.65a2.53,2.53,0,0,0-2.73-2Zm-54,7.79h14.48c5,0,9.05,1.31,12.17,4a13.5,13.5,0,0,1,4.64,10.8,13.72,13.72,0,0,1-1.5,6.28,16.56,16.56,0,0,1-3.83,5.06,18,18,0,0,1-5.46,3.28A17.66,17.66,0,0,1,414.2,85H400.13V54.39Zm0,38.26h14.48c5.6,0,10.15,1.54,13.67,4.51s5.19,6.89,5.19,12a18.17,18.17,0,0,1-1.36,7.38,17.27,17.27,0,0,1-4.1,5.74,18.63,18.63,0,0,1-6,3.69,20.48,20.48,0,0,1-7.38,1.36H400.13V92.65ZM282.6,155.38V175.6a8,8,0,0,0,.14,1.64,3.29,3.29,0,0,0,1.64,2.19,3.62,3.62,0,0,0,1.64.27,3.94,3.94,0,0,0,1.09-.13,2.44,2.44,0,0,0,.82-.41l-.68-1.92-.55.41-.54.14a1,1,0,0,1-1-.68,4.19,4.19,0,0,1-.27-1.64V155.38Zm87.87,0v23.91h2.33V167.13l.41-.82.82-1.09a6.15,6.15,0,0,1,1.36-1,3.11,3.11,0,0,1,1.51-.41,2.48,2.48,0,0,1,1.36.41,3.4,3.4,0,0,1,1.1,1,4.66,4.66,0,0,1,.54,1.36,4.71,4.71,0,0,1,.28,1.37v11.34h2.32V167.68a5.53,5.53,0,0,0-1.37-4,4.57,4.57,0,0,0-1.64-1.23,5.26,5.26,0,0,0-2.32-.54,3.79,3.79,0,0,0-1.64.41,6.81,6.81,0,0,0-1.37.82,5.67,5.67,0,0,0-1,1l-.41.69v-9.43Zm46.74,0v23.91h2.32V167.13l.41-.82.82-1.09a5.57,5.57,0,0,1,1.23-1,3.65,3.65,0,0,1,1.64-.41,2.54,2.54,0,0,1,1.37.41,3.47,3.47,0,0,1,1.09,1,5,5,0,0,1,.55,1.36,5,5,0,0,1,.27,1.37v11.34h2.33V167.68a6.39,6.39,0,0,0-.41-2.05,6,6,0,0,0-1-1.92,4.75,4.75,0,0,0-1.64-1.23,5.26,5.26,0,0,0-2.32-.54,3.82,3.82,0,0,0-1.64.41,6.54,6.54,0,0,0-1.37.82,6.17,6.17,0,0,0-1,1l-.41.69v-9.43Zm35.26,0V175.6a8,8,0,0,0,.13,1.64,3.07,3.07,0,0,0,.55,1.23,2.76,2.76,0,0,0,1,1,3.57,3.57,0,0,0,1.64.27,5.05,5.05,0,0,0,1.23-.13,2.55,2.55,0,0,0,.82-.41l-.69-1.92-.54.41-.69.14c-.42,0-.64-.26-.82-.68a4.19,4.19,0,0,1-.27-1.64V155.38Zm-223.16,1.5v22.41h5.33a8.19,8.19,0,0,0,3.82-.95,9.79,9.79,0,0,0,3.15-2.46,12.1,12.1,0,0,0,2-3.69,14.38,14.38,0,0,0,.68-4.65,12.5,12.5,0,0,0-.82-4.51,9.06,9.06,0,0,0-2.05-3.28,9.84,9.84,0,0,0-3.28-2.19,11.28,11.28,0,0,0-4.1-.68Zm88.82,0v22.41h2.46V168.63h9.16v10.66h2.46V156.88h-2.46v9.7h-9.16v-9.7Zm-86.36,1.91h2.73a6.41,6.41,0,0,1,2.73.69,6.51,6.51,0,0,1,2.33,1.64,8.67,8.67,0,0,1,1.64,2.73,10.59,10.59,0,0,1,.68,3.69,12.45,12.45,0,0,1-.55,3.83,10.63,10.63,0,0,1-1.64,3.14,7.4,7.4,0,0,1-2.32,2.05,5.34,5.34,0,0,1-2.73.82h-2.87V158.79Zm39.35,3.15a8.15,8.15,0,0,0-1.77.27c-.58.14-1.17.24-1.64.41s-.76.39-1.09.55l-.69.27.69,1.91.68-.41c.32-.17.69-.24,1.09-.41s.78-.41,1.23-.54a4.37,4.37,0,0,1,1.23-.14,3.25,3.25,0,0,1,2.73,1.09,4.16,4.16,0,0,1,.82,2.74v1.09l-3.28.82a11.07,11.07,0,0,0-2,.68,11,11,0,0,0-2.19,1.1,5.84,5.84,0,0,0-1.5,1.64,3.17,3.17,0,0,0-.69,1.91,4.52,4.52,0,0,0,1.51,3.55,5.42,5.42,0,0,0,3.68,1.23,3.88,3.88,0,0,0,1.64-.27,8.3,8.3,0,0,0,1.51-1,6.43,6.43,0,0,0,1.09-.82l.41-.68v2.32h2.19V167.68a5.53,5.53,0,0,0-1.51-4.24,5.78,5.78,0,0,0-4.1-1.5Zm26,0a4.72,4.72,0,0,0-2.73.95,7.23,7.23,0,0,0-1.92,2.05,10.59,10.59,0,0,0-1.23,2.74,10.46,10.46,0,0,0-.41,2.73,17.58,17.58,0,0,0,.28,3.28,10.11,10.11,0,0,0,1.09,3,6.39,6.39,0,0,0,2.05,2.18,5.71,5.71,0,0,0,3.28.82,10.29,10.29,0,0,0,1.78-.13c.57-.1,1.18-.28,1.64-.41a11.24,11.24,0,0,0,1.09-.41l.68-.28-.68-1.91-.68.41a11.24,11.24,0,0,1-1.1.41,11.37,11.37,0,0,1-1.23.27,5.88,5.88,0,0,1-1.36.28,3.27,3.27,0,0,1-2.05-.69,5,5,0,0,1-1.37-1.64,8.53,8.53,0,0,1-.82-2.18,10.31,10.31,0,0,1-.27-2.19h10.11v-.82a13.89,13.89,0,0,0-.27-2.87,9.65,9.65,0,0,0-1.1-2.73,6.35,6.35,0,0,0-1.91-2.05A4.91,4.91,0,0,0,297.09,161.94Zm47.15,0a5.11,5.11,0,0,0-3,.95,7.64,7.64,0,0,0-2.05,2.19,9.68,9.68,0,0,0-1.23,2.73,10.77,10.77,0,0,0-.41,2.6,16.38,16.38,0,0,0,.41,3,10.44,10.44,0,0,0,1.09,3,7.05,7.05,0,0,0,2,2.33,5.68,5.68,0,0,0,6.29,0,7.08,7.08,0,0,0,2.05-2.33,10.44,10.44,0,0,0,1.09-3,14.32,14.32,0,0,0,.41-3,11.48,11.48,0,0,0-.27-2.6,9.46,9.46,0,0,0-1.23-2.73,7,7,0,0,0-2.05-2.19,5.46,5.46,0,0,0-3.14-.95Zm17.35,0a4.87,4.87,0,0,0-2.73.82,7.28,7.28,0,0,0-2.05,2.05,9.85,9.85,0,0,0-1.37,2.73,9.39,9.39,0,0,0-.55,2.87,17,17,0,0,0,.41,3.42,9.91,9.91,0,0,0,1.1,3,6.09,6.09,0,0,0,2.05,2,5.78,5.78,0,0,0,3.14.82,8,8,0,0,0,1.64-.13,11.86,11.86,0,0,0,1.37-.41,7.65,7.65,0,0,0,.95-.41l.69-.28-.82-1.91-.55.41-1,.41a7.55,7.55,0,0,1-1.09.27,4.18,4.18,0,0,1-1.09.14,3.28,3.28,0,0,1-2.05-.68,4.81,4.81,0,0,1-1.37-1.64,9.32,9.32,0,0,1-.68-2.46,14.55,14.55,0,0,1-.28-2.6,8.44,8.44,0,0,1,.28-2.19,8.62,8.62,0,0,1,.82-2.18,5.09,5.09,0,0,1,1.36-1.51,2.94,2.94,0,0,1,1.78-.68l1.09.14,1,.41,1,.41.41.27.82-1.91-.55-.41-1-.28a10.4,10.4,0,0,0-1.23-.41,9.2,9.2,0,0,0-1.5-.13Zm31.3,0a5.55,5.55,0,0,0-2.05.41,5.76,5.76,0,0,0-1.78,1.09,5,5,0,0,0-1.23,1.64,4.67,4.67,0,0,0-.41,2,2.81,2.81,0,0,0,.55,1.78,6.39,6.39,0,0,0,1.5,1.36,15.24,15.24,0,0,0,1.91,1.23c.7.38,1.32.72,1.92,1.1a8.37,8.37,0,0,1,1.5,1.23,1.74,1.74,0,0,1,.68,1.23,2.46,2.46,0,0,1-1,2.05,3.9,3.9,0,0,1-2.33.82,6.22,6.22,0,0,1-1.36-.14c-.5-.11-.93-.29-1.37-.41a9.37,9.37,0,0,1-1.09-.41l-.69-.41-.82,1.91.82.41a8.92,8.92,0,0,0,1.1.41,14.61,14.61,0,0,0,1.64.28,12,12,0,0,0,1.77.13,6.4,6.4,0,0,0,2.19-.41,5.1,5.1,0,0,0,1.77-.95,5.16,5.16,0,0,0,1.23-1.64,4.85,4.85,0,0,0,.41-2,2.44,2.44,0,0,0-.54-1.64,7.44,7.44,0,0,0-1.51-1.37,14.92,14.92,0,0,0-1.91-1.23c-.71-.37-1.45-.71-2-1.09a8.29,8.29,0,0,1-1.5-1.23,1.86,1.86,0,0,1-.55-1.37,2.86,2.86,0,0,1,1-2.19,3.2,3.2,0,0,1,2.18-.82l1,.14,1.09.41.82.41.55.27.68-1.77-.54-.41a8.21,8.21,0,0,0-1-.28,12.64,12.64,0,0,0-1.23-.41,7.06,7.06,0,0,0-1.37-.13Zm15.44,0a4.88,4.88,0,0,0-2.74.82,7.73,7.73,0,0,0-2.18,2.05,9.28,9.28,0,0,0-1.23,2.73,9.39,9.39,0,0,0-.55,2.87,17,17,0,0,0,.41,3.42,9.9,9.9,0,0,0,1.09,3,6.09,6.09,0,0,0,2.05,2,5.37,5.37,0,0,0,3,.82,8,8,0,0,0,1.64-.13,13.89,13.89,0,0,0,1.5-.41,7.87,7.87,0,0,0,1-.41l.55-.28-.69-1.91-.68.41-.82.41a7.55,7.55,0,0,1-1.09.27,5.34,5.34,0,0,1-1.23.14,3,3,0,0,1-1.92-.68,4.79,4.79,0,0,1-1.36-1.64,9.32,9.32,0,0,1-.69-2.46,15.51,15.51,0,0,1-.27-2.6,8.87,8.87,0,0,1,.27-2.19,9.45,9.45,0,0,1,.82-2.18,5.12,5.12,0,0,1,1.37-1.51,2.91,2.91,0,0,1,1.78-.68l.95.14,1.1.41.95.41.41.27.69-1.91-.41-.41-1-.28a10.4,10.4,0,0,0-1.23-.41,9.29,9.29,0,0,0-1.5-.13Zm58.35,0a4.72,4.72,0,0,0-2.73.95,7.09,7.09,0,0,0-1.92,2.05,10.59,10.59,0,0,0-1.23,2.74,10.9,10.9,0,0,0-.41,2.73,18.86,18.86,0,0,0,.41,3.28,9.65,9.65,0,0,0,1,3,6.39,6.39,0,0,0,2.05,2.18,5.71,5.71,0,0,0,3.28.82,10.21,10.21,0,0,0,1.78-.13c.57-.1,1.18-.28,1.64-.41s.76-.28,1.09-.41l.68-.28-.68-1.91-.68.41a7.47,7.47,0,0,1-1,.41c-.39.13-.91.17-1.37.27a5.88,5.88,0,0,1-1.36.28,3.27,3.27,0,0,1-2.05-.69,5,5,0,0,1-1.37-1.64,8.53,8.53,0,0,1-.82-2.18,11,11,0,0,1-.27-2.19h10.11v-.82a13.89,13.89,0,0,0-.27-2.87,9.1,9.1,0,0,0-1.1-2.73,6.24,6.24,0,0,0-1.91-2.05,4.91,4.91,0,0,0-2.87-.82Zm-218.38.41V174a8.08,8.08,0,0,0,.41,2.19,5,5,0,0,0,1,1.78,5,5,0,0,0,1.64,1.36,5,5,0,0,0,2.32.41,3.62,3.62,0,0,0,1.64-.41,7.2,7.2,0,0,0,1.37-.82,6.17,6.17,0,0,0,1-.95L258,177v2.32h2.18V162.35h-2.32v12.3l-.41.68-.82,1.09a6.63,6.63,0,0,1-1.23,1,2.87,2.87,0,0,1-1.5.41,3.07,3.07,0,0,1-1.51-.41,2.62,2.62,0,0,1-1-.82,4.79,4.79,0,0,1-.55-1.37,6.21,6.21,0,0,1-.27-1.5V162.35Zm186.54,0V174a8,8,0,0,0,.27,2.19,4.87,4.87,0,0,0,1,1.78,4.77,4.77,0,0,0,1.64,1.36,5,5,0,0,0,2.32.41,4.23,4.23,0,0,0,1.78-.41,6.27,6.27,0,0,0,1.23-.82,5.67,5.67,0,0,0,.95-.95l.55-.55v2.32h2.19V162.35H444.4v12.3l-.41.68-.82,1.09a6.31,6.31,0,0,1-1.23,1,3.32,3.32,0,0,1-1.63.41,2.55,2.55,0,0,1-1.37-.41,3.13,3.13,0,0,1-1.09-.82,4.52,4.52,0,0,1-.55-1.37,5.71,5.71,0,0,1-.14-1.5V162.35Zm-137.75,1.5a2.6,2.6,0,0,1,1.78.55,5,5,0,0,1,1.23,1.5,8,8,0,0,1,.68,1.91,8.87,8.87,0,0,1,.27,1.78h-7.79a8.09,8.09,0,0,1,.28-1.91,6.7,6.7,0,0,1,.68-1.78,4.76,4.76,0,0,1,1.23-1.5,2.45,2.45,0,0,1,1.64-.55Zm47.15,0a3.15,3.15,0,0,1,2.05.82,5.31,5.31,0,0,1,1.36,1.64,8.6,8.6,0,0,1,.69,2.19,10.36,10.36,0,0,1,.13,1.91,18.09,18.09,0,0,1-.13,2.32,8.61,8.61,0,0,1-.69,2.33,5.77,5.77,0,0,1-1.36,1.91,2.9,2.9,0,0,1-2.05.82,2.83,2.83,0,0,1-2.05-.82,5.52,5.52,0,0,1-1.37-1.91,9.23,9.23,0,0,1-.55-2.33,18.64,18.64,0,0,1-.27-2.32,11.93,11.93,0,0,1,.27-2,7.62,7.62,0,0,1,.69-2.05,5.74,5.74,0,0,1,1.36-1.78A2.82,2.82,0,0,1,344.24,163.85Zm122.58,0a2.59,2.59,0,0,1,1.77.55,4.9,4.9,0,0,1,1.1,1.5,8,8,0,0,1,.68,1.91,9.65,9.65,0,0,1,.27,1.78h-7.79a8.09,8.09,0,0,1,.28-1.91,7.46,7.46,0,0,1,.68-1.78,4.76,4.76,0,0,1,1.23-1.5,2.85,2.85,0,0,1,1.78-.55Zm-192.42,6.7v4.1l-.54,1.09a5.41,5.41,0,0,1-1,1.09,5.5,5.5,0,0,1-1.37.69,4,4,0,0,1-1.5.41,2.81,2.81,0,0,1-2.87-3,2.37,2.37,0,0,1,.41-1.37,5.12,5.12,0,0,1,1.09-1.09,7.78,7.78,0,0,1,1.51-.82,10.29,10.29,0,0,1,1.5-.55l2.73-.54Zm-1.5,21.86v9.29l-.55-.68-.82-1a5.36,5.36,0,0,0-1.23-.68,3.54,3.54,0,0,0-1.5-.41,4.82,4.82,0,0,0-2.59.82,6.65,6.65,0,0,0-2,1.91,10.19,10.19,0,0,0-1.37,2.74,10,10,0,0,0-.41,3,15.42,15.42,0,0,0,.41,3.28,9.89,9.89,0,0,0,1.09,3,6.57,6.57,0,0,0,1.92,2.19,5.24,5.24,0,0,0,3,.82,3.59,3.59,0,0,0,1.5-.41,6.42,6.42,0,0,0,1.23-.82,5.43,5.43,0,0,0,1-1l.55-.68v2.46h2.18V192.41Zm175.6,0v23.51c.21,0,.49.18,1,.27l1.5.27c.55.1,1.11.08,1.64.14s1,.14,1.37.14a5.82,5.82,0,0,0,3.14-.82,7.84,7.84,0,0,0,2.33-2.19,9.58,9.58,0,0,0,1.36-3,12.12,12.12,0,0,0,.55-3.28,13.94,13.94,0,0,0-.41-3,8,8,0,0,0-1.09-2.6,7,7,0,0,0-2.05-2.05,5,5,0,0,0-2.87-.82,3.38,3.38,0,0,0-1.51.41,6.75,6.75,0,0,0-1.23.82l-.95,1-.41.54v-9.29Zm-92.1.82a1.55,1.55,0,0,0-1.1.55,1.48,1.48,0,0,0-.4,1.09,1.49,1.49,0,0,0,.4,1.09,1.67,1.67,0,0,0,2.19,0,1.6,1.6,0,0,0,.55-1.09,1.58,1.58,0,0,0-.55-1.09A1.54,1.54,0,0,0,356.4,193.23Zm5.74,0a1.55,1.55,0,0,0-1.1.55,1.48,1.48,0,0,0-.41,1.09A1.5,1.5,0,0,0,361,196a1.39,1.39,0,0,0,1.1.41,1.7,1.7,0,0,0,1.23-.41,1.46,1.46,0,0,0,.41-1.09,1.45,1.45,0,0,0-.41-1.09A1.87,1.87,0,0,0,362.14,193.23Zm-132.83.55v22.55h5.74a9.31,9.31,0,0,0,2.87-.41,8.22,8.22,0,0,0,2.59-1.37,5.3,5.3,0,0,0,1.64-1.91,6,6,0,0,0,.55-2.74,5,5,0,0,0-2.87-4.78,6.61,6.61,0,0,0-1.91-.68,6.85,6.85,0,0,0,1.5-.69,5.5,5.5,0,0,0,1.23-1.09,6.69,6.69,0,0,0,1.09-1.5,3.53,3.53,0,0,0,.41-1.64,5.73,5.73,0,0,0-.54-2.6,5.32,5.32,0,0,0-1.51-1.78,6.65,6.65,0,0,0-2.18-.95,8.86,8.86,0,0,0-2.46-.41Zm94.84,0,5.19,22.55h2.73l4.79-19.41,4.92,19.41h2.73l5.19-22.55h-2.46l-4.1,19.4-4.78-19.4h-2.73l-4.79,19.4-4.1-19.4Zm59.58,1.09v4.51H381v1.91h2.73v11.76a5.29,5.29,0,0,0,.27,1.36,3.14,3.14,0,0,0,.55,1.23,2.76,2.76,0,0,0,1.09.82,4.72,4.72,0,0,0,1.78.28l.68-.14.82-.14.69-.13.41-.14-.69-1.91a5.9,5.9,0,0,1-.82.27,3.07,3.07,0,0,1-.95.27,1.15,1.15,0,0,1-1.1-.68,3.29,3.29,0,0,1-.41-1.37V201.29h3.42v-1.91h-3.42v-4.51Zm11.61,0v4.51h-2.86v1.91h2.86v11.76a4.77,4.77,0,0,0,.14,1.36,3.29,3.29,0,0,0,.55,1.23,2.76,2.76,0,0,0,1.09.82,4.75,4.75,0,0,0,1.78.28l.68-.14.82-.14.68-.13.41-.14-.68-1.91a3.28,3.28,0,0,1-.68.27,3.83,3.83,0,0,1-1.1.27,1.13,1.13,0,0,1-1.09-.68,3.11,3.11,0,0,1-.27-1.37V201.29H401v-1.91h-3.28v-4.51h-2.33Zm-163.57,1h3.69a4.36,4.36,0,0,1,3,.95,3.45,3.45,0,0,1,1.23,2.74,3.69,3.69,0,0,1-.41,1.64,3.89,3.89,0,0,1-2.32,2.18,4.32,4.32,0,0,1-1.64.28h-3.55v-7.79ZM252.13,199a8.33,8.33,0,0,0-1.78.27,14.56,14.56,0,0,0-1.5.41c-.47.18-.89.39-1.23.55l-.68.27.68,1.92.68-.41a11.26,11.26,0,0,1,1.1-.55,12.66,12.66,0,0,1,1.23-.41,4.5,4.5,0,0,1,1.23-.27,3.32,3.32,0,0,1,2.73,1.23,4.13,4.13,0,0,1,.82,2.73v1.09l-3.28.82a11.78,11.78,0,0,0-2,.69A10.28,10.28,0,0,0,248,208.4a6.55,6.55,0,0,0-1.64,1.64,3.25,3.25,0,0,0-.68,1.91,4.57,4.57,0,0,0,1.5,3.56,5.47,5.47,0,0,0,3.69,1.23,4.68,4.68,0,0,0,1.78-.41,6.63,6.63,0,0,0,1.36-.82,6,6,0,0,0,1.1-1l.41-.68v2.46h2.18V204.57a5.25,5.25,0,0,0-1.5-4.1,5.82,5.82,0,0,0-4.1-1.5Zm33.62,0a4.55,4.55,0,0,0-2.74.82A8.25,8.25,0,0,0,281,202a10.06,10.06,0,0,0-1.09,2.73,10.46,10.46,0,0,0-.41,2.73,17,17,0,0,0,.27,3.15,10,10,0,0,0,1.1,3,6.58,6.58,0,0,0,2.05,2.33,5.87,5.87,0,0,0,3.28.82,10.08,10.08,0,0,0,1.77-.14,11.63,11.63,0,0,0,1.51-.41c.46-.13.9-.28,1.23-.41l.68-.27-.68-1.92-.82.41a5.77,5.77,0,0,1-1,.41,11.84,11.84,0,0,1-1.23.28,8.36,8.36,0,0,1-1.5.13,2.87,2.87,0,0,1-1.92-.54,6.05,6.05,0,0,1-1.5-1.78,7.38,7.38,0,0,1-.68-2.05,10.27,10.27,0,0,1-.28-2.19H291.9v-.82a14.38,14.38,0,0,0-.41-2.87,9.22,9.22,0,0,0-1-2.73,6.35,6.35,0,0,0-1.91-2.05,4.93,4.93,0,0,0-2.87-.82Zm17.76,0a3.75,3.75,0,0,0-1.64.41,9.25,9.25,0,0,0-1.5.82,6.2,6.2,0,0,0-1,1l-.41.54v-2.32h-2.18v17h2.32V204.16l.41-.95.82-1a6.21,6.21,0,0,1,1.37-1,3.37,3.37,0,0,1,1.5-.41,2.63,2.63,0,0,1,1.37.41,3.6,3.6,0,0,1,1.09,1,5,5,0,0,1,.55,1.37,5,5,0,0,1,.27,1.36v11.35h2.32V204.71a6.67,6.67,0,0,0-.41-2.05,5.7,5.7,0,0,0-.95-1.91,4.63,4.63,0,0,0-1.64-1.23,5.23,5.23,0,0,0-2.33-.55Zm73.39,0a3.41,3.41,0,0,0-1.64.41,5.49,5.49,0,0,0-1.23.82l-.69,1-.41.54v-2.32h-2.18v17h2.32V204.16l.27-.68.82-1.09a5.63,5.63,0,0,1,1.1-.82,2.29,2.29,0,0,1,1.23-.41l.68.13.68.28.69-2-.69-.41-1-.14Zm34,0a4.59,4.59,0,0,0-2.73.82,7.63,7.63,0,0,0-1.91,2.19,10.53,10.53,0,0,0-1.64,5.46,17.44,17.44,0,0,0,.41,3.15,10,10,0,0,0,.95,3,6.78,6.78,0,0,0,2.05,2.33,5.91,5.91,0,0,0,3.28.82,10.19,10.19,0,0,0,1.78-.14,14.53,14.53,0,0,0,1.64-.41,9.83,9.83,0,0,0,1.09-.41l.69-.27-.69-1.92-.68.41a7.56,7.56,0,0,1-1.09.41,11.84,11.84,0,0,1-1.23.28,6.92,6.92,0,0,1-1.37.13,3.26,3.26,0,0,1-2.05-.54,5.83,5.83,0,0,1-1.37-1.78,7.65,7.65,0,0,1-.82-2.05,10.23,10.23,0,0,1-.27-2.19h10.11v-.82a13.83,13.83,0,0,0-.27-2.87,9.75,9.75,0,0,0-1.09-2.73,6.27,6.27,0,0,0-1.92-2.05,4.89,4.89,0,0,0-2.87-.82Zm17.36,0a3.52,3.52,0,0,0-1.64.41,6,6,0,0,0-1.37.82l-.82,1-.41.54v-2.32h-2.18v17h2.32V204.16l.41-.95.68-1a5.81,5.81,0,0,1,1.23-1,3.25,3.25,0,0,1,1.51-.41,3,3,0,0,1,1.5.41,3.14,3.14,0,0,1,1,1,3.71,3.71,0,0,1,.54,1.23,7.55,7.55,0,0,1,.14,1.5v11.35h2.32V203.89l.27-1,.82-1a5,5,0,0,1,1.23-.69,3.49,3.49,0,0,1,1.51-.41,3.1,3.1,0,0,1,1.5.41,2.84,2.84,0,0,1,1,1,4.17,4.17,0,0,1,.54,1.23,6.87,6.87,0,0,1,.14,1.5v11.35h2.32V204.71a8.36,8.36,0,0,0-.27-2.05,5.13,5.13,0,0,0-.82-1.91,4.38,4.38,0,0,0-1.64-1.23,5.48,5.48,0,0,0-2.46-.55,4.16,4.16,0,0,0-1.78.41,7.83,7.83,0,0,0-1.5.82,4.94,4.94,0,0,0-.82,1l-.55.54-.4-.68-.82-1a5,5,0,0,0-1.37-.68,5.4,5.4,0,0,0-2.05-.41Zm42.77,0a4.54,4.54,0,0,0-2.73.82,7.63,7.63,0,0,0-1.91,2.19,9.77,9.77,0,0,0-1.23,2.73,10.05,10.05,0,0,0-.41,2.73,16.6,16.6,0,0,0,.41,3.15,9.76,9.76,0,0,0,.95,3,6.78,6.78,0,0,0,2.05,2.33,5.89,5.89,0,0,0,3.28.82,10.27,10.27,0,0,0,1.78-.14,14.53,14.53,0,0,0,1.64-.41,9.83,9.83,0,0,0,1.09-.41l.69-.27-.69-1.92-.68.41a5.77,5.77,0,0,1-1,.41c-.39.14-.91.17-1.36.28a7,7,0,0,1-1.37.13,3.26,3.26,0,0,1-2.05-.54,5.68,5.68,0,0,1-1.37-1.78,8,8,0,0,1-.82-2.05,10.23,10.23,0,0,1-.27-2.19H477.2v-.82a13.18,13.18,0,0,0-.27-2.87,9.46,9.46,0,0,0-1.09-2.73,6,6,0,0,0-1.78-2.05,5.37,5.37,0,0,0-3-.82Zm17.08,0a3.44,3.44,0,0,0-1.64.41,4.39,4.39,0,0,0-1.09.82l-.82,1-.41.54v-2.32H482v17h2.33V204.16l.41-.68.68-1.09a5.28,5.28,0,0,1,1.09-.82,2.32,2.32,0,0,1,1.23-.41l.82.13.55.28.68-2-.68-.41-1-.14Zm10.12,0a4.87,4.87,0,0,0-2.19.55,6.85,6.85,0,0,0-1.91,1.36,6,6,0,0,0-1.23,1.78,5.42,5.42,0,0,0-.41,2.19,7.36,7.36,0,0,0,.27,2.46,6.3,6.3,0,0,0,1,1.77,4.48,4.48,0,0,0,1.23,1,6.45,6.45,0,0,0,1.09.68l-.68.14-.82.55-.55.68-.27.82A2,2,0,0,0,494,214l.68.69.69.41.68.13a9.78,9.78,0,0,0-2.6,1.1,5.38,5.38,0,0,0-1.23,1.36,2.69,2.69,0,0,0-.54,1.64,3.64,3.64,0,0,0,.41,1.91,5.52,5.52,0,0,0,1.5,1.51,6.81,6.81,0,0,0,2,.95,8.79,8.79,0,0,0,2.6.41,8.45,8.45,0,0,0,2.87-.41,8.13,8.13,0,0,0,2.32-1.23,5.65,5.65,0,0,0,1.37-1.64,3.63,3.63,0,0,0,0-3.82,5.27,5.27,0,0,0-1.64-1.5,7.39,7.39,0,0,0-2.19-1,11.66,11.66,0,0,0-2.73-.27,3.09,3.09,0,0,1-1.78-.55,1.25,1.25,0,0,1-.68-1.09l.27-.69.68-.41.82-.41.69-.13a5.6,5.6,0,0,0,2.32-.41,6,6,0,0,0,1.91-1.37,6.33,6.33,0,0,0,1.23-2.05,6.13,6.13,0,0,0,.41-2.32,5.55,5.55,0,0,0-.13-1.37,7.56,7.56,0,0,0-.41-1.09l-.41-.82-.41-.55h2.73v-1.64h-4.78a7.69,7.69,0,0,0-1-.27,6.59,6.59,0,0,0-1.5-.14Zm-144.86.41V211a7.54,7.54,0,0,0,.28,2.18,5,5,0,0,0,.95,1.78,4.85,4.85,0,0,0,1.64,1.23,5.06,5.06,0,0,0,2.32.55,3.72,3.72,0,0,0,1.64-.41,7.2,7.2,0,0,0,1.37-.82,6.21,6.21,0,0,0,1-1l.41-.68v2.46h2.18v-17h-2.32v12.16l-.27.82-1,1.1a5.91,5.91,0,0,1-1.23.95,2.78,2.78,0,0,1-1.5.41,3,3,0,0,1-1.51-.41,2.61,2.61,0,0,1-1-.82,4.46,4.46,0,0,1-.55-1.36,6.29,6.29,0,0,1-.13-1.51V199.38Zm-67.64,1.37a2.67,2.67,0,0,1,1.77.68,5,5,0,0,1,1.23,1.5,8.12,8.12,0,0,1,.69,1.92,8.27,8.27,0,0,1,.13,1.77h-7.79a8.24,8.24,0,0,1,.28-1.91,7.36,7.36,0,0,1,.68-1.78,4.63,4.63,0,0,1,1.23-1.5,3,3,0,0,1,1.78-.68Zm125.17,0a2.68,2.68,0,0,1,1.78.68,5.1,5.1,0,0,1,1.23,1.5,7.68,7.68,0,0,1,.68,1.92,8.88,8.88,0,0,1,.28,1.77H407.1a8.76,8.76,0,0,1,.27-1.91,7.8,7.8,0,0,1,.68-1.78,4.9,4.9,0,0,1,1.23-1.5,2.59,2.59,0,0,1,1.64-.68Zm60.27,0a2.7,2.7,0,0,1,1.78.68,4.83,4.83,0,0,1,1.09,1.5,8.1,8.1,0,0,1,.68,1.92,8.88,8.88,0,0,1,.28,1.77h-7.79a8.76,8.76,0,0,1,.27-1.91,7.8,7.8,0,0,1,.68-1.78,4.9,4.9,0,0,1,1.23-1.5,3,3,0,0,1,1.78-.68Zm27.06,0a3.17,3.17,0,0,1,2.59,1.09,4.56,4.56,0,0,1,1,3,6.78,6.78,0,0,1-.27,1.5,5.27,5.27,0,0,1-.55,1.5,3.94,3.94,0,0,1-1.09,1.1,3.05,3.05,0,0,1-1.64.41,3.51,3.51,0,0,1-1.64-.41,2.68,2.68,0,0,1-1-1,3.83,3.83,0,0,1-.68-1.37,7.84,7.84,0,0,1-.14-1.77,5.1,5.1,0,0,1,.27-1.51,4.47,4.47,0,0,1,.69-1.36,3.24,3.24,0,0,1,1.09-1,2.81,2.81,0,0,1,1.37-.27Zm-229.17.13a2.82,2.82,0,0,1,1.5.41,5.41,5.41,0,0,1,1.09,1.1,5.55,5.55,0,0,1,.82,1.09l.41.82v7.24l-.41.82-.82,1.1a5.37,5.37,0,0,1-1.23.95,2.48,2.48,0,0,1-1.36.41,3.06,3.06,0,0,1-2.05-.68,5,5,0,0,1-1.23-1.78,9.24,9.24,0,0,1-.82-2.46,14,14,0,0,1-.14-2.46,10.73,10.73,0,0,1,.27-2.59,7.2,7.2,0,0,1,.82-2,4.17,4.17,0,0,1,1.37-1.37,3.13,3.13,0,0,1,1.78-.55Zm185.57,0a3.25,3.25,0,0,1,1.92.69,4.69,4.69,0,0,1,1.36,1.5,7.07,7.07,0,0,1,.69,2.05,11,11,0,0,1,.27,2.32,9.75,9.75,0,0,1-.27,2.46,9.32,9.32,0,0,1-1.1,2.46,5.83,5.83,0,0,1-1.5,1.78,3.21,3.21,0,0,1-2,.68l-.82-.13h-1l-.82-.14-.54-.14V204.16l.41-.82.82-1.09a8.42,8.42,0,0,1,1.23-1,2.74,2.74,0,0,1,1.36-.41ZM313.9,205v2.19H321V205Zm-82.13.55h3.69a5,5,0,0,1,3.41,1.09,4,4,0,0,1,1.37,3.15,4.15,4.15,0,0,1-.41,1.77,4.47,4.47,0,0,1-1.09,1.51,4.61,4.61,0,0,1-1.51.95,4.54,4.54,0,0,1-1.77.28h-3.69v-8.75Zm23.64,2.05v4.1l-.55,1.09a4.79,4.79,0,0,1-1,1,6.3,6.3,0,0,1-1.37.82,3.87,3.87,0,0,1-1.5.41,2.83,2.83,0,0,1-2-.82,3.09,3.09,0,0,1-.82-2.32,1.9,1.9,0,0,1,.41-1.23,4.55,4.55,0,0,1,1.09-1.1,8.26,8.26,0,0,1,1.5-.82,10.7,10.7,0,0,1,1.51-.54l2.73-.55Zm242.84,8.47a6.27,6.27,0,0,1,3.41.82,2.6,2.6,0,0,1,1.37,2.19,2.57,2.57,0,0,1-.41,1.23,3.65,3.65,0,0,1-1,1.09,5.57,5.57,0,0,1-1.5.68,6.12,6.12,0,0,1-1.91.28,5.36,5.36,0,0,1-1.78-.28,4.29,4.29,0,0,1-1.37-.68,3.6,3.6,0,0,1-.82-1.09,2.85,2.85,0,0,1-.41-1.23,2.29,2.29,0,0,1,.41-1.23,3.51,3.51,0,0,1,1-1,4.56,4.56,0,0,1,1.37-.54,5.7,5.7,0,0,1,1.64-.28Z"/><path id="path242" class="cls-1" d="M232.31,46.6a2.92,2.92,0,0,0-2.32.82,3.52,3.52,0,0,0-.82,2.46v82a3.23,3.23,0,0,0,.82,2.33,3.06,3.06,0,0,0,2.32,1h22.28a38.65,38.65,0,0,0,16.53-3.41A36.35,36.35,0,0,0,283.83,122a44.5,44.5,0,0,0,8.07-14.62A57.65,57.65,0,0,0,294.63,89a48.74,48.74,0,0,0-2.87-17.35,39.8,39.8,0,0,0-8.2-13.39,35.52,35.52,0,0,0-12.71-8.61,42.5,42.5,0,0,0-16.4-3Zm80.63,0a2.92,2.92,0,0,0-2.32.82,3.61,3.61,0,0,0-1,2.46v82a3.33,3.33,0,0,0,1,2.33,3.07,3.07,0,0,0,2.32,1h9.16a3.26,3.26,0,0,0,3.28-3.28V95.39H356v36.48a3.34,3.34,0,0,0,.95,2.33,2.77,2.77,0,0,0,2.19,1h9.16a3.45,3.45,0,0,0,2.46-1,3.16,3.16,0,0,0,.95-2.33v-82a3.43,3.43,0,0,0-.95-2.46,3.28,3.28,0,0,0-2.46-.82h-9.16a2.63,2.63,0,0,0-2.19.82,3.65,3.65,0,0,0-.95,2.46V82.4H325.38V49.88a3.39,3.39,0,0,0-1-2.46,3,3,0,0,0-2.32-.82ZM244.75,58.9h10a21,21,0,0,1,10,2.32,23.32,23.32,0,0,1,7.52,6.29A28.24,28.24,0,0,1,277,77.07,42.81,42.81,0,0,1,278.5,89a49.59,49.59,0,0,1-1.64,13.53,34.41,34.41,0,0,1-5.05,10.8,23.87,23.87,0,0,1-7.79,7,20.52,20.52,0,0,1-10.11,2.59h-9.16V58.9Z"/></g></g></svg>