<svg xmlns="http://www.w3.org/2000/svg" width="496.2" height="496.2" viewBox="0 0 496.2 496.2">
  <g id="Gruppe_249" data-name="Gruppe 249" transform="translate(-235 -88)">
    <path id="Pfad_615" data-name="Pfad 615" d="M496.2,248.1C496.2,111.1,385.1,0,248.1,0S0,111.1,0,248.1,111.1,496.2,248.1,496.2,496.2,385.1,496.2,248.1Z" transform="translate(235 88)" fill="#0d1321"/>
    <path id="Pfad_616" data-name="Pfad 616" d="M248.1,496.2a247.5,247.5,0,0,0,178.7-76c-2.8-15.1-5.6-28.9-8.3-37.4-8.5-27.3-81.2-49.3-170.8-49.3s-161.5,22-170,49.3c-2.6,8.5-5.5,22.2-8.3,37.4A247.5,247.5,0,0,0,248.1,496.2Z" transform="translate(235 88)" fill="#700101"/>
    <path id="Pfad_617" data-name="Pfad 617" d="M353.1,311.1c-24.6-20.7-70.9,5-104.9,5s-80.3-25.7-104.9-5c-16,13.4-14,52.7,23.5,63.5,58.1,16.8,79.5,25.2,81.4,25.9v.1h.2v-.1c1.9-.7,23.2-9.2,81.4-25.9C367.1,363.8,369.1,324.5,353.1,311.1Z" transform="translate(235 88)" fill="#b70404"/>
    <path id="Pfad_618" data-name="Pfad 618" d="M287,282.1H209.2c12.1,36.6,1,53.3,1,53.3s11.9,13.2,37.9,13.2S286,335.4,286,335.4,274.9,318.7,287,282.1Z" transform="translate(235 88)" fill="#e2a379"/>
    <path id="Pfad_619" data-name="Pfad 619" d="M336.4,175.2c0-92.4-39.5-113.6-88.3-113.6-48.7,0-88.3,21.2-88.3,113.6,0,31.3,6.2,55.8,15.5,74.7C195.7,291.5,231,306,248.1,306s52.4-14.5,72.8-56.1C330.2,231,336.4,206.5,336.4,175.2Z" transform="translate(235 88)" fill="#f4b382"/>
    <path id="Pfad_620" data-name="Pfad 620" d="M336.4,175.2s-15.9,56.2-44,56.2c-24.8,0-34-9.3-44.3-9.3s-19.5,9.3-44.3,9.3c-24.7,0-44-56.2-44-56.2,0,31.3,6.2,55.8,15.5,74.7C195.7,291.5,231,306,248.1,306s52.4-14.5,72.8-56.1C330.2,231,336.4,206.5,336.4,175.2Z" transform="translate(235 88)" fill="#bc8a68"/>
    <g id="Gruppe_236" data-name="Gruppe 236" transform="translate(235 88)">
      <path id="Pfad_621" data-name="Pfad 621" d="M170.4,238.7c-8.4,1.4-14.4.1-19.1-27.7s1.7-31.5,10.1-32.9Z" fill="#f4b382"/>
      <path id="Pfad_622" data-name="Pfad 622" d="M325.9,238.7c8.4,1.4,14.3.1,19.1-27.7s-1.7-31.5-10.1-32.9Z" fill="#f4b382"/>
    </g>
    <g id="Gruppe_237" data-name="Gruppe 237" transform="translate(235 88)">
      <path id="Pfad_623" data-name="Pfad 623" d="M336.4,175.2c0-92.4-30.3-116.1-88.3-116.1s-88.3,23.7-88.3,116.1c0,0,16.3-34.1,28.3-53.1s38-18.3,38-18.3h49s27,.3,34.5,18.3Z" fill="#47200d"/>
      <path id="Pfad_624" data-name="Pfad 624" d="M165.5,140.8c-4.2,10.9-5.6,24.4-5.6,37.5,0,0,8.8-1.9,8.8,2.6l2.8,27.6,3.9-1.9c-.2-23,4.9-83.5,4.9-83.5Z" fill="#47200d"/>
      <path id="Pfad_625" data-name="Pfad 625" d="M330.8,140.8c4.2,10.9,5.6,24.4,5.6,37.5,0,0-8.8-1.9-8.8,2.6l-2.8,27.6-3.9-1.9c.2-23-4.9-81.7-4.9-81.7Z" fill="#47200d"/>
    </g>
    <path id="Pfad_626" data-name="Pfad 626" d="M336.8,193.3s-30,31-52.7,31-23.5-10.2-36-10.2-13.8,10.2-35.2,10.2-53.5-31-53.5-31v-14H336.9v14Z" transform="translate(235 88)" fill="#2d2d2d"/>
    <g id="Gruppe_238" data-name="Gruppe 238" transform="translate(235 88)">
      <ellipse id="Ellipse_33" data-name="Ellipse 33" cx="17.7" cy="12.2" rx="17.7" ry="12.2" transform="translate(260.3 188.2)" fill="#f4b382"/>
      <ellipse id="Ellipse_34" data-name="Ellipse 34" cx="17.7" cy="12.2" rx="17.7" ry="12.2" transform="translate(200.5 188.2)" fill="#f4b382"/>
    </g>
    <g id="Gruppe_239" data-name="Gruppe 239" transform="translate(235 88)">
      <path id="Pfad_627" data-name="Pfad 627" d="M341.4,166.8c0-90.5-41.8-111.3-93.3-111.3s-93.3,20.7-93.3,111.3Z" fill="#3e3e3e"/>
      <ellipse id="Ellipse_35" data-name="Ellipse 35" cx="12.8" cy="8.7" rx="12.8" ry="8.7" transform="translate(235.3 47.7)" fill="#3e3e3e"/>
    </g>
    <g id="Gruppe_240" data-name="Gruppe 240" transform="translate(235 88)">
      <path id="Pfad_628" data-name="Pfad 628" d="M209.5,156a1.473,1.473,0,0,1-1.5-1.5c0-48,7.2-76.6,22-87.6a1.57,1.57,0,0,1,1.9,2.5c-14,10.4-20.7,38.2-20.7,85.1A1.728,1.728,0,0,1,209.5,156Z" fill="#494949"/>
      <path id="Pfad_629" data-name="Pfad 629" d="M286.7,156a1.473,1.473,0,0,1-1.5-1.5c0-46.9-6.8-74.8-20.7-85.1a1.57,1.57,0,0,1,1.9-2.5c14.8,11,22,39.7,22,87.6A1.9,1.9,0,0,1,286.7,156Z" fill="#494949"/>
      <path id="Pfad_630" data-name="Pfad 630" d="M248.1,130.3a1.473,1.473,0,0,1-1.5-1.5V64.1a1.473,1.473,0,0,1,1.5-1.5,1.538,1.538,0,0,1,1.5,1.5v64.7A1.473,1.473,0,0,1,248.1,130.3Z" fill="#494949"/>
      <path id="Pfad_631" data-name="Pfad 631" d="M321.4,156.4a1.473,1.473,0,0,1-1.5-1.5c0-47-13.1-75-40-85.4a1.551,1.551,0,0,1,1.1-2.9c28.2,10.9,41.9,39.8,41.9,88.2A1.561,1.561,0,0,1,321.4,156.4Z" fill="#494949"/>
      <path id="Pfad_632" data-name="Pfad 632" d="M174.8,156.4a1.473,1.473,0,0,1-1.5-1.5c0-48.5,13.7-77.3,41.9-88.2a1.551,1.551,0,0,1,1.1,2.9c-26.9,10.4-40,38.3-40,85.4A1.392,1.392,0,0,1,174.8,156.4Z" fill="#494949"/>
    </g>
    <path id="Pfad_633" data-name="Pfad 633" d="M354.3,173.9a11.608,11.608,0,0,1-11.6,11.6S304.5,170,248,170s-94.7,15.5-94.7,15.5a11.608,11.608,0,0,1-11.6-11.6v-23a11.608,11.608,0,0,1,11.6-11.6s48.2-15.5,94.7-15.5,94.7,15.5,94.7,15.5a11.608,11.608,0,0,1,11.6,11.6Z" transform="translate(235 88)" fill="#3e3e3e"/>
    <g id="Gruppe_241" data-name="Gruppe 241" transform="translate(235 88)">
      <path id="Pfad_634" data-name="Pfad 634" d="M157.6,177.1a1.538,1.538,0,0,1-1.5-1.5V147.1a1.5,1.5,0,0,1,3,0v28.5A1.538,1.538,0,0,1,157.6,177.1Z" fill="#3a3a3a"/>
      <path id="Pfad_635" data-name="Pfad 635" d="M173.1,173.8a1.538,1.538,0,0,1-1.5-1.5V143.8a1.5,1.5,0,0,1,3,0v28.5A1.538,1.538,0,0,1,173.1,173.8Z" fill="#3a3a3a"/>
      <path id="Pfad_636" data-name="Pfad 636" d="M192.2,169.8a1.538,1.538,0,0,1-1.5-1.5V139.8a1.5,1.5,0,0,1,3,0v28.5A1.538,1.538,0,0,1,192.2,169.8Z" fill="#3a3a3a"/>
      <path id="Pfad_637" data-name="Pfad 637" d="M211.2,166.4a1.538,1.538,0,0,1-1.5-1.5V136.4a1.5,1.5,0,1,1,3,0v28.5A1.473,1.473,0,0,1,211.2,166.4Z" fill="#3a3a3a"/>
      <path id="Pfad_638" data-name="Pfad 638" d="M230.3,164.4a1.538,1.538,0,0,1-1.5-1.5V134.4a1.5,1.5,0,1,1,3,0v28.5A1.473,1.473,0,0,1,230.3,164.4Z" fill="#3a3a3a"/>
      <path id="Pfad_639" data-name="Pfad 639" d="M248.1,164.3a1.538,1.538,0,0,1-1.5-1.5V134.3a1.5,1.5,0,0,1,3,0v28.5A1.538,1.538,0,0,1,248.1,164.3Z" fill="#3a3a3a"/>
      <path id="Pfad_640" data-name="Pfad 640" d="M338.7,177.1a1.538,1.538,0,0,0,1.5-1.5V147.1a1.5,1.5,0,1,0-3,0v28.5A1.538,1.538,0,0,0,338.7,177.1Z" fill="#3a3a3a"/>
      <path id="Pfad_641" data-name="Pfad 641" d="M323.2,173.8a1.538,1.538,0,0,0,1.5-1.5V143.8a1.5,1.5,0,0,0-3,0v28.5A1.538,1.538,0,0,0,323.2,173.8Z" fill="#3a3a3a"/>
      <path id="Pfad_642" data-name="Pfad 642" d="M304.1,169.8a1.538,1.538,0,0,0,1.5-1.5V139.8a1.5,1.5,0,0,0-3,0v28.5A1.538,1.538,0,0,0,304.1,169.8Z" fill="#3a3a3a"/>
      <path id="Pfad_643" data-name="Pfad 643" d="M285.1,166.4a1.538,1.538,0,0,0,1.5-1.5V136.4a1.5,1.5,0,1,0-3,0v28.5A1.417,1.417,0,0,0,285.1,166.4Z" fill="#3a3a3a"/>
      <path id="Pfad_644" data-name="Pfad 644" d="M266,164.4a1.538,1.538,0,0,0,1.5-1.5V134.4a1.5,1.5,0,1,0-3,0v28.5A1.473,1.473,0,0,0,266,164.4Z" fill="#3a3a3a"/>
    </g>
    <g id="Gruppe_242" data-name="Gruppe 242" transform="translate(235 88)">
      <path id="Pfad_645" data-name="Pfad 645" d="M311.5,337.4Z" fill="#fff"/>
      <path id="Pfad_646" data-name="Pfad 646" d="M298.5,335.9Z" fill="#fff"/>
    </g>
  </g>
</svg>
