<?xml version="1.0" encoding="utf-8"?>
<!-- Generator: Adobe Illustrator 24.0.2, SVG Export Plug-In . SVG Version: 6.00 Build 0)  -->
<svg version="1.1" id="Bundesrepublik_Deutschland" xmlns="http://www.w3.org/2000/svg" xmlns:xlink="http://www.w3.org/1999/xlink"
	 x="0px" y="0px" viewBox="0 0 591.5 800.5" style="enable-background:new 0 0 591.5 800.5;" xml:space="preserve">
<style type="text/css">
	.st0{fill:#EAEAEA;stroke:#5B5B5B;stroke-width:0.5;}
</style>
<g>
	<path id="Thüringen" class="st0" d="M312,351.7l1.8-0.4l3.4,0.3l1.9,0.2l2.9,0.7l0.4,0.3l2,1.8l1.3-0.5l-1.7,2.2l-0.5,1.6l1.2,2.9
		l2.1,3.3l1.7,2.6l1,1.2l-0.1,2.4l-0.1,2.7l0.8,0.5l0.9,1l0.8,0.1l0.8-0.1l1.2-0.4l0.6-0.3l6.4,2l0.5,0.1l6.4,0.1h1.4l0.7-0.1
		l2.8,0.1l4.2,1.6l0.2,0.3v0.3l-0.3,1.9l0.5,1v0.4l1.8,0.6l-0.5,0.5l-0.1,0.1v0.1l0.5,0.6l0.7,0.6l0.3,0.1l0.4,0.2l1.3,1.2l0.5,0.5
		v0.3l-0.1,0.1l-0.4,0.7l-0.7,1.1l-1.5,2.1l-0.8,1.2l-0.5,0.6l-0.3,0.2l-0.5,0.2h-0.1l-0.8-0.9h-0.2l-0.2,0.2l-0.3,0.5l-0.6,1
		l-0.1,0.8l1.6,1.2h1.6l0.9-0.4h0.2l0.9,0.4l1.6,1.6l1.1,2.5v0.3l-0.5,1.2l-0.3,0.5l-1.3,0.2l0.8,3.4l0.5,0.4l0.9,0.4l0.1,0.3
		l3.9-0.1l0.8-0.7l0.3-0.2l0.3-0.8l0.2-0.2l6.3,1l1.6,1l0.3,1.2l0.2,1.3l0.1,0.6l4.8,1.5l1.8,0.5l2.8-0.6l2-0.5l0.8,0.3l3.5,2.2
		l2.2,1.6l0.3,0.2l2.3,3l0.2,0.5v0.2v0.9l1-0.4l0.3-0.1l3.2-0.5h0.2l3.6,1.2l1.1,0.5l-0.1-0.7l0.2-0.3l0.3-0.3l0.7-0.5l0.1,0.1
		l1.4,1.8l0.4,0.8l0.3,1.1l0,0l0.6-0.4l0.2-0.1l0.7-0.9l3.2-6.9l0.1-0.3v-1l-0.5-0.6l-0.4-0.2l-1.3-1l-0.2-1.7l1.6-2.5l3-1.5h0.1
		l7.7,2.4l2.9,1.1l0.4,0.2l0.2,0.3l0.2,0.9l-0.1,0.7l-0.1,1.2l0.3,1.8l2.5,1.9l2.4,0.9l2.4,0.6l0.3,1.6l0.6,2.3l0.1,0.3l0.7,1.1
		l0.3,0.3l0.5,0.4l-0.8,1.2l-2.8,0.9l-1.4,0.3l-0.6-0.1l-1.9,0.3l-3.2,0.8l-0.3,0.1l-1.5,1.2v1.2l-0.9,2.6l-0.2,0.1l-1.3,0.4v-0.1
		l-0.6-0.7l-0.6-0.2h-1.6l-0.3,0.1l-1.6,1.3v0.1v1.4l-4.4,1.6l-1.3-0.1l-0.6-0.7l-0.5,1l-0.8,5.4l-0.1,1v0.5v0.3l2.5,4.4l0.8,0.8
		l3,0.8l-0.2,1.3l-1.1,1.4l-0.1,0.1l-2,2.1l-1.9,0.4h-0.1l-3.6,1.6l-3.2,1.4l-0.5,0.2l-0.2,0.1l-0.3,0.8l2,0.6l0.4-0.3h0.7h0.1
		l0.2,0.4l-0.1,0.5l-0.1,0.1l-0.2,0.1l-0.8,0.1l-0.4-0.1l-1.2,0.8l-2.5-0.3l-4,0.2l0.5-2.8l-0.4-3.1l-0.8-0.8l-0.4,0.1l-0.1,0.1
		l-1.3,1.2l-0.1,0.8l-2.2,2.3l-0.2,0.1l-0.7,0.3l-0.4,0.2l-3.1,4.4l-0.1,0.3v0.1l0.7,1.8l0.3,0.5h0.9l1.1-0.1l0.8,0.8l2,1.9l0.2,0.5
		v0.3l-0.3,0.5l-1.8,1.7l-1.6,0.9l-0.6,0.5l-0.4,0.7l0.1,0.2l0.5,0.5l1.6,1.1l-2.7,1.2l-4.1,1.5l-12.5,1.7h-0.2l-0.3-0.2l-0.6-0.5
		l-0.4-0.5l-0.3-0.2l-0.4-0.2l-1.3,0.3l-0.2,0.1l-0.2,0.3l-0.2,0.8v0.2l-0.4,0.4l-1.9,0.6l-0.6-0.3l-1.7-1.9l-0.7-1.2l-0.5-2.2
		l-1.8,0.2l-2-1.2l-0.1-0.2l-0.1-0.6V471l0.1-1.6l0.4-0.7h0.4l0.1-0.1l0.3-0.7v-0.1l-0.6-0.8l-0.3-0.5l-0.3-0.2l-3.5-0.7l-1.6,0.2
		l-0.2,0.1l-1.1,1.2l-0.2,0.8l-2.2,1.8l-1.5,0.7l-0.1-0.2l-0.5-0.1l-0.4,0.1l-0.2,0.3l-0.1,0.6v0.2l0.1,2.1l0.7,0.5l0.4,0.2l0.3,0.8
		l1.2,7.6v0.1l-2,6.9l-3.1,0.5l-0.9,1.9l-0.1,0.1h-0.8l-2.2-2.1l-0.7-1v-0.1l-0.1-0.5l0.1-0.6l0.4-0.5l0.3-0.3l0.6-0.4l0.4-0.1v-0.6
		l-1.4-2.4l-1.6-1.4H339l-0.7,0.2l-0.1,0.1l-0.4,1.2l-1.2,0.5l-1.4,0.5l-0.4-0.1l-3.6-0.6l-1.3-1.5l-1.1-2l-0.5-0.6h-0.2h-0.2h-6.6
		l-7.5,3.1l-0.2,0.9l0.2,3.1l0.1,0.4l0.4,0.3l5.5,3.9l0.2,0.1l0.6,0.1l1.3,0.4l0.6,0.3l0.4,0.5l0.1,1.4l-0.2,0.6l-0.1,0.2l-0.7,0.5
		l-0.7,0.2H321l-2.8-0.6l-2.4-0.6l-0.6-0.1l-0.3,0.2l-0.1,0.2v1.7l0.1,0.1l0.1,1.8l-0.4,0.8l-0.2,0.1h-0.3l-5.2-1.9l-1.8-0.5
		l-0.2-0.4l-0.4-1.2l-0.7-2.9l0.3-3.6l0.3-2.8l-3-0.7l-4-1.5l-2.3-2.5l-0.3-1.2l-0.3-1l-0.9,0.4l-0.9,0.4l-1.9-0.2h-0.2l-0.5-0.8
		v-0.6l-0.4-2.4l-2.4-5.2l-0.5-0.5l-0.5-0.4l-4.7-2l-1.5-2l-1.8-2.4l-0.5-0.1l-6.6,0.7l-1.8,2l-1,1l-0.4,0.2l-0.3,0.1l-0.2-9.7
		l0.2-0.4l0.4-0.6l0.2-0.2l1.8-1.5l-0.7-2.1l-0.8-1.4l-0.3-0.2l-1.3-0.1l-2.2-0.1l-0.5,0.1l-2.4,1l-0.2,0.3v0.6l1.2,1.5l-0.5,1.2
		l-0.9,0.2l-1.1-0.2l-3.3-0.6l-0.1-0.9l0.1-2.7l0.3-0.4l0.7-1l1.4-1.7l1.3-2.7l0.5-1.2v-0.3l-0.2-1.5l-0.9-1.1l1.3-0.4l0.3-0.1
		l0.1-0.1v-0.5l-0.1-1l-0.4-0.7v-0.6l0.4-1.8l0.1-0.3l1.1-0.9l0.5-0.3l1.6,0.2h1.4l0.7-1.2l1.6-4.1V429l-1-5.9l-1.5-4.8l0.6-1.3
		l0.1-0.3l0.1-0.1l0.3-0.1l0.9-0.1l1.4,0.1l2.3,0.3l1.3,0.7l0.3,0.4l0.3,0.2l0.5,0.1l0.4-0.1l1.7-0.2l0.2-0.2h0.2l0.5-0.2l0.3-0.2
		l0.5-0.7l-0.1-0.2l0.6-1.2l0.2-0.5l-0.5-0.9l-0.5-0.5l-0.2-0.2l-0.9-0.6l-1.8-0.7l-0.2-4.3l-0.6-1.2l-1.3-2.9l-0.1-0.3l0.5-0.6
		l2.6-0.6l1.1,1.1l0.4,1.3l0.3,0.4l0,0l0.4,0.7h0.6l0.2-0.2v-0.8v-1.8h-0.2l-0.4-0.5v-0.3l0.4-1.3l0.3-0.3l0.4-0.2l0.6-0.4l0.3-0.8
		l-0.3-0.6l-1.2-0.3l-1.3-1.3l-0.6-0.5l-0.8-0.5l-1.7-0.6l-4.6-2.3l-0.9-2.9L269,389l-3.4-1.2l-1.2-1.5L263,383l-0.6-2.2l-0.1-1
		l0.2-0.9l0.2,0.1l0.2-0.1l0.5-0.2l3.1-2.1l6.7-3.9l5.3-1.1l8-5.4l2.6-2.1l0.1-0.1l1.5-2.3l0.1-0.3l0.2-0.8v-0.1l-0.4-0.2l0.9-1.9
		l0.7-1.2l2.4-0.6h0.2l0.8,0.3l1.5,0.7l0.4,0.2l0.7,0.5l0.4,0.3l1.2,1.8l0.6,0.3l2.4-0.3l4.6-1.2l0.9-1.8l2.1-5.5h0.3L312,351.7
		L312,351.7z"/>
	<path id="Schleswig-Holstein" class="st0" d="M322,114l0.9,3l-0.9,2.1l-2.6-0.2l-5.2,3.7l-1.4,2.3v1.8l1,2.5l0.2,0.4l0.3,0.9
		l0.1,0.5l-0.2,1.5l-0.4,3.1l3.8,3.7l1.5,0.9l0.2,0.1l1.3-0.1l0.4-0.1v-0.2l0.2-0.1h0.2l1.1,0.2l0.9,0.4l1.3,1.4l0.7,3.8l-1.4,1.9
		l-0.4,2.4l-6.6,8.7l-2.1,2.5l-1,1.1l-0.3,0.3l-3.8,2.9l-1.4-0.3l-0.6-0.3h-0.5l-1,0.6l-0.6,1.3l-1.8,8.1h0.1l-0.1,0.1l-0.4,0.3
		l-0.3,0.1h-0.5l-4.1-1.2l-0.6-0.2l-0.9-0.5l-0.8-0.6l-2.4-1.2l-5.9-2.7l-1.6-0.9l-0.5-1l-3.7-4l-0.2-0.8l0.1-0.6l-0.5,0.1l-0.4-0.1
		l-3.5-2.4l-0.2-0.2l-0.9-2.4l-0.1-2.1l0.3-1.2l0.6-0.6l2.1-1.7l1.3-2.7v-0.1l0.2-0.7l-1.6-2.2l-0.8-0.9l-0.1-4.7l0.6-1.4l0.1-0.9
		l-1.3-0.7l-0.2-0.1h-0.3l-4.3,2.1l-1.4,0.9l0.5,0.6l-0.8,1.9l-4.9,3.8h-0.8l-0.5-0.1l-1-0.2l-0.2-0.2h-1.2l-1.1,0.1l-0.1,0.8v0.3
		l-0.3,0.6l-0.4,0.6l-3.5,4.4l-0.8,0.4l-0.5-0.2l-1.1-1l-1.7-2.1l-0.1-0.7l0.1-0.5h-0.4l-0.2,0.3l-0.7,2.1l-0.3,0.9l-0.4,1.6
		l-0.4,2.3l-1.7-0.2l-1.6-0.6l-5.4-3.5l-2.3-1.8l-0.4-0.6l-0.4-0.9l-0.4-1.2l-0.1-1.6l-0.1-0.5l-0.4-1l-0.8-1.9l-0.3-0.6l-1-1.1
		l-2.3-1.7l-0.9-0.8l-0.6-0.8l-0.7-1.3l-0.8-1.9l-1.8-3.9l-0.5-1L226,125l-1.8-1.3l-3.5-1.5l-1.9-0.3h-2.1l-3.6-0.1l-3.2-0.2h-1
		l-0.8,0.1l-0.3-2.6h-0.2l-1.5,0.7l-0.3,0.1h-0.5l-0.4-0.1l-1-0.9l-1.9-1.6l-0.9-1.3l-0.6-1.7l-0.3-1.1l-1.3-3.2l-2.1-3.3l-0.4,0.1
		l-0.3-0.1l-0.1-0.2l1.5-1.2l1.2-0.7l1-0.2l2.5,0.6l0.5,0.3l0.4,0.5l0.7,0.1l0.8-0.2l0.5-0.2l0.2-0.2l0.3-0.3l0.2-0.4l0.1-0.6
		l0.2-0.7V103v-0.3l-0.1-0.4l-3.2-6.7l-0.2-0.3l-0.7-0.2l-0.3-0.1l-1,0.2l-0.4,0.3l-1.3,0.8l-0.5-0.3l-1.1-0.7l-0.1-0.2l-0.5-1
		l-1-2.8l-0.1-0.5v-0.2l0.2-0.6l1.1-2.2l0.6-1.4l0.1-0.4l0.3-3.5l0.1-0.7V82l-0.2-0.1l0.2-0.1v-0.3l-0.1-0.6l-0.1-0.4l-0.3-0.5
		l-0.4-0.5l-0.2-0.1l-0.3-0.1h-3.8l-0.8,0.1l-2.4,0.2l-1,1l-0.6,0.8l0.1,0.1l0.5,0.1h0.1l0.1-0.1l0,0l-0.1,0.1l-0.1,0.1l-0.2,0.1
		H188l-0.4-0.1l-4.4-2.3l-0.6-0.4l-0.5-1l-0.1-0.5l0.1-0.7l0.3-1.4l0.2-0.8l0.3-0.9l0.2-0.4l0.1-0.1l0.9-0.5l0.1,0.9l1.2,0.9
		l0.6-0.1l0.2-0.1l2.6-1.6l0.1-0.1l0.1-0.2v-0.9v-0.2l-0.1-0.6l0.5-2.4l6.6-1.2l1.3,0.1l1.4,0.7l1.1-0.3l1.3-0.6l1.1-0.6l5.5-4.6
		l0.1-0.1l0.6-1.1l0.2-1.1v-0.3l-0.2-0.8l-1.3-2.8l-6.4-9.1l-3-4.2l-1.2-0.7l-1.8-0.9l-1.2-1.2l-0.3-0.4l-2.2-5.7l-0.8-3.8l-0.9-1.8
		l-0.1-0.2l-2.3-2.7l-2.1-2.4v-0.2l0.4-3.6l1.5-3.4h1.8l0.7,0.1l0.4,0.2l1.2,0.8l5.4-0.3l0.7-0.1l0.8-0.1h0.5l4.1,0.3l2.7,0.2
		l0.6,0.2l0.3,0.1l3.1,1.4l0.9,0.6v0.2l0.4,0.3l0.7,0.4l0.9,0.1l1.6,0.1l1.3-0.4h1.4l0.4,0.1l0.7,0.2l2.9,1.2l2.1,1l0.3,0.6
		l-0.4,0.5l-0.2,0.4v0.4l0.1,0.4l0.7,1.8l4.7,0.5l1-0.1l1.5-1.3l0.2-0.2l0.1-0.6l2.6-0.5l1.1,0.5l1.4-0.5l1.3-0.4l0.9-0.4l5.1-4.6
		l0.5-0.1l2.2,0.8l-0.4,0.7l-1,1.9l4.3,1.8l3.3,1.4l5.9,6.7l1,0.5l0.9,0.3l0.5,0.1h0.1l0.1-0.1l1.6-3.5l-0.1-0.2l0.2-0.5l0.2-0.3
		l0.1-0.1l1.1,0.7l1.7,1.2l1.1,2l3.4,10.6l-0.1,2.2l-0.2,3v5.4v0.4l-1.7,2.9l-0.2,0.3l-0.6,0.7l-1,0.9L264,59l-2.6,1.3l-1.8,0.9
		l-0.4,0.1l-0.2-0.2l-0.2-0.2h-0.6l-0.3,0.1l-0.3,0.1l-0.1,0.1l0.7,1.4l0.3,0.5l0.4,0.4l0.5,0.3l0.3,0.1l2-0.3l0.7-0.1l0.3-0.2
		l1.9-0.8v-0.1l0.8-0.3l5.1-1.2l3.8-0.8l0.4-0.1h0.5l0.5,0.1l1.5,1l0.7,0.5l1.4,1.4l-0.5,0.8l-1,1.6L278,66l0.8,3.8l-1.2,1l-0.6,1.1
		l-0.1,0.6l1.3,1.8l0.3-1.2l2.3-5.1l0.5-0.5l4.6-2.3l1-0.2h0.6l0.6,0.1l1.2,0.3l1.7,0.5l12.4,6.2l0.7,0.4l1.5,1l0.4,0.3l0.5,0.7
		l0.2,0.5l-0.1,0.1l0.1,0.3l2,2.2l0.4,0.3l0.2,0.1l0.6,0.2h0.6l2.7-0.1l0.4-0.1l0.5-0.2l0.7-0.3l0.5-0.3l1.9-1.5l0.7-0.7l1.1-1.4
		l1.8-1.6l2.5-1.9l1.2-0.3l8.2-0.4l-0.3,3.6l-0.5,0.8l-0.1,0.3l0.1,2.3l0.6,6.7l0.7,5.7v0.1l-0.1,0.1l-2.6,2.1l-0.7,0.5l-3.2,2.3
		l-3,2.7l-2.6,3.3l-0.4,0.4l-0.5,0.3l-0.5,0.2l-2.2-0.4l-0.3-0.1l-0.5-0.3l-3.2,3.4l-0.3,0.3l-0.2,0.3l-0.2,0.6l-0.1,0.5v0.3
		l0.1,0.5l0.7,1.7l0.6,1.1l0.4,0.6l0.4,0.5l0.2,0.2l0.5,0.3l0.5,0.1h1.9h0.2l0.9-0.2h0.3l0.5,0.2l0.4,0.3l0.3,0.4l0.2,0.5v0.2
		l-0.1,1l0.1,0.8l0.5,0.2h0.3L322,114z M168.3,10.3l-1.1,2.9l-0.9,2.6l-0.3,1.4l-0.2,2l-0.2,2.4l-0.6,9.2v0.7l0.6,1.3l0.3,0.4h0.1
		l0.1-0.2v-0.4l0.2-7.8l-0.1-0.2l-0.1-0.5v-0.2l0.2-1.5l0.4-1.4l0.3-0.3l2.1-1.4l0.6,0.5l0.1,0.2l1.4,0.8l1.4,1l0.5,0.2h0.2l2.7-1.4
		l1.7-1.5l-0.1-0.1l-0.4-0.1l-0.5-0.1l-2.2,0.1l-0.5-0.1l-0.3-0.1l-1.8-1.6l0,0l-1.6-1.7l-0.4-6l1.1-2.3l0.5-0.6l1-0.8l0.1-0.1
		l1.2-0.3l1.3-0.8l1.6-3.1V1.3l-0.1-0.1l-2.1-0.9l-0.6-0.2h-0.3l-0.2,0.1l-0.5,0.3l-0.1,0.1l-0.4,0.7l-1.9,4.5l-0.4,0.9L168.3,10.3z
		 M176.7,31.7h-0.5l-1.9,0.4l-0.6,0.2l-0.4,0.3l-0.5,0.6l-0.4,0.7l-0.5,1.3l-0.1,0.8l0.1,0.4l0.2,0.3l0.2,0.2l4,2l0.8,0.2l1,0.1
		l3.3,0.1h0.4l0.2-0.1l1.9-3.9l-0.6-2.4l-0.1-0.3l-0.9-0.6l-1.1-0.4l-0.5-0.1l-0.3-0.1l-0.7-0.1l-0.8,0.3l-0.3,0.1L176.7,31.7z
		 M165.7,40.8V41l0.3,0.8l1.2,2l0.6,1l0.7,1.1l0.2,0.1l0.4,0.1h1.1h0.1l1.2-0.6l0.1-0.1l0.3-0.8v-0.1h-0.1l-1.2-0.6l-1-1.6l-1.3-3.5
		l-0.1-0.7l0.2-0.5l0.3-0.5l1-1l-0.1-0.1l-0.2-0.1l-0.4,0.2l-2.5,2.2l-0.3,0.4l-0.4,0.9v0.8L165.7,40.8z M182.9,44.4l3.7-0.9
		l0.5-0.3l0.3-0.4l0.2-0.6l0.2-1l-0.2-0.1l-6.3,2.5l-1.6,0.7l-0.1,0.4l0.1,0.1l1.1,0.9L182.9,44.4z M178.7,49.6h-0.3l-0.2,0.2
		l0.1,0.2l0.3,0.4l0.2,0.1l1.6,1.2l0.3,0.2h0.9l0.5-0.1l0.1-0.2v-0.4l-0.8-1.2l-0.1-0.2l-0.1-0.1l-0.3-0.1l-0.7,0.2L178.7,49.6z
		 M184.2,58.3l0.6,0.5l0.3,0.1h0.7l1-0.2l0.9-0.3l0.2-0.1l0.3-0.4l1.1-2.4l0.6-1.4l0.1-1.5l-0.2-0.1l-0.6-0.1l-0.6,0.1l-2.2,0.7
		l-0.3,0.1l-2.6,1.1l-0.4,0.2l-0.2,0.3l-0.1,0.3v1.1l0.1,0.5l0.1,0.3l0.2,0.3l0.1,0.1L184.2,58.3z M199.4,55.6l-3.1,2l-0.4,0.5v0.3
		V61l0.7,0.5l0.6,0.3L198,62l2.2,0.2h0.9l1.3-1.1l0.6-0.7l0.1-0.1l1.5-2.3v-0.2l-0.2-1.3l-0.3-0.4l-0.9-0.2l-2.2-0.1L199.4,55.6z
		 M331.8,54.9l-0.5-0.2l-0.2-0.2l-0.1-0.2l-0.2,0.1l-0.3,0.3l-0.8,0.9l-0.6,0.8l-0.4,0.6l-0.7,1.6l-0.3,1l-0.1,0.3l-0.3,3.4l0.1,0.6
		l0.1,0.2l1.6,1.1l0.2,0.1l0.4,0.1l0.1-0.1h-0.1l0,0h-0.1l-0.4-0.1l-1-0.6V64l0.2-0.2l2.3-0.8l1.1,0.3l0.4,0.2l0.4,0.2l0.1,0.3
		l0.3,0.8l-0.1,0.9l-0.1,1.3l5.1,0.9l7.8,0.1h0.1v-0.1v-0.6l-1.3-2.7l-1-2.2l-3.1-4.8l-3.2-1.7L331.8,54.9z M188,104.8l-0.2-0.1
		l-0.3-0.4l-0.5-0.6v-0.4l0.1-0.5l0.2-0.4l0.2-0.2l0.2-0.2l0.2-0.1l0.3-0.1h0.2l0.3,0.3v0.1l-0.1,2.5l-0.3,0.2L188,104.8z
		 M140.8,88.8l1.2-0.1l0.1,0.6l-0.9,1.5l-0.7-0.1l-0.3-0.1l-0.9-1.6v-0.2l0.5-0.4l0.4-0.1L140.8,88.8z"/>
	<path id="Sachsen-Anhalt" class="st0" d="M366,207.8l1.4-0.6h0.3h0.5l0.2,0.1l0.2,0.1l0.2,0.2l0.1,0.2v0.2l-0.1,0.2l-0.9,1.2
		l-0.1,0.3l0.1,0.4l0.1,0.3l0.2,0.3l3.6,2.8l0.2,0.1l0.5,0.1l0.3-0.1l0.7-0.5l1-0.6h0.2l0.5,0.1l0.4,0.1l0.4,0.2l0.2,0.1l5.2,3
		l0.2,0.3l0.1,0.3v0.3v0.2l-0.1,0.3l-0.1,0.2l-0.5,0.5l-0.5,0.6l-0.2,0.4l-0.1,0.2l0.1,0.5l0.3,0.5l0.2,0.2l0.3,0.2l3.6,1.5l5.2,1.7
		l0.3,0.1l8.2-1l0.7-0.7l-0.1,0.2l-0.3,0.6v0.7l0.8,2l1.6-0.5l0.9-0.5l1.5-0.7l1.5,0.7l0.6,0.4l0.1,0.3l1.2,4.9l-0.2,1.8l-1.5,0.7
		l-0.7,1.3l-0.3,1.1l-0.4,4.4v0.1l1.2,2l1.2,1.8l0.3,0.9v0.6l-0.4,3.7l-1.6,1.2h-0.4l-0.4-0.1l-0.9,1.6l-1.8,7.1v0.8l0,0l1.8,2.2
		l0.9,1l1.2-0.2l1.1-0.3l0.3-0.5v-0.1l0.2-0.9l5.5,1.9l0.4,3.3l-0.3,0.9l-0.6,1l-0.9,2.2l0.2,1.6l0.4,2.9l0.7,3.4l-1.2,2.4l-0.2,0.1
		l-0.1,0.2l-1.2,2.6l-0.6,1.8l-0.1,0.5l-0.3,2.5l0.2,4l-1.8,4.1l2.9,3.8l2.1,3.2l2.6,3.4l1.7,1.9l4.6,2.9l7.2,2.8l4,0.6l0.8-0.1
		l1.8-1.3l0.2-1.4l0.4-0.6h0.9l2,0.9l0.7,0.4l1.6,0.9l1.8,0.9h0.3l0.5,1.4l4.9,2.8l2.4,0.6h0.5l1.1-0.4l4.9,2.6l3,3.1l0.3,0.2h0.2
		l2.4,0.2l2.1-0.8l0.3-0.2l-0.1-0.7h0.9l0.4,0.3l0.7,0.7l0.1,0.6v0.6l-1.7,0.3v0.2v0.3l3.3,11.7l0.5,0.4l0.3,0.3l0.5,0.9v0.5v0.1
		l-1.4,2.5l-0.5,0.6l-6.5,4.3l-2.2,0.3l-6.6,0.3h0.5l-9.5,0.2l-0.9-0.3l-0.1-0.1l-0.7-0.5l-1-0.4l-0.3-0.1l-0.5-0.1h-1l-0.4,0.2
		l-0.3,0.3l-0.1,0.2L438,348l-0.7,1.9l-0.2,0.2l-0.8,0.6l-0.8,0.6l-1.6,0.8l-2-1.4l-0.3,1.1l-2,1l-7.5,2.2l-2.3,0.2l-2.5,0.1
		l-0.7,0.1l-5.3,2.8l-3.5,3.1l-0.2,2.4l-2.4,5.3l0.4,1.4l1,3.4l0.1,0.1v0.1l0.2,0.7l1,5.5l0.2,1.6l-1.3,0.5l-1.6,0.9l1.7,4.5
		l1.3,1.8l0.4,1.9v0.3l0.4,2.4v7.2l2,0.4l0.3,0.2l0.5,0.6l-0.1,0.4l-0.7,0.6l2.3,2l1.4,1l-1.6,2.5l0.3,1.7l1.3,1l0.4,0.2l0.5,0.6v1
		l-0.1,0.3l-3.2,6.9l-0.7,0.9l-0.2,0.1l-0.6,0.4l0,0l-0.3-1.1l-0.4-0.8l-1.4-1.8l-0.1-0.1l-0.7,0.5l-0.3,0.3l-0.2,0.3l0.1,0.7
		l-1.1-0.5l-3.6-1.2h-0.2l-3.2,0.5l-0.3,0.1l-1,0.4v-0.9v-0.2l-0.2-0.5l-2.3-3l-0.3-0.2l-2.2-1.6l-3.5-2.2l-0.8-0.3l-2,0.5l-2.8,0.6
		l-1.8-0.5l-4.8-1.5l-0.1-0.6l-0.2-1.3l-0.3-1.2l-1.6-1l-6.3-1l-0.2,0.2l-0.3,0.8l-0.3,0.2l-0.8,0.7l-3.9,0.1l-0.1-0.3l-0.9-0.4
		l-0.5-0.4l-0.8-3.4l1.3-0.2l0.3-0.5l0.5-1.2v-0.3l-1.1-2.5l-1.6-1.6l-0.9-0.4h-0.2l-0.9,0.4h-1.6l-1.6-1.2l0.1-0.8l0.6-1l0.3-0.5
		l0.2-0.2h0.2l0.8,0.9h0.1l0.5-0.2l0.3-0.2l0.5-0.6l0.8-1.2l1.5-2.1l0.7-1.1l0.4-0.7l0.1-0.1v-0.3l-0.5-0.5l-1.3-1.2l-0.4-0.2
		l-0.3-0.1l-0.7-0.6l-0.5-0.6v-0.1l0.1-0.1l0.5-0.5l-1.8-0.6v-0.4l-0.6-1l0.3-1.9v-0.3L357,378l-4.2-1.6l-2.8-0.1l-0.7,0.1h-1.4
		l-6.4-0.1l-0.5-0.1l-6.4-2l-0.6,0.3l-1.2,0.4L332,375l-0.8-0.1l-0.9-1l-0.8-0.5l0.1-2.7l0.1-2.4l-1-1.2l-1.7-2.6l-2.1-3.3l-1.2-2.9
		l0.5-1.6l1.7-2.2l-1.3,0.5l-2-1.8l-0.4-0.3l-2.9-0.7l-1.9-0.2l-3.4-0.3l-1.8,0.4l-0.4-0.1l-0.1-0.1l-0.3-0.4l-1.3-2l-0.1-0.4
		l-0.2-1.3l-0.1-0.9l0.2-0.5l-0.9-2.2l-3-4.5l-1-0.6l-0.7-1.5l-0.3-2.8v-3.5l0.1-0.5l0.4-0.5l2.1-1.8l0.4-0.2h0.4l0.2-0.1l1-1.6
		l0.1-0.3v-0.7l-0.1-0.7l-0.1-0.3L308,324l-0.8-0.3l-0.9-0.3v-1.6v-0.2l0.8-1.1l1.3-0.4l-3.7-2.8l-1.7-2.4l4.2-0.4l1.8-1.7l0.1-0.1
		v-0.3l-0.2-0.4l0.1-1l1.9-0.6l1-0.2l5-0.1h0.3l0.9,0.2l1.8-0.1l1.4-0.3l0.4-0.1l0.9-0.7l0.5-0.1l3.4-0.1l1.7,0.2l0.1,0.1l0.3-3.1
		l0.4-1.9l2-1.4l1.9-1.5l1.2-1.8l0.2-0.3l0.1-1.5l-0.1-0.4l-0.1-0.1H334l-1-0.2h-0.5l-0.7-0.4l-0.4-0.3l-0.2-0.2l-0.1-0.3l-0.1-0.4
		l0.1-0.8l0.4-1l0.3-0.5l0.3-0.2l1-0.5l0.7-0.2l1.1-0.2l0.6-0.8v-0.1V291l-0.4-1l-1.4-2l-1.4-1.4l-1.4-1.6l-0.1-0.1l-0.4-4.1
		l1.2-1.7l0.6,0.1l0.2-0.1l1.1-0.5l0.8-0.6l0.1-0.2v-1.4l-0.1-0.4l-0.6-0.6l-0.8-0.7l-0.2-0.1l-0.3-0.1l-1.3-0.8l-4.5-5.8l-0.9-1.8
		l0.6-1.6l2.2-1.2l1.7,0.1l-1.8-2.1l-1.3-1.7l-0.8-1.3l-0.3-0.8l-0.3-1.4l0.2-2.2l0,0l-2.8-5.4l-3.7-5.3l-2.6-1.9l-2.6-7.2l0.1-0.6
		l0.1-0.6l-0.2-2.3v-0.2l0.5-2.2l2.1-0.6l2.7-0.6l6.1-0.2l2.9-3.1l0.2-0.4v-0.2l-0.1-0.5v-0.8l0.2-0.7l0.3-0.4l0.3-0.1h0.3l9.3,0.4
		l3.9,0.8l0.7,0.8l0.3,0.3l0.1,0.3v0.3v0.1l0.1,0.1l0.3,0.1l3.2,0.3l1.1-0.3l5.7-2.8l0.1-0.2l0.9-1.2l1.8-1.7l1.1-0.6l1.2-0.3h0.9
		l-0.8-1.9l0.6-3.2l0.2-1l0.3-0.7l0.8-0.2h0.1l0.4,0.5l0.6,0.4l0.7,0.1v-0.1l2.5-3.6L366,207.8L366,207.8z"/>
	<path id="Sachsen" class="st0" d="M461.8,347.3l2.4,3.9l0.6,0.3l0.7-0.5l0.3-0.3l0.2-0.3l2.6,1.4l0.4,0.8l1.9,4.1l1.1,2.7l0.2,0.7
		l0.2,0.7l-0.2,5.2l-0.8,3.7l1.5,1.8l0.2,0.6l0.2,0.4l2.3,0.1l0.5-0.1l1.7-0.5l-0.1-1.1v-0.1l2.6-2.3l4.5-2.4l0.6,0.5l2.3,2.1
		l2.1,1.7l4.9,3l2.9,0.9h0.3l2-0.1l3.3-0.1l0.5-0.7l0.3,0.4l0.8,0.5l0.5,0.1l3.1,0.4l0.8-0.6l2.1-1l1.6-0.6l2.8,0.1l0.3-0.1l7.5-1.5
		l2.7-3.5l1.4-5.5l1.5-4.4l2.1-3.1l0.4-0.1l1.3,0.2l3.1-0.1l4,0.5l2.9,1l4.3-2.5l3.4-0.4l0.3,0.2l-0.1-0.5v-0.4l0.1-0.4l0.4-0.3
		l6.9-2.5l2.2,0.9l0.1,0.7l0.4,0.8l0.1,0.2l0.4,0.1l0.5,0.1l3.2-0.3l0.2-0.1l0.5-0.5l0.2-0.2l0.1-0.3l0.6-2.3l0.8-0.8l1,0.8l-1,2
		v0.2l1.3,3l0.4,0.5l1.1,0.4l0.9,0.2l0.9,0.1l0.9-0.1h0.2l8.2,3.1l0.2,0.1l1.7,0.9l0.1,0.1l0.4,0.7l1.3,2.1v0.4l-0.1,4l4.9,10.4
		l0.7,2v2.9l-1.2,2.7l-0.2,1.2l-2,14.3l-0.2,1.6l-0.9,1.2l-0.7,2.5l0.3,0.2v0.1l-0.2,1.1l-0.7,3.2l-1.2,3.7l-0.3,0.5l-1.5,2
		l-1.4,1.7l-1.4,2.7l-0.3,2.4l-0.4,2.4l-0.1,0.7l-0.3,0.2l-1.4,0.1H576l-2.1-0.4l-5.5-2.1l-2.1-0.8l-0.1-0.8l0.8-2.4l-0.8-3.8
		l-2.1-6.2l-1.3-1.3l-5.3-4.5L557,404l0.2,0.7l-0.1,1.4l-4.8,0.7l-0.5,0.1h-0.2l-4.6-1.7l-0.2-0.1l-0.2-0.2l-1-1.1l-0.2-0.2h-0.1
		l-0.7,0.1l-0.4,0.5l-0.3,0.6l-1.9,5.8l0.1,0.2l3.6,3.2l0.2,0.2l0.4,0.2l3.5,0.9l0.7-0.2l0.4,0.2l0.3,0.2l0.3,0.4l0.1,0.9l-0.7,2.5
		l-5.3,1.9l-11.2,5.7l-2,1.1l-1.1,1.4l-0.6,0.2l-8.4,2.7l-0.8,0.1l-1.8,0.1l0.3,0.5l0.2,3.2l-0.1,0.4l-0.3,0.8l-2.5,1.7l-0.6,0.2
		l-1.2,0.2h-0.1l-0.4-0.1l-0.6-0.4l-0.3-0.1l-1.9-0.4H512l-7,0.9l-1,0.1l-7.2,4.3l0.2,0.5l0.2,0.9v0.1l-1.8,4.2l-0.9,0.6l-1.9,2.4
		l-3.9-1.9l-2.1-0.2l-5.9,4.5l-3.4,3.7l0.1,0.7l-1.9,4.5l-1.5,0.3l-3.1-1l-5.5,0.5l-0.6,0.2l-0.2,0.1v0.2l-0.4,2.1l-0.1,2.1l0.1,0.7
		l0.2,0.4v0.5l0,0l-0.1,0.4l-0.2,0.4l-2,2.5l-0.4,0.3l-2.1,1.3l-0.7-0.3l-2.9-1.9l-4.2-2.7l-0.7-0.4H451l-5.3,3.2l-3.7,2.1l-1.1,0.1
		l-5,0.6l-4.5,1.2L424,486l-2.1,3.1l-1.9,3.8l-0.2,0.8l-0.3,2.8l0.2,0.5l0.1,0.1l0.2,0.1l0.2,0.2l0.4,0.7l-0.2,1.9l-0.3,0.2h-0.8
		l-0.8-0.1l-1-0.2l-0.2-0.1l-0.1-0.1l-0.8-1.3l-0.3-0.6v-0.3l0.5-0.2l0.2-0.1l0.2-0.8l-0.2-1.6l-5.8-8.4l-1.1-1.3h-0.5h-2l-2.7,0.1
		l-0.4,0.3l-0.5-0.6l-2-0.8l-4.5-1.3l-1.2-0.2l-0.4-0.3l0.3-1.8l0.2-1.7v-0.4l-2.6-2.6l-0.7-0.6L392,475l-1.6-1.1l-0.5-0.5l-0.1-0.2
		l0.4-0.7l0.6-0.5l1.6-0.9l1.8-1.7l0.3-0.5v-0.3l-0.2-0.5l-2-1.9l-0.8-0.8l-1.1,0.1h-0.9l-0.3-0.5l-0.7-1.8v-0.1l0.1-0.3l3.1-4.4
		l0.4-0.2l0.7-0.3l0.2-0.1l2.2-2.3l0.1-0.8l1.3-1.2l0.1-0.1l0.4-0.1l0.8,0.8l0.4,3.1l0.7,2.8l4-0.2l2.5,0.3l1.2-0.8l0.4,0.1l0.8-0.1
		l0.2-0.1l0.1-0.1l0.1-0.5l-0.2-0.4H408h-0.7l-0.4,0.3l-2-0.6l0.3-0.8l0.2-0.1l0.5-0.2l3.2-1.4l3.6-1.6h0.1l1.9-0.4l2-2.1l0.1-0.1
		l1.1-1.4l0.2-1.3l-3-0.8l-0.8-0.8l-2.5-4.4v-0.3v-0.5l0.1-1l0.8-5.4l0.5-1l0.6,0.7l1.3,0.1l4.4-1.6v-1.4V432l1.6-1.3l0.3-0.1h1.6
		l0.6,0.2l0.6,0.7v0.1l1.3-0.4l0.2-0.1l0.9-2.6v-1.2l1.5-1.2l0.3-0.1l3.2-0.8l1.9-0.3l0.6,0.1l1.4-0.3l2.8-0.9l0.8-1.2l-0.5-0.4
		l-0.3-0.3l-0.7-1.1l-0.1-0.3l-0.6-2.3l-0.3-1.6l-2.4-0.6l-2.4-0.9l-2.5-1.9l-0.3-1.8l0.1-1.2l0.1-0.7l-0.2-0.9l-0.2-0.3l-0.4-0.2
		l-2.9-1.1l-7.7-2.4h-0.1l-3,1.5l-1.4-1l-2.3-2l0.7-0.6l0.1-0.4l-0.5-0.6l-0.3-0.2l-2-0.4v-7.2l-0.4-2.4V391l-0.4-1.9l-1.3-1.8
		l-1.7-4.5l1.6-0.9l1.3-0.5l-0.2-1.6l-1-5.5l-0.2-0.7v-0.1l-0.1-0.1l-1-3.4l-0.4-1.4l2.4-5.3l0.2-2.4l3.5-3.1l5.3-2.8l0.7-0.1
		l2.5-0.1l2.3-0.2l7.5-2.2l2-1l0.3-1.1l2,1.4l1.6-0.8l0.8-0.6l0.8-0.6l0.2-0.2l0.7-1.9l0.1-0.6l0.1-0.2l0.3-0.3l0.4-0.2h1l0.5,0.1
		l0.3,0.1l1,0.4l0.7,0.5l0.1,0.1l0.9,0.4l9.5-0.2h0.1l6.6-0.3L461.8,347.3z"/>
	<path id="Saarland" class="st0" d="M25.9,560.3l0.5,0.3l7,2.2l1.3,0.2l4.4,0.3l7.1-1.3l4.3-1.2l0.6-0.3l1.3-0.8l0.2-0.1l0.5-0.5
		l0.2-0.3l0.6-0.6l0.3-0.2l0.8-0.4l3-1.2l1.9-0.7h0.4v-0.1l0.1-0.1l0.1-0.1l3-1.8l0.4-0.1l2,0.3l0.9,0.2l-0.1,0.3l-0.2,0.7v0.2h0.1
		l1.6-0.6l0.5-0.5l0.6-0.6l2.6,1.7l3.3,3l6.1,3.3l0.8,0.1L83,561l1.1-0.6l0.4-0.4l0.2,0.3l0.4,0.7l0.5,1v0.2l0.1,0.8l0.1,4.4
		l-0.5,5.2l-1.7,0.5l-0.4,0.3v0.1l0.2,1l0.1,0.4l2.5,1.7l0.1,0.8l-0.3,1.5v0.4l5,2.9l0.7-0.2l1.2-0.6l0.4,0.4l-0.6,0.4l-0.7,4.3v0.1
		l0.6,0.4l-0.5,2.3l-0.6,0.8l-0.4,0.4l-0.6,0.3l-1.4,0.7l-2.9,1.9l-1,1.3v0.2v0.6l1,3.1l0.9,1.2l1.8,2.6l0.2,0.2l0.3,0.2h1l-0.5,0.9
		l-4.4,3.5l-0.4,0.2l-0.7-0.2l-1-0.7L82,606l-4.1-0.4l-0.4,0.1l-0.7,0.3l-0.6,0.7l-0.2-0.1l-0.8-0.5l-0.5-0.3l-1.3-1.2l-1-1.7
		l-0.8,2.5L70,607l-0.7,0.2l-0.3-0.1l-0.3-0.3l-0.2-0.5l-0.7-3.8l-0.2-1.4l0.1-0.5l-1.2-1.9l-2.2-1.7l-2.3-0.8l-1.4-0.4l-4-0.5
		l-1.4,0.9l-0.1,0.2l0.4,0.4l0.6,0.8l0.6,1.9v0.3l-0.2,0.4l-0.9,1.5l-1.7,0.3l-5.5-1l-1.2-1.3l-0.6-1.4l1.4-1.8l-0.5-1.4l-2.1-1.2
		l0.1-1.8v-0.2l-1.3-3.2l-1.9-1.7l-1.6-0.9L40,586l-0.9-1.2l-0.3-0.5l-1.4-2.5l-0.1-0.2l-1.5-6l-0.1-0.4l0.1-0.3l0.7-0.5l0.6-0.1
		l-0.4-0.6l-0.5-0.6l-0.5-0.4l-4.3-3.3l-2.3-0.9l-1.7,0.3l-0.3,0.2l-0.7,0.2l-1.3-0.1l-0.5-0.6l-0.4-6.2l0.1-0.2l0.3-0.4L25.9,560.3
		z"/>
	<path id="Rheinland-Pfalz" class="st0" d="M145.2,448.3l-0.9,1l-0.1,0.4l-0.1,0.5v0.9l0.9,4.9l0.1,0.3l0.4,0.2l1.2,0.7v0.6
		l-0.4,1.2l-0.7,1.8l-0.3,0.7l-0.8,1.9l-0.2,0.4l-0.8,0.1l-1.1-0.2l-1-0.3l-0.5-1l-1.2-0.5h-0.3l-0.6,0.2l-0.4,0.1L136,465l-0.5,1.1
		l-0.5,2.4v0.3l0.5,1.3l0.7,1l-1.8,4.9l-0.3,0.8h0.5l5.3,3.5l2.7,4.9l0.2,0.4l0.1,0.2l0.7,2.2l0.1,0.4v1.9l-2,1.2l-2.1-0.9l-0.7-0.1
		l-0.9,0.3l-1,1.3l0.2,0.5l1.7,1.6l0.4,0.3l0.1,0.2l-1.7,1.9h-0.3l-1-0.2l-1.8-1.1l-4.3,1.9l-0.3,0.2l-0.6,0.4l-1.5,2l-0.1,0.1
		l0.1,1.3l0.4,0.5l0.5,0.3l0.8,0.6l1,0.9l0.1,0.4l-0.4,3l-0.3,0.4l-2.3-0.6l-0.4-0.1l-4.2,3.5l-2,1.1l-0.9,0.2l0.7,1.9l5.4,7.6
		l0.5,0.3l0.3,0.1h0.3l3.3-0.1l2-0.3l0.3-0.1l7-2.7l4.1-1.9l2.5-0.8l0.9-0.1l1.1,0.1l1.9,0.4l0.6,0.2l1.2,1.1l0.7,0.7l0.4,0.6
		l0.8,1.2l1.3,1.2l0.7,0.8l0.4,0.6l0.5,0.8l0.5,1.2v1l0.6,1.9l0.1,0.6v0.5l-0.1,0.3L158,529l-0.3,0.6l-0.1,0.4l-0.1,0.5v0.4l0.2,0.8
		l2.2,5.6l0.3,0.5l1,1.4l0.5,1l2.8,2.9l0.3,2.3l-0.6,1l-0.1,0.3l-0.1,0.2l-0.4,0.6l-0.5,0.4l-0.4,0.2l-0.4,0.2l-1.5,0.3l-0.7,0.3
		l-0.5,0.2l-0.5,0.3l-0.6,0.5l-0.1,0.1l-0.2,0.4l-0.1,0.2l-0.2,1l0.1,0.5l1.6,5.1l0.5,0.9l1.6,2.4l0.5,1.2l-0.1,1.1l-0.4,0.7
		l-0.1,0.5v0.4v0.4l0.1,0.3l0.4,0.8l1.1,4.4l0.1,0.6l0.4,3.2l-0.2,0.2l-0.2,0.2l-0.1,0.3v0.4l0.1,0.2l0.2,0.2l0.3,0.2l0.2,0.1
		l0.6,0.1h0.7h1l0.6,0.1l0.4,0.2l0.3,0.4l0.1,0.3v0.3l-0.8,2.1l0.2,2.3l0.1,0.9v0.6l-0.2,0.9l-0.4,0.8l-0.6,0.9l-0.5,0.5l-0.4,0.3
		l-0.4,0.3l-0.5,0.5l-0.2,0.3l-0.1,0.3v0.2v0.4l0.1,0.4l0.2,0.2l0.2,0.1l1,0.3l0.2,0.1l0.4,0.3l0.2,0.4l0.1,0.5v0.4l-0.1,0.2
		l-1.4,0.7l-1.8,2l-0.5,0.4l-1.4,0.9l-0.6,0.3l-0.5,0.4l-0.4,0.4l-0.3,0.5l-0.2,0.6l-0.1,0.7l0,0h0.1h0.2l0.2,1.8l-2.4,10.3
		l-0.2,0.5l-0.4,0.7l-0.7,0.8l0,0l-1,1.1l-0.7,1.1l-0.4,0.7l-0.5,1.2l-0.2,0.9l-0.2,1.4l-0.1,0.3l-0.1,0.3l-0.4,0.9l-0.3,0.5
		l-0.3,0.5l-0.4,0.4l-1.1,0.8l-1.6,1.2l-0.4,0.2l-0.3-0.6l-0.2-0.3l-0.1-0.1l-3.5-0.4l-0.3,0.1h-1l-0.9-0.2l-3-1.2l-1.6-0.7
		l-0.1-0.3l-0.7-0.8l-0.7-0.7l-5-2.4l-3.3-0.9l-1.3-0.1l-1-0.5L120,615l-3.4,0.8l-0.3,0.1l-1.9,0.1l-3.9-0.2l-2.9-1.1l-4.5-2.7
		l-0.9-0.6l-1.4-1.2l-2.1-4v-0.8l0.2-1.2l-0.2-1.4l-3.2-1.6l-2.4,0.4l-2,0.4l-1.1,0.3v0.5l0.1,0.3l0.2,0.3h-1l-0.3-0.2l-0.2-0.2
		l-1.8-2.6l-0.9-1.2l-1-3v-0.6v-0.2l1-1.3l2.9-1.9l1.4-0.7l0.6-0.3l0.4-0.4L92,590l0.5-2.3l-0.5-0.5v-0.1l0.7-4.3l0.6-0.4l-0.4-0.4
		l-1.2,0.6l-0.7,0.2l-5-2.9v-0.4l0.3-1.5l-0.1-0.8l-2.5-1.7l-0.1-0.4l-0.2-1V574l0.4-0.3l1.7-0.5L86,568l-0.1-4.4l-0.1-0.8v-0.2
		l-0.5-1l-0.4-0.7l-0.2-0.3l-0.4,0.4l-1.3,0l-0.8,0.3l-0.8-0.1l-6.1-3.3l-3.3-3l-2.6-1.7l-0.5,0.6l-0.5,0.5l-1.6,0.6h-0.1v-0.2
		l0.2-0.7l0.1-0.3l-0.9-0.2l-2-0.3l-0.4,0.1l-3.1,1.8l-0.1,0.1l-0.1,0.1v0.1H60l-1.9,0.7l-3,1.2l-0.8,0.4l-0.3,0.2l-0.6,0.6
		l-0.2,0.3l-0.5,0.5l-0.2,0.1l-1.3,0.8l-0.6,0.3l-4.3,1.2l-7.1,1.2l-4.4-0.3l-1.3-0.2l-7-2.2l-0.5-0.3l-1.4-2.2v0.3l0.1-0.2l1.3-2
		l0.4-0.5l0.2-0.1h0.5l0.3-0.1l0.2-0.3l1.2-1.3l5.8-9.4l1.5-5.1v-0.6l-0.6-4.2l-2-1.3l-1.5,0.9h-1.5h-0.1l-1.8-1l-0.2-0.2l-3.1-3.1
		l-5.6-3.4l-1.8-2.1l-3.3-5.6l-0.4-1l-0.3-0.8l-1.2-2.9l-1.5-6.1l0.3-3l2-7.2l2.5-2.1l-0.3-4.2l0.2-1.3v-0.1l0.2-0.2l7.5-4.8
		l0.4-0.9l1.2-2.5l0.4-0.2l1-0.2l2.2,1.1l2.8-0.7l1.4,0.1l-0.7-1.1l-0.5-0.8l-0.2-0.5l-0.7-2.7l-0.3-1.3l1.9-0.4l2.2,1.9l0.1,0.1
		l0.7,1.1l4.8-0.7l4.7-1.6l1.3,1.4l0.1,0.2l3.8,1.6l3.2,0.9l3-0.9l0.8,0.1l0.6,0.1l-0.9-1.5l-1-1.8l-0.1-6l3.2-2.1l0.4,0.3l2.4,1.6
		l0.7-0.2l2.4-1.1l1.9-7.8l0.2-1.4l2.2,0.3l0.7,0.1l1.7-0.8l0.2-0.1l1.1-1.1l0.9-1.1l2.6-0.4l5.3-1.2l1.6-0.5l1-1l0.1-0.1l0.4-1.4
		l0.1-0.5l0.3-0.6l0.3-0.1H86l0.1,0.3v0.5l-0.1,1.6v0.4h3l1.6-0.4l0.8-0.2l2.8-0.9l1.3-0.7l0.2-0.3l0.5-2.1v-1.6l-0.1-1.5l0.5-1
		l0.5-0.5l1.9-0.1l2.1,0.7l0.3-0.2l0.9-0.4l13.1-4.7l0.5-0.4l1.1-1.4l0.4-0.9l-0.2-1.6l-0.3-0.3l-1-0.8l0.6,0.1h0.3l1.6-0.6h0.1
		l2.4-2.1l1.3-1.8l-0.6-5l0.5-0.5l2.4-2.1l0.4-0.2l1.3,0.3l2.3,1.7l-0.5,0.8l-0.4,0.9l-0.5,1.6l-0.1,0.4v0.3l0.1,0.5l2.3,0.6
		l1.1,0.3l4.9,2.8l0.3,0.2l0.3,0.3l0.5,1.4v0.6l-0.2,2.1l-0.1,0.2l-0.4,0.4l-0.1,0.7l-0.1,0.9l0.2,1l0.3,0.5l0.6,0.8l0.3,0.3
		l1.5,1.4l1.5,1.5l0.4,0.4l0.1,1.6l-0.3,1.5l2.6-0.9l1.3,0.3l0.7,0.6L145.2,448.3z"/>
	<path id="Nordrhein-Westfalen" class="st0" d="M232.5,351.8l-1.3,2.2l-3.8,4.6l-3.2,5.3l-4.5,3.5l-4.3,3.5l-0.7,1l-0.6,1l-0.6,0.1
		l-2.8-0.2l-0.6-0.2l-0.3-0.2l-0.2-0.2l-0.6-1.6l0.7-1.8l-1.2-2l-2.9-1.2l-1.2,0.1l-2.2,0.5l-1.6,0.5l-2.9,1.2l-0.7,0.7v0.4l0.2,0.7
		l2.5,4.1l0.5,0.1l0.3,0.2v0.2l0.2,1.4l-0.8,2.5l-0.1,0.1l-3.4-0.2l-4.2,0.1l-3.8,1l-5,1.5l-3,1.9l-1.1,0.7l-1.1,1.4l-2.6,3.8
		l-0.6,0.9l2.1,2.9l0.2,0.2l0.3,0.1h0.8h0.1l1-0.7l4.6-2.1l0.7-0.1h0.9l0.9,1.2l0.1,0.3l0.7,6.4l0.2,2l-0.1,0.4l-0.3,0.7l-2.8,6.2
		l-3.2,1.2h-0.4l-1.1-0.3l-0.8-0.3l-1.7-0.3l-2.8-0.2l-0.1,0.1l-1.3,0.5l-0.1,0.1l-0.8,0.6l-0.5,0.5l-0.4,0.6v0.2l0.1,0.3l1.1,3.3
		l0.7,1.5l0.4,0.9l-0.5,0.7l-0.4,0.4l-1,0.9l-1.4,1.6l-0.9,0.9l-0.1,0.2v0.2l0.3,0.4l-0.2-0.1h-0.6l-0.1,0.1l-0.4,0.2l-0.1,0.1
		l-0.6,2.6l-4.3,6.5l-1.1,1.2l-0.1,0.1l-0.5,0.1l-0.2-0.1l-4.1-2.2l-0.2-0.1h-1h-0.2l-0.2,0.2l-9.5,9.3l0.4,1l0.4,0.8l0.8,1.5
		l0.8,1.1l0.2,1l-0.1,0.4l-2,3.7l-0.7,1l-1-1.2l-0.7-0.6l-1.3-0.3l-2.7,0.9l0.3-1.5l-0.1-1.6l-0.4-0.4l-1.5-1.5l-1.5-1.4l-0.3-0.3
		l-0.6-0.8l-0.3-0.5l-0.2-1l0.1-0.9v-0.7l0.4-0.4l0.1-0.2l0.2-2.1v-0.6l-0.6-1.4l-0.3-0.3l-0.3-0.2l-4.9-2.8l-1.1-0.3l-2.3-0.6
		l-0.1-0.5v-0.3l0.1-0.4l0.5-1.6l0.4-0.9l0.5-0.8l-2.3-1.7l-1.3-0.3l-0.4,0.2l-2.4,2.1l-0.5,0.5l0.6,5l-1.3,1.8l-2.4,2.1h-0.1
		l-1.6,0.6h-0.3l-0.6-0.1l1,0.8l0.3,0.3l0.2,1.6l-0.3,0.9l-1.1,1.4l-0.5,0.4l-13.1,4.7l-0.9,0.4L101,445l-2.1-0.7l-1.9,0.1l-0.5,0.5
		l-0.5,1l0.1,1.5v1.6l-0.5,2.1l-0.2,0.3l-1.3,0.7l-2.8,0.9l-0.8,0.2l-1.6,0.4h-3v-0.4l0.1-1.6v-0.5l-0.1-0.3h-0.5l-0.3,0.1l-0.3,0.6
		l-0.1,0.5l-0.4,1.4l-0.1,0.1l-1,1l-1.6,0.5l-5.3,1.2l-2.6,0.4l-0.9,1.1l-1.1,1.1l-0.2,0.1l-1.7,0.8l-0.7-0.1l-2.2-0.3l-0.2,1.4
		l-1.9,7.8l-2.4,1.1l-0.7,0.2l-2.4-1.6l-0.4-0.3l-3.2,2.1l0.1,6l1,1.8l0.9,1.5l-0.6-0.1l-0.8-0.1l-3,0.9l-3.2-0.9l-3.8-1.6l-0.1-0.2
		l-1.3-1.4l-4.7,1.6l-4.8,0.7l-0.7-1.1l-0.1-0.1l-2.2-1.9l-1.9,0.4l0.3,1.3l0.7,2.7l0.2,0.5l0.5,0.8l0.7,1.1l-1.4-0.1l0.3-1.2v-0.1
		l-0.5-0.9l-2.4-2.9l-0.1-2l0.6-1l0.3-0.8l0.5-2.5l0.1-0.7l-0.1-1.1l-0.2-0.5l-1.7-2.9l-0.5-0.7l-1.1-0.7l-0.2-0.3l-0.2-0.2
		l-2.5-0.4h-1.2h-0.1l-0.5,0.4l-1,0.4h-0.1h-0.1l-2-2.8l-0.3-0.6l-0.5-1.6l-0.1-1.5l0.1-0.3l3.3-3.1l0.8-3.6l-3.5-0.9l-0.9-1.1
		l0.2-0.1l1.1-0.4l-0.8-0.7l-0.5-0.7l-1-1.6l-0.3-0.5l-0.1-0.5l-1.3-3.4l-0.3-0.3l-0.2-0.1l-4.5-2.5l-2.7-4.5l1.6-5.2l0.2-0.7l1-0.4
		l1-0.3h0.4l0.1,0.3l1,0.5l1.1-2.6l-0.1-0.7l-0.3-0.4l-0.3-0.5l-0.1-0.5l0.4-1.5l0.1-0.2l0.4-0.4l0.1-0.3l0.1-0.4l-0.8-0.3l-1.3-0.6
		l-2.4-0.9l-0.1-1.4l0.1-1.4l0.6-1.2l0.3-0.9v-0.1l-0.5-0.1L6.7,413l-2.5,0.6l-0.9-1l-1.4-3.1l-0.6-3V406l0.1-0.1l3-1.3l6.2-2
		l7.9-5.3l1-2.9l2.4-1l0.4-0.2l-1-0.8l-1.1,0.4l-1.7,0.8l-0.5,0.3l-0.1,0.2l-0.2,0.2l-0.4,0.2l-0.3,0.1h-0.4h-0.2l-0.5-0.1l-0.5-1.1
		l-0.1-3.2l1.2-3.4l7.2-9.1L26,375l-1-3.6l0.6-3.2l0.5-1.6l0.3-2.3v-0.7l-0.5-4l-0.7-1.4l-2.6-4.3l-0.7-0.5l-3.3-3.8l0.2-1.1
		l-0.2-4.5l-3.2-1.5L15,342l-0.1-0.1l-1.9-6.2l-1.5-7l1.5-2.5l4.4-2l2.2,0.1l4.9-0.7l2-1.3l4.9,0.2l0.2,0.1l0.7,0.3l0.7,0.4l3,1.9
		l1.9,1.7l1.3,0.7l0.4,0.1l-1.1-3.5v-0.3l0.3-0.9H39l2.1,0.9L46,324l0.9-0.5l1.5-0.8l2.9-1.1l5.8-2l0.6-0.1l0.5,0.3l0.3,0.5l1.4,1.4
		l0,0l0.7-0.2l1.2-0.8l1.2-0.9l1.3-1.3l2.7-3.4l0.3-0.6v-0.2l-0.1-1.4l-0.2-0.8l-4.5-3.8l-2.4-1.3l1.5-3.5l1.5-2.5l5.7-1.8l0.6-0.1
		l0.8-0.7l0.4-0.4l0.4-1.6l0.2-0.8l1.8-2l7.7-4.8l2.5-1.5l2.1-0.1l0.7-1l0.2-0.3l0.6-0.6l2.1-0.5l2.6,0.3l1.3,0.1l5,0.3l0.9-1
		l0.4-0.6l0.8-0.1l1-0.1l1-0.5l0.3-0.5l0.3-0.7l0.6-0.5l3.7-2.7l4.2-2.6l1.7-1h0.3h0.3l2.3-1.2l1.8-3.2l0.1-0.7l-1.4-0.7l-0.7-0.5
		l0.5-1.5l0.4-0.8l0.6-1l0.8-1l0.2,0.1l4.6,1.8l0.2,0.2l0.2,0.3l0.5,1.1l1.6,4.5l5.1,3.1l2.2,0.3l1.3-0.6l0.3-0.2l1.6-0.4l2.8,1.7
		l1,1.7l0.7,2.5l-2.1,2.2l-0.1,0.4v0.5l0.1,0.6l0.2,0.2l1.4,1.4l-1.1,0.7l-2.7,5.8v0.1l0.2,0.8l0.3,1l0.3,0.5l1.2,0.9h0.1l2.3,0.5
		l2,1.8l0.2,4.1l-3.2,1l-3.7,1.2l-0.9,0.7v0.1h0.3l1.4,2.3l0.2,1l1,0.5l1.8,0.8l1.1,0.4l0.6-0.9l0.4-0.5l2.3-1.7h0.2l1.5,0.1l1,0.1
		l1.1,0.3l0.3,0.6l2.3-1.4l1.6-0.4l4-2.9l1.7-1.6l1.4-1l0.6,0.1l2.9,0.6l2.4,0.9l3,0.3l-0.2-0.7l-0.1-0.6l0.1-0.3l0.3-0.5l0.4-0.4
		l2.2-1.5l0.2-0.1h0.6l0.4-0.1l0.5-0.3l0.2-0.2l1-1.1l0.5-0.6l0.6-0.8l-1.2-0.6l-1.2-0.4h-0.4l-0.3-0.1l-0.8-0.7l-0.5-1l-0.1-0.2
		l1.1-4.5l0.5-1l-0.2-3.3l0.1-1.8l-1.6-4.6l-2.2-1.7l-5.2-3.9l-0.6-3.2l-0.5-1.1l0.4-0.3l0.4,0.1l2.4,0.6l0.3,0.3v0.2l0.5,0.5
		l3.4-0.3l1-0.1l1.5-1.3l0.1-0.3l0.2-1.3l0.1-1.4l3.1-2.4l3.1,1.5l5.9-3.1l2.1,1.7l0.7,0.7l0.2,0.6v0.3l-0.3,1.3l0.2,7.6l0.2,1.5
		l0.5,0.4l1.8,0.8l6.7-0.1l5.1-1.1l0.2-0.1l2.9-3.8l2.1-2.8l0.8-1.4l1.6-2.1l2.3,0.5l2.7,1.2l0.2,0.7l0.1,0.2l-1.8,4.1l0.9,2.3
		l-0.1,0.7l-0.2,0.5L211,277l-0.8,1.5l-0.1,0.1l-0.7,0.7l-0.8,0.5l-1.2,0.2l-1,0.5l-1,0.7l-0.7,0.5l-2.3,4.8l0.5,1.6l0.2,0.1
		l0.3,0.1l1.6,0.4l2,0.8l2.5,1.7l-0.1,0.2l-2,4.9h-1.5l-2.3-1.2l1.9,2.5l3.5,2.7l3.5,0.7l0.9,0.3l0.2,0.1l0.5,0.6l0.3,1l-0.3,2.2
		l1.3,1.2l0.9,1.6l-0.1,0.1l-0.5,0.3l-0.5,0.7v0.2v1.8l0.3,6.2l0.6,1.5l5.7,4.1l0.9,0.5l1-0.2h0.1l0.3,0.1l1.1,0.6l0.1,0.1l0.5,0.8
		l0.3,1.3v0.6l-0.1,1l-0.5,2.4l-0.2,0.1l1-0.6l0.3-0.2l0.6-0.2h0.2l0.4,0.1l1.5,0.6l0.6,0.3l1.8,1.8v3.4l-1.2,3l-1.8,5.6l-0.9,7.2
		l0.5,0.3l0.3,0.1h0.2h1.6h0.1l0.5-0.2h0.1l0.6-0.2h0.2L232.5,351.8z"/>
	<path id="Niedersachsen" class="st0" d="M176.9,149.4l-0.9-2.2l-1.2-3v-2v-1.3l0.1-0.7l3.8-11.4l0.5-1.4l1-2.6l2.2-2.9l0.8-0.8
		l1.8-0.5l1.3-0.3l1.1-0.1v0.5l0.1,0.3l0.1,0.3l1.5,1.8l2.8,2.1l1,0.7l0.6,0.3l0.7,0.2l1.6,0.2l5.1,0.4l1.6-0.3l0.3-0.1l0.1-0.1
		v-0.1l0.3-0.1l2.1-0.4h0.5l2.1,0.5l-0.5-0.6l-0.8-2l-0.4-1.2l0.8-0.4l0.9-0.3l0.8-0.1h1l3.2,0.2l3.6,0.1h2.1l1.9,0.3l3.5,1.5
		l1.8,1.3l2.4,3.4l0.5,1l1.8,3.9l0.8,1.9l0.7,1.3l0.6,0.8l0.9,0.8l2.3,1.7l1,1.1l0.3,0.6l0.8,1.9l0.4,1l0.1,0.5l0.1,1.6l0.3,1.3
		l0.4,0.9l0.4,0.6l2.3,1.8l5.4,3.5l1.6,0.6l1.7,0.2l2.7,0.4v2.8L253,161l0.8,0.9l1,2.2l0.1,0.6l3.4,3.5l0.3-0.1l0.8-0.6l1.3-1.4
		l0.3-0.2l0.3,0.2l0.7,0.9l2.1,2l1.6,1.3h0.4l2.8-2.1l0.2-0.9l0.6-1.3l0.6-0.7l1.8,1l0.5,0.6l0.4,0.5l1.8,2l2.5,2.4l0.4,0.3l0.4,0.1
		l3.2,0.1l0.4-0.1l0.2-0.1l0.2-0.3l0.6-1.5l0.2-0.3l0.2-0.3l0.4-0.2l2.2-1.2l0.2-0.1h0.1l1.6,0.9l5.9,2.7l2.4,1.2l0.8,0.6l0.9,0.5
		l0.6,0.2l4.1,1.2h0.5l0.3-0.1l0.4-0.3l0.1-0.1h-0.1l0.7-0.4l0.7-0.2l1.1-0.1h4l0.2,0.1l0.2,0.1l1,0.8l0.6,0.6l1.2,1.5l0.5,0.7
		l0.3,0.6l1.1,1l0.7,0.4l2.7,1l0.9-0.5l1.1-0.7l1.1-0.7v-0.3v-0.1l0.4-0.8l1.4-1.1l2.6,0.7l1.8,0.5l2.4,5.6l2.3,4.4l1.1,1.6l0.7,0.7
		l2.9,2.1l1.2,0.3l0.9,0.2l0.6,0.1l0.8,0.4l0.1,0.2v0.4l-0.3,0.9l-0.1,0.2l-0.5,0.6l-0.5,0.2l3.6,1.4l0.6,0.3l0.6,0.4l0.9,1l0.2,0.3
		l0.2,0.4v1.4v0.3l0.1,0.2l1.1,1.4l3,3.1l0.3,0.2h0.2h0.5l1.7-0.9l1-0.8l0.3-0.2l0.4-0.1l2-0.6h0.4h0.5l0.4,0.2l0.4,0.3l0.7,0.8
		l1.2,1.2l0.6,0.4l0.6,0.2l4.4,1.1h0.6l0.1,0.1v0.1l-2.5,3.6v0.1l-0.7-0.1l-0.6-0.4l-0.4-0.5h-0.1l-0.8,0.2l-0.3,0.7l-0.2,1
		l-0.6,3.2l0.8,1.9h-0.9l-1.2,0.3l-1.1,0.6l-1.8,1.7l-0.9,1.2l-0.1,0.2l-5.7,2.8l-1.1,0.3l-3.2-0.3l-0.3-0.1l-0.1-0.1v-0.1v-0.3
		l-0.1-0.3l-0.3-0.3l-0.7-0.8l-3.9-0.8l-9.3-0.4h-0.3l-0.3,0.1L329,222l-0.2,0.7v0.8l0.1,0.5v0.2l-0.2,0.4l-2.8,3.1l-6.1,0.2
		l-2.7,0.5L315,229l-0.5,2.2v0.2l0.2,2.3l-0.1,0.6l-0.1,0.6l2.6,7.2l2.6,1.9l3.7,5.3l2.8,5.4l0,0l-0.2,2.2l0.3,1.3l0.3,0.8l0.8,1.3
		l1.3,1.7l1.8,2.1l-1.7-0.1l-2.2,1.2l-0.6,1.6l0.9,1.8l4.5,5.8l1.3,0.8l0.3,0.1l0.2,0.1l0.8,0.7l0.6,0.6l0.1,0.4v1.4l-0.1,0.2
		l-0.8,0.6l-1.1,0.5l-0.2,0.1l-0.6-0.1l-1.2,1.7l0.4,4.1l0.1,0.1l1.4,1.6l1.4,1.4l1.4,2l0.4,1v0.1v0.1l-0.6,0.8l-1.1,0.2l-0.7,0.2
		l-1,0.5l-0.3,0.2l-0.3,0.5l-0.4,1l-0.1,0.8l0.1,0.4l0.1,0.3l0.2,0.2l0.4,0.3l0.7,0.4h0.5l0.9-0.1h0.2l0.1,0.1l0.1,0.4l-0.1,1.5
		l-0.2,0.3l-1.2,1.8l-1.9,1.5l-2,1.4l-0.4,1.9l-0.3,3.1l-0.1-0.1l-1.7-0.2l-3.4,0.1l-0.5,0.1l-0.9,0.7l-0.4,0.1l-1.4,0.3L318,310
		l-0.9-0.2h-0.3l-5,0.1l-1,0.2l-1.9,0.6l-0.1,1l0.2,0.4v0.3l-0.1,0.1l-1.8,1.7l-4.2,0.4l1.7,2.4l3.7,2.8l-1.3,0.4l-0.8,1.1v0.2v1.6
		l0.9,0.3l0.8,0.3l0.5,0.6l0.1,0.3l0.1,0.7v0.7l-0.1,0.3l-1,1.6l-0.2,0.1h-0.4l-0.4,0.2l-2.1,1.8l-0.4,0.5l-0.1,0.5v3.5l0.3,2.8
		l0.7,1.5l1,0.6l3,4.5l0.9,2.2l-0.2,0.5l0.1,0.9l0.2,1.3l0.1,0.4l1.3,2l0.3,0.4l0.1,0.1l0.4,0.1L312,352l-1.2,0.2h-0.3l-2.1,5.5
		l-0.9,1.8l-4.6,1.2l-2.4,0.3l-0.6-0.3l-1.2-1.8l-0.4-0.3l-0.7-0.5l-0.4-0.2l-1.5-0.7l-0.8-0.3h-0.2l-2.4,0.6l-0.7,1.2l-0.9,1.9
		l0.4,0.2v0.1l-0.2,0.8l-0.1,0.3l-1.5,2.3l-0.1,0.1l-2.6,2.1l-8,5.4l-5.3,1.1l-6.7,3.9l-3.1,2.1l-0.5,0.2l-0.2,0.1l-0.2-0.1l0.4-0.2
		v-0.1v-1.2l-0.3-0.6l-1.3-2l-0.3-0.2l-3.1,0.4l-3.2,0.5h-0.2l-0.4,0.3l-4.4,3.7l-1.1,1.5l1.8,2.8l1.7-0.8h0.5l0.1,0.1l0.1,1.4
		l-0.1,0.5l-0.3,1.2l-2.3,1.2l-0.1-0.2l-3.4-1.7l-5.3-2.2l-1.7-0.6l-0.7-1.2l-0.5-0.8l0.1-0.3l0.5-2l0.2-0.4l1.1-1.7l0.5-0.1
		l1.6-0.3l1.3,0.1l0.7-1.1l0.1-0.2l-0.8-4.3l-0.3-1.6l-0.5-0.6l-2.1-3.5l-0.1-0.2v-0.1l0.1-0.3l2.4-2.7l1.5-0.3l0.2-0.4l0.6-0.8
		l0.7-0.6l0.7,0.2h0.1l0.1-0.2l0.3-0.8l-0.2-0.4l-0.2-0.2l-0.8-0.5l-0.7-0.6l-1.4-1.6l-0.1-0.1l-3.4-1.7h-1l-3.2-0.1l-0.7-0.1
		l-0.7-0.4l-0.3-0.4v-0.3l0.2-0.8l0.2-0.5v-0.4l-0.1-0.2l-0.3-0.1l-3.3,0.7l-0.1-0.1h-0.2l-0.6,0.2h-0.1l-0.5,0.2h-0.1h-1.6h-0.2
		l-0.3-0.1l-0.5-0.3l0.9-7.2l1.8-5.6l1.2-3v-3.4l-1.8-1.8l-0.6-0.3l-1.5-0.6L227,329h-0.2l-0.6,0.2l-0.3,0.2l-1,0.6l0.2-0.1l0.5-2.4
		l0.1-1v-0.6l-0.3-1.3l-0.5-0.8l-0.1-0.1l-1.1-0.6l-0.3-0.1h-0.1l-1,0.2l-0.9-0.5l-5.7-4.1l-0.6-1.5l-0.3-6.2v-1.8v-0.2l0.5-0.7
		l0.5-0.3l0.1-0.1l-0.9-1.6l-1.3-1.2l0.3-2.2l-0.3-1l-0.5-0.6l-0.2-0.1l-0.9-0.3l-3.5-0.7l-3.5-2.7l-1.9-2.5l2.3,1.2h1.5l2-4.9
		l0.1-0.2l-2.5-1.7l-2-0.8L203,288l-0.3-0.1l-0.2-0.1l-0.5-1.6l2.3-4.8l0.7-0.5l1-0.7l1-0.5l1.2-0.2l0.8-0.5l0.8-0.7l0.1-0.1
		l0.8-1.5l1.5-3l0.2-0.5l0.1-0.7l-0.9-2.3l1.8-4.1l-0.1-0.2l-0.2-0.7l-2.7-1.2l-2.3-0.5l-1.6,2.1l-0.8,1.4l-2.1,2.8l-2.9,3.8
		l-0.2,0.1l-5.1,1.1l-6.7,0.1l-1.8-0.8l-0.5-0.4l-0.2-1.5l-0.2-7.6l0.3-1.3V263l-0.2-0.6l-0.7-0.7l-2.1-1.7l-6.3,3l-3.1-1.5
		l-3.1,2.4l-0.1,1.4l-0.2,1.3l-0.1,0.3l-1.5,1.3l-1,0.1l-3.4,0.3l-0.5-0.5v-0.2l-0.3-0.3l-2.4-0.6l-0.3,0l-0.4,0.3l0.5,1.1l0.7,3.2
		l5.2,3.9l2.2,1.7l1.6,4.6l-0.1,1.8l0.2,3.3l-0.5,1l-1.1,4.5l0.1,0.2l0.5,1l0.8,0.7l0.3,0.1h0.4l1.2,0.4l1.2,0.6l-0.6,0.8l-0.5,0.6
		l-1,1.1l-0.2,0.2l-0.5,0.3l-0.4,0.1H170l-0.2,0.1l-2.2,1.5l-0.4,0.4l-0.3,0.5l-0.1,0.3l0.1,0.6l0.2,0.7l-3-0.3l-2.4-0.9l-2.9-0.6
		l-0.6-0.1l-1.4,1l-1.7,1.6l-4,2.9l-1.6,0.4l-2.3,1.4l-0.3-0.6l-1.1-0.3l-1-0.1l-1.5-0.1h-0.2l-2.3,1.7l-0.4,0.5l-0.6,0.9l-1.1-0.4
		l-1.8-0.8l-1-0.5l-0.2-1l-1.4-2.3H134v-0.1l0.9-0.7l3.7-1.2l3.2-1l-0.2-4.1l-2-1.8l-2.3-0.4h-0.1l-1.2-0.9l-0.3-0.5l-0.3-1
		l-0.2-0.8v-0.1l2.7-5.8l1.1-0.7l-1.4-1.4l-0.2-0.2l-0.1-0.6v-0.5l0.1-0.4l2.1-2.2l-0.7-2.5l-1-1.7l-2.8-1.7l-1.6,0.4l-0.3,0.2
		l-1.3,0.6l-2.2-0.3l-5.1-3.1l-1.6-4.5l-0.5-1.1l-0.2-0.3l-0.2-0.2l-4.6-1.8l-0.2-0.1l-0.8,1l-0.6,1l-0.4,0.8l-0.5,1.5l0.7,0.5
		l1.4,0.7l-0.1,0.7l-1.8,3.2l-2.3,1.2h-0.3h-0.3l-1.7,1l-4.2,2.6l-3.7,2.7l-0.6,0.5l-0.3,0.7l-0.3,0.5l-1,0.5l-1,0.1l-0.8,0.1
		l-0.4,0.6l-0.9,1l-5-0.4l-1.3-0.1l-2.6-0.3l-2.1,0.5l-0.6,0.6l-0.2,0.3l-0.7,1l-2.1,0.1l-1.4-1.6l-0.6-1.6l-0.1-0.8l-0.1-0.8
		l0.1-0.5l1.4-3.1l0.7-1.5l1.1-1.4l0.1-2.1l-0.5-1.9l-4.1-7.8l-0.1-0.1l-0.3-0.2l-0.6,0.4l-0.6,1l-0.5,1.1l-1,0.7l-0.3,0.1
		l-10.4-2.9l-1.3-0.5l-3.4-2.5v-0.3l0.4-2l0.2-1.2l0.8-2.9l0.4-4.1l-0.4-4l2.1-1.7l1.1-0.3l1.6-0.3h0.4l6.5,0.4l5.3,0.9l1.3,0.4
		l0.2,0.2v0.1l0.4,0.2l1.8,0.5H83l0.2-0.2l0.6-0.8l0.8-7.2l0.4-4.1l0.6-5.8l1.1-4l2.1-2.9l4.1-6.2L94,211l0.6-1.8l0.2-1.1l-0.5-6.9
		l0.3-3.4l-1.2-0.9l-0.1-0.8v-0.8l0.9-2.4l0.8-1.4l0.9-2.1l0.4-5.5l1.1-4.7l0.7-2.1l0.1-0.3l0.1-0.1l0.5-0.2h2.9l-0.4-0.1l-2.3-0.6
		l-1.2-0.3l-0.9-0.1l-3.1-0.3l-7-0.2l-2-0.3l-0.4-0.2l-0.3-0.4l-0.7-1.4l-0.2-0.5l0.1-0.3l1-1.7l0.1-2.6l1.6-12.8l3.4,1.5l1,1.4
		l1.9-1.9l1.1-1.1l-1-1.8l-0.7-0.4l-1.6-1.1l-0.5-0.7l0.3-0.9l4.6-4.8l1.2-1.2l2.7-2l1.1-0.8l2.8-1l1.3-0.3l1.2-0.1l1.7-0.1l7.5,0.6
		l0.4,0.1l0.6,0.4l0.1,0.2l0.5,0.4l0.7,0.4h0.5l1.8-0.3l3.9-1.3l4.2-1.2l0.4-0.1l0.6-0.1h0.4v0.2l0.6,0.1h1.1l1.2-0.1l3.2-1l6.2-0.6
		l3.2,0.4l2.9,0.5l1,0.5l0.2,0.3v0.5l-0.1,0.2l-0.4,0.6l-0.1,0.7l0.3,2.3l0.2,0.9l0.5,1.4l2.9,0.4l0.3,0.3l0.5,0.8l0.6,1.1l3.4,7.9
		v0.1l-0.1,0.3l-0.1,0.4l-0.3,0.9l-0.3,0.6l-0.9,0.5l-0.9,0.3l-2.1,0.8l-0.4,0.1h-0.9l-1-0.8l0.1,2.1l0.1,0.9l0.1,0.5l0.2,0.7
		l0.3,0.7l0.6,0.8l0.8,0.9l0.4-0.2l0.8-0.6h0.2h0.9l0.7,0.2l1,1.3l1.2,1.8l0.6,1l0.1,0.1v0.2l0.2,0.4l0.1,0.1l0.6,0.3l1.1,0.3
		l0.8,0.1h0.4l0.6-0.3l0.5-0.4l0.2-0.2l0.7-0.8l0.6-0.8l0.5-0.8l0.7-1.7l0.3-0.8l0.1-0.8l0.2-3.7l-0.1-1.6l-0.1-0.2l-0.2-0.5
		l-0.1-0.2l-0.4-0.3l-1.6,0.6l-0.5,0.2l-2.1-0.4l0.5-4.2l0.3-1.7l0.1-0.3l0.4-0.9l0.3-0.5l0.9-0.9l0.9-0.7l1.3-0.5l1.2,0.1l1.4,0.9
		l0.4,0.6l0.7,1.4l0.9,1.4l1.1,0.6l3.7,1.7h0.2l0.4-0.1h0.5l1.4,0.2l0.8,0.1l1.9,1.2l0.1,0.1l0.1,0.3l0.2,1v0.1l-0.2,0.2l-0.3,0.3
		l0.3,0.5l1.4,1.8v0.2L180,161l-0.4,0.5l0.2,0.2l0.3,0.2l1.8,0.2h0.2l2.6-2.7l0.1-0.5l-0.9-3.9l1.1-5l-0.1-0.1l-1.7-0.3l-5.4-0.3
		L176.9,149.4z M204.5,199.2l-0.3-0.6l-1.4-1.7l-0.7-0.5h-0.3l-1.1,0.7L196,197l-3.8-1.9L188,193l-6.5-0.8l-7.5-4.1l-0.3-0.9v-0.7
		v0.7l0.2,1.3l0.4,0.9l0.3,0.6l0.7,1.1l1.5,1.2l2.4,1.1l0.8,0.3l0.9,0.1l0.8,0.2l0.4,0.3l0.3,0.5l1.6,4.2l0.1,1.3l0.9,0.6l2,2.1
		l0.5,0.7l0.1,0.6l0.1,2.6l0.5,0.5l0.5,0.5l0.3,0.1l1.1-0.4l0.4-0.1h1.3l5.3,1.9l3.1,1.2l3.3-2.8l0.1-2l-0.4-4.8l-0.8-1.2l0.1-0.1
		l0.1-0.1l1-0.4L204.5,199.2z M137.6,131.3l-1-1.3l-0.1-0.1v-0.2l0.4-0.4l0.4-0.2l1.3-0.1h0.7l0.7,0.1l1.8,0.4l0.6,0.2l0.2,0.1
		l1.2,0.9l0.1,0.5h-0.2l-1.6-0.6l-3.8-1h-0.1l-0.1,0.1l-0.3,0.4L137.6,131.3z M146.9,134.5h-0.1l-0.3-0.1l-0.3-0.2L146,134l-0.1-0.2
		l-0.4-1.7v-0.4l0.7-0.9l0.4,0.4l0.4,2.1L146.9,134.5L146.9,134.5z M126.2,133.2l-0.5-0.1l-0.2-0.1l-0.2-0.4v-0.4l0.3-0.6l0.6-0.8
		l0.3-0.3l0.3-0.2l0.6-0.2h1.1h1.5l2.4,0.2l0.4,0.1l1.4,0.4l0.4,0.4l0.1,0.1h-0.1l-3.7,0.7l-3.7-0.2L126.2,133.2z M113.5,136h-0.2
		l-0.4-0.3l-0.1-0.9v-0.7l0.1-0.3l0.7-1l0.2-0.2l0.6-0.3l0.4-0.1h3.4l2.7,0.1l1,0.1l0.2,0.1l0.4,0.1l0.4,0.2l0.1,0.2v0.5v0.1l0,0
		l-0.8,0.1v-0.1l0.1-0.1v-0.1h-0.1l-2.1-0.1h-0.2l-1.6,0.1l-2.3,0.2l-0.3,0.1L113.5,136z M111.2,136.1l-1.4-0.1l-1.6-0.2l-1.4-0.3
		l-0.3-0.5v-0.1l0.1-0.1l1.5-0.6l0.3-0.1h0.3l2.1,0.5l0.1,0.1l0.3,1.1V136.1L111.2,136.1z M93.8,137.7l-0.6-0.5l-0.3-0.4l-0.1-0.2
		l0.1-0.2l0.3-0.2l0.4-0.2l1.4-0.6l0.9-0.2l0.5-0.1h7.1h1.1l0.5,0.1l0.3,0.1l0.2,0.5v0.1l-0.9,0.3l-0.6,0.2l-7.7,1l-2,0.2
		L93.8,137.7z M78.3,140.4h-0.6h-0.1l-0.3-0.1l-0.5-0.3l-0.1-0.2l0.1-0.1l0.3-0.1l2.1-0.2l6.9-0.7h3.1l0.9,0.2l0.1,0.2l0.1,0.1v0.3
		l-0.2,0.2l-0.1-0.2h-0.1l-1.5-0.1h-0.6h-0.7l-3.5,0.1l-4.7,0.7L78.3,140.4L78.3,140.4z M68.6,150.9l-0.5-1.1l-0.3-0.2h-0.5
		l-0.4,0.2l-0.1,0.1v0.3l0.1,0.3l0.1,0.1l0,0h-0.1l-0.6-0.1l-2.6-2.1l-0.4-0.7l-0.2-0.9l0.1-0.4l0.2-0.3l0.1-0.1l0.3-0.1l5.2-1.6
		h0.3l0.6,0.1l0.7,0.3l1.8,1.3l0.5,0.6l0.1,0.2l-5.3,1.5l1.3,1.1l0.7,0.8l-0.1,0.1l-0.6,0.4L68.6,150.9z"/>
	<path id="Mecklenburg-Vorpommern" class="st0" d="M322,114l4.6-3.1l3-1.8l1-0.4l0.4-0.1l2.2-0.5l0.7-0.1l4.9-0.2l0.3,0.2l0.4,0.4
		l3.4,3.8l-0.2,1.9v0.5l0.3,0.8l0.6,0.6l0.6,0.3l0.5,0.2l0.5-0.1l0.1-0.1l1.2-0.8l0.5-0.3l0.2-0.3l1.6-0.4l2.4,1l1.3,0.6l-0.1,0.9
		l0.1,0.2l0.6,0.5l1.3,0.8l0.8,0.4l1.5-2.5l0.3-1l0.6-5.6l0.9-1.8l0.1-0.2l0.4-0.4l1.8-1l0.9-0.3l0.3-0.2l0.5-0.4l0.2-0.2l2.8-4.3
		l0.1-1.2l-0.1-0.3l-0.6-1l-0.2-0.2h-0.2l-0.3,0.3l-1.3,1.3l-0.6,1l-0.8,1l-0.8,0.9l-1.7,2.1h-0.1l-0.1-0.1l-0.1-0.9v-0.5l0.1-0.5
		l0.6-1.2l1.7-2.4l7.6-6.2l0.2-0.1l0.5-0.1h0.6l3.4-0.1h0.2l0.6,0.3l0.7,0.2l1,0.2l1.2,0.1h1l0.9-0.1l0.6-0.1l1.3-0.4l7-2.8l4.1,0.6
		l2.9,0.4l1.5-3.4l2-3.8l0.3-0.5l1-0.9l1.6-1.1l3.5-2.2l1.1-0.7l0.5-0.4l0.5-0.4l0.6-0.6l0.5-0.6l0.6-0.9l4.2-7.9l2.7-5.4l2.2-3.8
		l1.8,1.4l0.8,0.4l0.5,0.1l4.1,0.5l3.6,0.4l7.3-0.2L440,61l1.3-0.2h1.8l1.3,0.1l0.1,0.1l0.1,0.1v0.2l-0.1,0.1l-2.6,1.7l-0.4,0.2
		l-1.9,0.5l-4.2,0.3l-2.9,0.1l-1-0.1h-0.1l-0.2-0.2l-0.4-0.7l-0.3-0.7l-0.3-0.1h-0.1l-1.5,0.1l-3.3,0.8l-3.1,1.9l-8.9,3.3l-0.9,0.8
		l-2.7,6.4l-0.3,1.9v2.5v0.1l2.2,1.5l1.1,0.4l1.2,0.1l1-0.2l0.4-0.2v-0.2l-0.3-0.2l-0.3-0.2l-1.2-0.3H413l-0.2-0.1l-0.6-1.2
		l-0.1-0.9l0.4-1l3.2-3.6l4.7-3.6l6-2.9l5.1,1l4.7,2.1l2-0.4l0.4-0.2l1.4-1.2l0,0.1l0.2-0.4l0.1-0.5v-1l0.6-1.5l0.1-0.1l1.4-1.2
		l0.2-0.2l3.8-1.4l2.2,0.2l4.1,6l-0.8,1.8l0.2,0.8l1.7,5.6l2.5,2.8l1.7-1l0.7-0.3h0.2l6.1,2.9l0.1,0.1l0.4,0.7l1.6,3.3l0.3,0.6
		l0.2,0.4l0.2,0.1h0.2l0.3,0.6h2.2l2.2,0.8v0.1l-1.7,1.5l0.1,0.7l0.2,0.2h0.3l0.5-0.3l0.2-0.2h0.2l1.2,0.8l0.1,0.1l0.1,0.3l0.7,1.4
		v0.9l0.1,0.3l1.1,1.8l0.4,0.3l0.4,0.2l1.5,0.3l0.2-0.1l0.2-0.2v-0.1l-0.1-0.2l-0.4-0.6l-0.5-0.7L477,93v-0.2l0.9-0.8l0.3-0.1
		L487,89l3.5-1.1l3.9,3.9l0.6,0.7l0.5,0.9l0.2,0.7v0.4v4.2l3.3,6.8l3.9,4.1l0.7,1l0.4,0.7l0.1,0.3v0.2l-0.4,0.6l-0.3,0.3l-0.1,0.1
		l-0.2-0.1h-0.4l-0.4,0.2l-0.3,0.3l-0.8,0.9l-1.8,2.1l-1.5,2.1l0.1,0.4l0.6,1.2l0.2,0.2l5.8,3.6l2.1,1.5l1.6,1.4l0.4,0.2l6.8,2.4
		l1.3,0.4l1,0.2l3.4,0.1h0.3l0.2-0.1l1.1-0.9l0.8-0.9l0.4-0.6l0.1-0.1h0.4l0.7,0.2l0.4,0.2l0.8,0.7l0.4,1.1l1.1,5.7l2,6.4l0.4,3.8
		l-0.4,2.8v0.1l0.3,1l0.7,2l0.8,2.1l0.2,0.1l1.6,2.3l0.4,2.2l1.2,4.9l2.5,7.3l0.3,0.7l-0.4-0.1h-0.3l-5,2.1l-0.2,0.9l-0.6,1.8
		l-2,2.8l-0.8,0.3l-2.5,0.4l-5.8-0.2l-1.1-0.1l0.2-1.2l0.1-0.5l0.5-0.8l1.6-1.9l0.7-0.7l1-1.1l1.1-1.3l0.8-1l1-1.6l0.4-1l0.1-0.5
		l0.5-2v-0.5l-0.2-2.8l-0.4-0.7l-0.7-0.5l-6.3-0.4l-0.7,1.4l-3.9,0.1l-2.7-0.4l-3.4,0.6l-0.6,0.3l-1.6-0.7l-1.5-3.2l-1-3.3l-5-5.8
		l-0.5,0.1l-0.4,0.6l-0.1,0.3l-0.3,1.9v0.3l0.2,1.4l1.4,1.2l-2.7,2.4l-2.7,0.2l-1.7,1.4l-1,0.9l-6.6,6.3l-0.2,0.5l-1.2,2.8l-0.5,1.6
		l0.2,1.3l0.3,1.8v0.1l-0.1,0.1l-2.1,2.9l-4.7,5l-0.7,0.3l-0.4-0.1l-1.1-1.6l-0.1-0.9l-0.1-0.2l-0.4-0.5l-0.2-0.1l-3.5-0.1l-1.1,0.5
		l-1.8,1.6l-0.4,0.5l-0.2,0.8l-0.1,1.2v0.5l-0.1,0.7l-0.5,0.9l-1.5-0.2l-0.2-0.2l-0.8-1.8l-0.2-0.6l-0.3-0.6l-1.9,0.3h-0.2l-2.3,1.1
		l-0.4,0.4l-7,7.6l-0.3,0.2h-0.2l-2.1-0.9l-0.1-0.1V191l0.3-0.4l0.9-0.7l1-0.6v-0.2l-0.2-0.5l0,0l-0.7-0.2l-7.3,0.2l-1.8,0.6
		l-0.1,0.1v0.1l-1.2,0.4l-0.8,0.3l-1.2-0.1l-0.4-0.7l-2.5-2.6l-3.4-3.2l-0.8-0.1l-7.7-0.7l-1.8,0.4v0.5l-0.2,0.2l-3.3,0.4l-2.5-2.8
		l-0.5-1.4l-1-0.8l-1.9-1l-0.7-0.4l-0.6-0.2l-0.6-0.4l-2-0.6l-3.9-3h-0.3l-5.5,1.1l-1.5,0.5l-1.7-0.2l-1.5-0.3l-2.1,3l0.2,1.8
		l-0.4,0.5l-3.7,2.7l-0.4,0.2l-5,1.8l-3.2,0.2l1.1,1.9l0.1,0.3v0.1l-0.2,0.2l-5.5,1.2l-0.6,0.1l-0.7-1.5l-1.7-1l-1-0.1h-2.7
		l-0.6,0.4l-3.9,3.5l0.7,4.1l-0.6,2.5l-0.3,1l-0.9,0.6l-1.5-0.1l-1.6-0.3l-0.6-0.3v-0.3l-0.8-0.6l-3.4,0.4l-2.8,2.2l-5.6-0.3
		l-0.2-0.3l-0.2-0.3l-0.9-1l-0.6-0.4l-0.6-0.3l-3.6-1.4l0.5-0.2l0.6-0.6l0.1-0.2l0.3-0.9v-0.4l-0.1-0.2l-0.8-0.4l-0.6-0.1l-0.9-0.2
		l-1.2-0.3l-2.9-2.1l-0.7-0.7l-1.1-1.6l-2.3-4.4l-2-4.9l-1.8-0.5l-2.6-0.7l-1.4,1.1l-0.4,0.8v0.1v0.3l-1.1,0.7l-1.1,0.7l-0.9,0.5
		l-2.7-1l-0.7-0.4l-1.1-1L314,178l-0.5-0.7l-1.2-1.5l-0.6-0.6l-1-0.8l-0.2-0.1l-0.2-0.1h-4l-1.1,0.1l-0.7,0.2l-0.7,0.4l1.8-8.1
		l0.6-1.3l1-0.6h0.5l0.6,0.3l1.4,0.3l3.8-2.9l0.3-0.3l1-1.1l2.1-2.5l6.6-8.7l0.4-2.4l1.4-1.9l-0.7-3.8l-1.3-1.4l-0.9-0.4l-1.1-0.2
		h-0.2l-0.2,0.1v0.2l-0.4,0.1l-1.3,0.1l-0.2-0.1l-1.5-0.9l-3.8-3.7l0.4-3.1l0.2-1.5l-0.1-0.5l-0.3-0.9l-0.2-0.4l-1-2.5V125l1.4-2.3
		l5.2-3.7l2.6,0.2l0.9-2.1L322,114z M463,36.3l-0.6,0.4l-1.8,1.4l-1.3,1.5l-0.2,0.3l-3,7.5l-0.1,0.2l-0.1,0.9h0.1l0.5-0.2l0.2-0.2
		l3-2.9l0.7-1.7l-0.2-0.6l-0.3-0.9v-0.1l0.1-0.1l1.7-2.3l1-0.3h0.1l0.2,0.4l0.2,1.2v0.3l-0.1,0.6l-0.3,1l-0.7,1.3l-0.3,0.4l-0.2,0.6
		l-0.4,2v1l2.8-1.3l2.1-1.2l6.8,2.8h0.2h0.1l1.9-0.2l1.9-0.8l0.1,5.2l-0.1,2.8l-0.1,0.1h-0.4h-1.7l-2.7-0.9l-0.7-0.3l-4-2.3
		l-0.2-0.3v-0.3l0.3-3.1l-3.1,0.1l-3.3,0.1l-1.1,0.3l-3.3,0.9l-0.9,0.5l0.6,2.7l0.5,0.9l2-0.1l1.6,0.1L463,56l-0.9,1.6l-0.2,0.1
		l-2.2,0.8l-1.2,0.2l-1.3,0.3l-1.2,2.6v0.5v0.1l0.3,0.2l5.3,1.2l0.7,0.1l-1.4,0.9l-5.9,2.9l-0.2,0.2l-0.1,0.4l-0.4,2.5v1l1.7,5V77
		l15.5,5.2l1.3-1l0.3-0.3l0.1-0.3v-0.1l-0.1-0.6l-0.4-0.9l-0.9-1h-0.1h-0.6l-0.2,0.2l-0.1,0.2l0.1,0.2v0.1l-0.6,0.6l-0.8,0.4h-0.4
		l-0.4-0.4v-1.2l4.2-4.4l3.3-3.2l1.1-0.8l0.3-0.1l10-1.2l0.4,0.1l1.4,2.3v0.1v0.5l-0.2,0.4l-0.1,0.1l-0.8,0.6h-0.1l-0.9,0.5v1.5
		l2.1-0.6l0.9-1.8l1.2-2.5L491,68l-1.8-2.9l-1.3-1l-1.3-0.9l-0.1,0.1l-0.2,0.1l-0.6,0.1l-1.2,0.1h-0.2l-0.3-0.2l-0.4-0.4l-1-1.2
		l-1.1-2.1l-0.3-0.7l-0.3-1.1l-0.1-1.5l0.1-0.6l0.2-0.3l0.2-0.2l0.1-0.1l1.6-1.8l2.1-1.8l0.6-0.3h0.2l0.6-0.4l0.6-1.2l0.1-1.1
		l-0.2-2.1l-0.4-0.5l-0.7-0.6l-1.4-0.9l-0.3-0.1h-0.5l-1.8,0.2h-0.4l-2.3,0.5l-0.3,0.1l-2,0.6l-2.9,0.5h-0.6l-1-0.3l-0.4-0.1
		l-0.5-0.3l-0.3-0.2l-0.8-0.8l-0.7-1l-0.5-1.1l-0.4-1.5l-0.1-0.9v-0.3l0.3-1l0.3-0.5l0.2-0.1l0.5-0.3l0.4-0.1h0.4l0.3-0.1l0.4-0.4
		l0.2-0.5l0.4-1.4v-0.1l-0.4-0.5l-0.2-0.3l-3,0.3l-4.5,1.3L463,36.3z M450.6,58.5l0.1,0.3h0.1l0.2-0.3l0.2-0.7l1.1-6.1l0.8-3.9
		l2.3-1.2l-3-1.1L450.5,56l-0.1,1v0.5l0.1,0.3L450.6,58.5z M455.4,60l4.3-2.3l0.5-0.4l0.1-0.1l-0.3-0.9l-0.3-0.3l-1.3-0.6l-0.2-0.1
		l-0.7-0.1l-0.7,0.2l-0.7,0.4l-0.8,1.1l-0.2,0.4l-1.1,2.5v0.7l0.1,0.2l0.1,0.1L455.4,60z M445.8,60.9h-0.1h-0.2l-0.2,0.1l-0.2,0.1
		l-0.1,0.1v0.1l0.3,0.3l0.2,0.2h0.7l3.2-1.1l0.7-0.6l0.4-0.4l-0.5-0.5l-0.2,0.1l-2.8,1.1l-0.4,0.4l-0.5,0.6L445.8,60.9z M497.1,86.9
		l-0.5-0.6l-0.2-0.2l-0.5-0.1h-0.3l-0.7,0.2l-0.7,0.4l-0.5,0.4l-0.1,0.2l-0.2,0.4v1.3l0.3,1.1l0.2,0.3l2,2.2l0.2,0.1l0.5,5l3.7,5.8
		l0.1,0.2l0.2,0.1h0.2l3.8-1.8l0,0l0.4-1.1v-0.1l-1.3-1.9l-0.4-1.6v-0.1l0.1-0.1l3.5,0.3l1.5,1.3l2.7,3l0.3,0.3l0.2,0.4l0.4,1.1
		l-0.1,5.1l-3.6-0.6l-0.7-1.5l-0.6-2l-0.2-0.1l-0.5-0.2l-0.7-0.1l-1.9,0.5l-0.1,0.1l-0.1,0.1l-0.4,0.8l-0.2,1.4v0.2l0.2,0.4l0.3,0.3
		l1.2,1.5l0.4,0.9l0.8,2.3v0.5l-0.4,1.1l-0.3,0.8l-0.2,0.2l-1.1,0.6l-1.3,0.7l-1.3,0.6l-0.4,0.1h-0.4h-0.3l-0.8,1.5l0.7,0.7l1.2,0.5
		l1.4,0.3l1-0.1l2.6-0.5l2.7-0.8l0.3-0.1l4.2-2.1l7.5-0.8h0.3h0.2l1.3-6l-3.9-3.2l-4.3-3.9l-5.1-4.8l-1.1-0.6l-1.5-0.8l-0.4-0.2
		l-0.4-0.1l-1-0.2l-1-0.4l-1.8-1l-0.5-0.3l-1.1-0.9l-1.1-1.1l-0.8-0.9l-0.2-0.4L497.1,86.9z M356.9,111l0.7-2.2l0.2-1.2l-0.1-0.5
		l-0.1-0.2l-0.3-0.1l-0.9-0.2l-1.1,0.2l-0.3,0.1l-0.5,0.2l-2.3,1.2l-1.5,1.1l-0.3,0.6l0.1,1l0.1,0.7l0.2,0.5l0.2,0.3l0.4,0.3
		l0.4,0.1l3.5,0.7L356.9,111z"/>
	<path id="Hessen" class="st0" d="M262.5,379.1l-0.2,0.9l0.1,1l0.6,2.2l1.4,3.4l1.2,1.5l3.4,1.2l1.9,0.8l0.9,2.9l4.6,2.3l1.7,0.6
		l0.8,0.5l0.6,0.5l1.3,1.3l1.2,0.3l0.3,0.6l-0.3,0.8l-0.6,0.4l-0.4,0.2l-0.3,0.3l-0.4,1.3v0.3l0.4,0.5h0.2v1.8v0.8l-0.2,0.2h-0.6
		l-0.4-0.7l0,0l-0.3-0.4l-0.4-1.3l-1.1-1.1l-2.6,0.6l-0.5,0.6l0.1,0.3l1.3,2.9l0.6,1.2l0.2,4.3l1.8,0.7l0.9,0.6l0.2,0.2l0.5,0.5
		l0.5,0.9l-0.2,0.5l-0.6,1.2l0.1,0.2l-0.5,0.7l-0.3,0.2l-0.5,0.2h-0.2l-0.2,0.2l-1.7,0.2l-0.4,0.1l-0.5-0.1l-0.3-0.2l-0.3-0.4
		l-1.3-0.7l-2.3-0.3l-1.4-0.1l-0.9,0.1l-0.3,0.1L269,417l-0.1,0.3l-0.6,1.3l1.5,4.8l1,5.9v0.8l-1.6,4.1l-0.7,1.2h-1.4l-1.6-0.2
		l-0.5,0.3l-1.1,0.9l-0.1,0.3l-0.4,1.8v0.6l0.4,0.7l0.1,1v0.5l-0.1,0.1l-0.3,0.1l-1.3,0.4l0.9,1.1l0.2,1.5v0.3l-0.5,1.2l-1.2,2.7
		l-1.4,1.7l-0.7,1l-0.3,0.4l-0.1,2.7l0.1,0.9l3.3,0.6l1.1,0.2l0.9-0.2l0.5-1.2l-1.2-1.5v-0.6l0.2-0.3l2.4-1l0.5-0.1l2.2,0.1l1.3,0.1
		l0.3,0.2l0.8,1.4l0.7,2.1l-1.8,1.5l-0.2,0.2l-0.4,0.6l-0.2,0.4l0.2,9.7v0.8l-0.3,1.6l-0.5,1.3l-0.9,1.4l-3.5,3.8l-1.6,0.9l-1.2,1
		l-1.2,0.7l-1.2,0.5l-1.5,0.2l-2.2-0.9l-0.8-0.6l-3.6,1l-0.3,1.6l-0.6,2.1l-0.2,0.3l-0.7,0.6l0.7,1l0.3,0.6l0.1,1.6l-0.1,1.1
		l-0.1,0.4l-0.4,0.8l-0.8,0.8l-1.6,1.5l-0.7,0.3h-0.1h-0.7l-1.7,0.6l-0.1,0.2l-0.3,0.5l-0.7,1.3l-0.9,2.4l-0.1,0.4l-0.1,0.1
		l-1.6,0.1h-0.8l-3.1-0.8l-1.1-0.4l-1.2,2.5l-0.4,3.4l0.7,4.1l0.2,1.2l0.4,1v0.8l-0.4,1.2l-5.1,0.9l-1.3,0.1h-0.2l-0.5-0.4l-1.9-4.3
		l-0.1-0.1l-0.3-0.1l-9.7-1.9l-13.5,3.7l-0.1,0.1l-0.5,0.6l-0.7,1.2l-0.5,2.5l-0.6,1.3l1.3,1.1l0.3-0.1h0.6l0.5,0.2l0.1,0.1l0.3,0.3
		l0.1,0.3l0.4,3.9l-1.6,0.9l0.3,0.5v0.2l0.4,3l0.1,2.9l0.1,2.1l0.4,3l0.1,0.2l0.7,1l-0.9-0.1l-0.2,0.1v0.6l0.1,1.4l0.1,0.4l0.3,0.3
		l4.4,4.4h0.4l0.8,0.2l0.2,0.1l0.2,0.1l1.2,5.3l-1.6,4.3l-0.5,0.2l-1.4,3.7l-0.8,7l0.9,1.6L207,565l0.1,0.1l-0.4,1l-0.1,0.2
		l-0.5,0.4l1.6,0.9l0.3,0.3l0.6,1.4v0.4l-0.3,0.4l-0.9,0.2l-1.5-1.7l-1.1-0.3l-5.6,1.8l-0.2,0.1l-1,0.7l-1.6,1.8l-0.4,0.7l-0.2,0.6
		l0.7,0.7l0.6,0.8l-6.5,5.9l-0.3,0.2h-0.1l-1.9-0.1l-0.5-0.1l-0.6-0.6L187,580l0.4-0.9l1.8-3.7l2.3-0.8l2.3-2.1l-0.2-1.2l0.2-0.6
		h-2.4l-6.5-1.3l-0.5-0.2l-2.3-1l-1.5-1l-1.9-7.6l0.4-0.2l0.1,0.2l0.4,0.2l0.1-0.1l0.5-1l-0.1-0.5l-1-0.2l-3.9,1l-1.7,0.5l-0.3,0.6
		v0.8l0.2,0.4l0.6-0.1l0.9,4.1v0.5l-0.1,0.5l-0.7,1.1l-1.7,1.4h-0.9l-0.3-0.1l-0.5-0.2l-0.9-0.7l-0.6-0.9l-0.4-1.2l-2-2.6l-1.5-1.3
		l-0.6-0.5l-1-0.1h-0.3l-0.3,0.1l-1,0.5l-0.2,0.1l-0.5-1.2l-1.6-2.4l-0.5-0.9l-1.6-5.1l-0.1-0.5l0.2-1l0.1-0.2l0.2-0.4l0.1-0.1
		l0.6-0.5l0.6-0.3l0.5-0.2l0.7-0.3l1.5-0.3l0.4-0.2l0.4-0.2l0.5-0.4l0.4-0.6l0.1-0.2l0.1-0.3l0.6-1l-0.3-2.3l-2.8-2.9l-0.5-1l-1-1.4
		l-0.3-0.5l-2.2-5.6l-0.2-0.8v-0.4l0.1-0.5l0.1-0.3l0.3-0.6l0.3-0.6l0.1-0.3v-0.5l-0.1-0.5l-0.6-1.9v-1l-0.5-1.2l-0.5-0.8l-0.4-0.6
		l-0.7-0.8l-1.3-1.2l-0.8-1.2l-0.4-0.6l-0.7-0.8l-1.2-1.1l-0.6-0.2l-1.9-0.4l-1.1-0.1l-0.9,0.1l-2.5,0.8l-4.1,1.9l-7,2.7l-0.3,0.1
		l-2,0.3l-3.3,0.1h-0.4l-0.3-0.1l-0.5-0.3l-5.4-7.6l-0.7-1.9l0.9-0.2l2-1.1l4.2-3.5l0.4,0.1l2.3,0.6l0.3-0.4l0.4-3l-0.1-0.4l-1-0.9
		l-0.8-0.6l-0.5-0.3l-0.4-0.5l-0.1-1.3l0.1-0.1l1.5-2l0.6-0.4l0.3-0.2l4.3-1.9l1.8,1.1l1,0.2h0.3l1.7-1.9l-0.1-0.2l-0.4-0.3
		l-1.7-1.6l-0.2-0.5l1-1.3l0.9-0.3l0.7,0.1l2.1,0.9l2-1.2v-1.9l-0.1-0.4l-0.7-2.2l-0.1-0.2l-0.2-0.4l-2.7-4.9l-5.3-3.5h-0.5l0.3-0.8
		l1.8-4.9l-0.7-1l-0.5-1.3v-0.3l0.5-2.4l0.5-1.1l2.4-2.8l0.4-0.1l0.6-0.2h0.3l1.2,0.5l0.5,1l1,0.3l1.1,0.2l0.8-0.1l0.2-0.4l0.8-1.9
		l0.3-0.7l0.7-1.8l0.4-1.2v-0.6l-1.2-0.7l-0.4-0.2l-0.1-0.3l-0.9-4.9v-0.9l0.1-0.5l0.1-0.4l0.9-1l0.7-1l2-3.7l0.1-0.3l-0.2-1
		l-0.8-1.1l-0.8-1.5l-0.4-0.8l-0.4-1l9.5-9.3l0.2-0.2h0.2h1l0.2,0.1l4.1,2.2l0.2,0.1l0.5-0.1l0.1-0.1l1.1-1.2l4.3-6.5l0.6-2.6
		l0.1-0.1l0.4-0.2l0.1-0.1h0.6l0.2,0.1l-0.3-0.4v-0.2l0.1-0.2l0.9-0.9l1.4-1.6l1-0.9l0.4-0.4l0.5-0.7l-0.4-0.9l-0.7-1.5l-1.1-3.3
		l-0.1-0.3v-0.2l0.4-0.6l0.5-0.5l0.8-0.6l0.1-0.1l1.3-0.5l0.1-0.1l2.8,0.2l1.7,0.3l0.8,0.3l1.1,0.3h0.4l3.2-1.2l2.8-6.2l0.3-0.7
		l0.1-0.4l-0.2-2l-0.8-6.4l-0.1-0.3l-0.9-1.2h-0.9l-0.7,0.1l-4.6,2.1l-1,0.7h-0.1h-0.8l-0.3-0.1l-0.2-0.2l-2.1-2.9l0.6-0.9l2.6-3.8
		l1.1-1.4l1.1-0.7l3-1.9l5-1.5l3.8-1l4.2-0.1l3.4,0.2l0.1-0.1l0.8-2.5l-0.2-1.4v-0.2l-0.3-0.2L199,373l-2.5-4.1l-0.2-0.7v-0.4
		l0.7-0.7l2.9-1.2l1.6-0.5l2.2-0.5l1.2-0.1l2.9,1.2l1.2,2l-0.7,1.8l0.6,1.6l0.2,0.2l0.3,0.2l0.6,0.2l2.8,0.2l0.6-0.1l0.6-1l0.6-1
		l4.3-3.5l4.5-3.5l3.2-5.3l3.8-4.6l1.3-2.2l3.3-0.7l0.3,0.1l0.1,0.2v0.4l-0.2,0.5l-0.2,0.8v0.3l0.3,0.4l0.7,0.4l0.7,0.1l3.2,0.1h1
		l3.4,1.7l0.1,0.1l1.4,1.6l0.7,0.6l0.8,0.5l0.2,0.2l0.2,0.4l-0.3,0.8l-0.1,0.2h-0.1l-0.7-0.2l-0.7,0.6l-0.6,0.8l-0.2,0.4l-1.5,0.3
		l-2.4,2.7l-0.1,0.3v0.1l0.1,0.2l2.1,3.5l0.6,0.6l0.4,1.6l0.8,4.3l-0.1,0.2l-0.7,1.1l-1.3-0.1l-1.6,0.3l-0.5,0.1l-1.1,1.7l-0.2,0.4
		l-0.5,2l-0.1,0.3l0.5,0.8l0.7,1.2l1.7,0.6l5.3,2.2l3.4,1.7l0.1,0.2l2.3-1.2l0.3-1.2l0.1-0.5l-0.1-1.4l-0.1-0.1h-0.5l-1.7,0.8
		l-1.8-2.8l1.1-1.5l4.4-3.7l0.4-0.3h0.2l3.2-0.5l3.1-0.4l0.3,0.2l1.3,2l0.3,0.6v1.2v0.1L262.5,379.1z"/>
	<path id="Hamburg" class="st0" d="M250.8,155.3l0.4-2.3l0.4-1.6l0.3-0.9l0.7-2.1l0.2-0.3h0.4l-0.1,0.5l0.1,0.7l1.7,2.1l1.1,1
		l0.5,0.2l0.8-0.4l3.5-4.4l0.4-0.6l0.3-0.6v-0.3l0.1-0.8l1.1-0.1h1.2l0.2,0.2l1,0.2l0.5,0.1h0.8l4.9-3.8l0.8-1.9l-0.5-0.6l1.4-0.9
		l4.3-2.1h0.3l0.2,0.1l1.3,0.7l-0.1,0.9l-0.6,1.4l0.1,4.7l0.8,0.9l1.6,2.2l-0.2,0.7v0.1l-1.3,2.7l-2.1,1.7l-0.7,0.6l-0.3,1.2
		l0.1,2.1l0.9,2.4l0.2,0.2l3.5,2.4l0.4,0.1l0.5-0.1l-0.1,0.6l0.2,0.8l3.7,4l0.5,1h-0.1l-0.2,0.1l-2.2,1.2l-0.4,0.2l-0.2,0.3
		l-0.2,0.3l-0.6,1.5l-0.2,0.3l-0.2,0.1l-0.4,0.1l-3.2-0.1l-0.4-0.1l-0.4-0.3l-2.5-2.4l-1.8-2l-0.4-0.5l-0.5-0.6l-1.8-1l-0.6,0.7
		l-0.6,1.3l-0.2,0.9l-2.8,2.1h-0.4l-1.6-1.3l-2.1-2l-0.7-0.9l-0.3-0.2l-0.3,0.2l-1.3,1.4l-0.8,0.6l-0.3,0.1l-3.4-3.5l-0.1-0.6
		l-1-2.2l-0.8-0.9l0.3-2.2v-2.8L250.8,155.3z"/>
	<path id="Bremen" class="st0" d="M178.4,158.2l0.6-0.4l0.2-0.5l0.1-0.3v-0.8l-0.1-0.3l-0.1-0.3l-2.1-3.8l-0.9-1.3l1-1.2l0.9-0.1
		l5.4,0.3l1.7,0.3l0.1,0.1l-1.1,5l0.9,3.9l-0.1,0.5l-2.6,2.7h-0.2l-1.8-0.2l-0.3-0.2l-0.2-0.2l0.4-0.5l0.1-0.2v-0.2l-1.4-1.8
		L178.4,158.2z M204.2,198.6l-1.4-1.7l-0.7-0.5h-0.3l-1.1,0.7L196,197l-3.8-1.9L188,193l-6.5-0.8l-7.5-4.1l-0.3-0.9v-0.7v0.7
		l0.2,1.3l0.4,0.9l0.3,0.6l0.7,1.1l1.6,1.2l2.4,1.1l0.8,0.3l0.9,0.1l0.8,0.2l0.4,0.3l0.3,0.5l1.6,4.2l0.1,1.3l0.9,0.6l2,2.1l0.5,0.7
		l0.1,0.6l0.1,2.6l0.5,0.5l0.5,0.5l0.3,0.1l1.1-0.4l0.4-0.1h1.3l5.3,1.9l3.1,1.2l3.3-2.8l0.1-2l-0.4-4.8l-0.8-1.2l0.1-0.1l0.1-0.1
		l1-0.4l1-0.4L204.2,198.6z"/>
	<path id="Brandenburg" class="st0" d="M537.3,170.3l-0.2,2.1l1.1,3.3h0.8l0.6,0.1l0.3,0.9l0.1,0.5l-1,2.2l-2.4,3.7l-0.5,0.2
		l-0.2,0.1l-0.3,2.1l-0.1,1v0.2l0.3,1.1l0.1,0.4l1,1.4l-0.3,2.6l-0.1,0.5l-0.5,3.2l-0.7,2.3l-0.6,1l-0.3,0.3l-3.3,3.4l-1.2,1.2
		l-1.7,1.4l-0.9,0.5l-0.8,0.3l-2.1,1.4l-1.5,1.4l-0.3,0.9v0.2l0.3,1.7l1.1,3.9l0.3,0.7l-0.1,1.3l-0.7,1.2l-0.8,1.1l-0.5,1.1v0.6
		l0.1,0.2l0.4,0.6l0.2,0.2l0.7,0.3l1.8,0.1l3.7,1.5l7.8,5.1l1.5,1.5l1.6,1.9l1.7,2l0.1,0.1l0.2,0.4l0.2,0.7l2.1,2l1,0.7l1.8,1.2
		l0.8,0.4l1.4,0.7l0.9,0.4l0.3,0.1l0.5,0.1l0.3,0.2l1.7,1.2l0.4,0.5l2.3,3l0.2,0.3l0.2,7.8l-0.1,0.7l-0.1,0.3l-1.7,3l-0.8,1
		l-1.6,1.1l-0.3,0.2l-0.3,0.4l-0.2,0.5l-0.1,0.5l-0.4,2.3l-0.1,0.8l1,1.6l0.3,0.6l0.3,2.7l1.5,5.6l0.1,0.3l0.2,0.2l0.9,1.1l0.2,0.2
		l0.4,0.2h0.7l0.3,0.1l4.7,1.2h0.1l0.3,0.2l0.2,0.3l1,1.4l0.1,0.2v0.2l-0.2,6.4l-0.1,0.4l-0.5,0.9l-0.8,1l-0.1,0.3v0.3l0.3,2.6
		l0.4,0.8l0.3,0.4l0.5,0.5l0.2,0.1l0.7,0.1l0.6,0.2l0.4,0.2l0.6,0.4l0.4,0.4l0.9,1.5v0.3l-0.4,3.3l-0.1,0.1l-0.4,0.7l-1.4,2.4
		l0.1,0.1l0.3,0.6l-0.2,6l-1,3.4l-2.9,4l-1.2,1l-1.7,1.8l-0.4,0.4v0.1v1.2l0.1,0.5l0.8,1.3l0.2,0.3l0.2,0.1l1,0.3l2.9,6.3l0.5,1.1
		l1.5,1.7l2.3,1.7l0.3,0.2l0.7,0.6l0.6,0.7l0.7,1.4l0.5,4.2l-0.8,2.7l-0.9,1.4l-1-0.8l-0.8,0.8l-0.7,2.3l-0.1,0.3l-0.2,0.2l-0.5,0.5
		l-0.2,0.1l-3.2,0.3l-0.5-0.1l-0.4-0.1l-0.1-0.2l-0.4-0.8l-0.1-0.7l-2.2-0.9l-6.9,2.5l-0.4,0.3l-0.1,0.4v0.4l0.1,0.5l-0.3-0.2
		l-3.4,0.4l-4.3,2.5l-2.9-1l-4-0.5l-3.1,0.1l-1.3-0.2l-0.4,0.1l-2.1,3.1l-1.5,4.4l-1.4,5.5l-2.7,3.5l-7.5,1.5l-0.3,0.1l-2.8-0.1
		l-1.6,0.6l-2.1,1l-0.8,0.6l-3.1-0.4l-0.5-0.1l-0.8-0.5l-0.3-0.4l-0.5,0.7l-3.3,0.1l-2,0.1h-0.4l-2.9-0.9l-4.9-3l-2.1-1.7l-2.3-2.1
		l-0.6-0.5l-4.5,2.4l-2.6,2.3v0.1l0.1,1.1l-1.7,0.5l-0.5,0.1l-2.3-0.1L472,372l-0.2-0.6l-1.5-1.8l0.8-3.7l0.2-5.2l-0.2-0.7l-0.2-0.7
		l-1.1-2.7l-1.9-4.1l-0.4-0.8l-2.6-1.4l-0.2,0.3l-0.3,0.3l-0.7,0.5l-0.6-0.3l-2.4-3.9l6.5-4.3l0.5-0.6l1.4-2.5v-0.1v-0.5l-0.5-0.9
		l-0.3-0.3l-0.5-0.4l-3.3-11.7v-0.3v-0.2l1.7-0.3v-0.6l-0.1-0.6l-0.7-0.7l-0.3-0.6h-0.9l0.1,0.7l-0.3,0.2l-2.1,0.8l-2.4-0.2h-0.2
		l-0.3-0.2l-3-3.1l-4.9-2.6l-1.1,0.4h-0.5l-2.4-0.6l-4.9-2.8l-0.5-1.4h-0.3l-1.8-0.9L438,312l-0.7-0.4l-2-0.9h-0.9l-0.4,0.6
		l-0.2,1.4L432,314l-0.8,0.1l-4-0.6l-7.2-2.8l-4.6-2.9l-1.7-1.9l-2.6-3.4l-2.1-3.2l-2.9-3.8l1.8-4.1l-0.2-4l0.3-2.5l0.1-0.5l0.6-1.8
		l1.2-2.6l0.1-0.2l0.2-0.1l1.2-2.4l-0.6-3.4l-0.4-2.9l-0.2-1.6l0.9-2.2l0.6-1l0.3-0.9l-0.4-3.3l-5.5-1.9l-0.2,0.9v0.1l-0.3,0.5
		l-1.1,0.3l-1.2,0.2l-0.9-1l-1.8-2.2l0,0v-0.8l1.8-7.1l0.9-1.6l0.4,0.1h0.4l1.6-1.2l0.4-3.7V244l-0.3-0.9l-1.2-1.8l-1.2-2v-0.1
		l0.4-4.4l0.3-1.1l0.7-1.3l1.5-0.7l0.2-1.8l-1.2-4.9l-0.1-0.3l-0.6-0.4l-1.5-0.7l-1.5,0.7l-0.9,0.5l-1.6,0.5l-0.8-2v-0.7l0.2-0.6
		l0.1-0.2l-0.7,0.7l-8.2,1l-0.3-0.1l-5.2-1.7l-3.6-1.5l-0.4-0.2l-0.2-0.2l-0.3-0.5l-0.1-0.5l0.1-0.2l0.2-0.4l0.5-0.6l0.5-0.5
		l0.1-0.2l0.1-0.3v-0.2v-0.3l-0.1-0.3l-0.2-0.3l-5.2-3l-0.2-0.1l-0.4-0.2l-0.4-0.1l-0.5-0.1h-0.2l-1,0.6l-0.7,0.5l-0.3,0.1l-0.5-0.1
		l-0.2-0.1l-3.6-2.8l-0.2-0.3l-0.1-0.3l-0.1-0.4l0.1-0.3l0.9-1.2l0.1-0.2v-0.2l-0.1-0.2l-0.2-0.2l-0.2-0.1l-0.2-0.1h-0.5h-0.3
		l-1.4,0.6h-0.6l-4.4-1.1l-0.6-0.2l-0.6-0.4l-1.2-1.2l-0.7-0.8l-0.4-0.3l-0.4-0.2H356h-0.4l-2,0.6l-0.4,0.1l-0.3,0.2l-1,0.8
		l-1.7,0.9h-0.5h-0.2l-0.3-0.2l-3-3.1l-1.1-1.4l-0.1-0.2v-0.3V199l5.6,0.3l2.8-2.2l3.4-0.4l0.8,0.6v0.3l0.6,0.3l1.6,0.3l1.5,0.1
		l0.9-0.6l0.3-1l0.6-2.5l-0.7-4.1l3.9-3.5l0.6-0.4h2.7l1,0.1l1.7,1l0.7,1.5l0.6-0.1l5.5-1.2l0.2-0.2v-0.1l-0.1-0.3l-1.1-1.9l3.2-0.2
		l5-1.8l0.4-0.2l3.7-2.7l0.4-0.5l-0.2-1.8l2.1-3l1.5,0.3l1.7,0.2l1.5-0.5l5.5-1.1h0.3l3.9,3l2,0.6l0.5,0.4l0.6,0.2l0.7,0.3l1.9,1
		l1,0.8l0.5,1.4l2.5,2.8l3.3-0.4l0.2-0.2v-0.5l1.8-0.4l7.7,0.7l0.8,0.1l3.4,3.2l2.5,2.6l0.4,0.7l1.2,0.1l0.8-0.3l1.2-0.4v-0.1
		l0.1-0.1l1.8-0.6l7.3-0.2l0.7,0.2l0,0l0.2,0.5v0.2l-1,0.6l-0.9,0.7L448,191v0.1l0.1,0.1l2.1,0.9h0.2l0.3-0.2l7-7.6l0.4-0.4l2.3-1.1
		h0.2l1.9-0.3l0.3,0.6l0.2,0.6l0.8,1.8l0.2,0.2l1.5,0.2l0.5-0.9l0.1-0.7v-0.5l0.1-1.2l0.2-0.8l0.4-0.5l1.8-1.6l1.1-0.5l3.5,0.1
		l0.2,0.1l0.4,0.5l0.1,0.2l0.1,0.9l1.1,1.6l0.4,0.1l0.7-0.3l4.7-5l2.1-2.9l0.1-0.1v-0.1l-0.3-1.8l-0.2-1.3l0.5-1.6l1.2-2.8l0.2-0.5
		l6.6-6.3l1-0.9l1.7-1.4l2.7-0.2l2.8-2.4l-1.4-1.2l-0.2-1.4v-0.3l0.3-1.9l0.1-0.3l0.4-0.6l0.5-0.1l5,5.8l1,3.3l1.5,3.1l1.6,0.7
		l0.6-0.3l3.4-0.6l2.7,0.4l3.9-0.1l0.7-1.4l6.3,0.4l0.7,0.5l0.4,0.7l0.2,2.8v0.5l-0.5,2l-0.1,0.5l-0.4,1l-1,1.6l-0.8,1l-1.1,1.3
		l-1,1.1l-0.7,0.7l-1.6,1.9l-0.5,0.8l-0.1,0.5l-0.2,1.2l1.1,0.1l5.8,0.2l2.5-0.4l0.8-0.3l2-2.8l0.6-1.8l0.2-0.9l5-2.1h0.3
		L537.3,170.3z M478.3,243.4l-0.6,1.1l-0.7,0.9l-0.5,0.4l-0.4,0.2l-0.4,0.1H475l-0.9-0.1l-1.1-0.2l-5.6,0.2l-1.1,2.2v0.1l0.1,0.3
		l0.5,0.6l0.4,0.3l0.1,0.1v0.1l-0.1,0.4l-1.1-0.1l-0.5-0.1l-1.2-0.5l-0.5-0.3l-0.5,0.1l-1.7,1.1v0.4l-0.4,6.2l0.1,0.6l1.6-0.3
		l1.6,1.1l-2.2,2.9l-0.4,0.3l-0.5,0.7l-0.3,0.5v1.5l0.5,0.5l0.4,0.7l-0.6,1l-0.5,0.5l-1,0.5l0.2,0.8l0.2,0.2l2.1,1.3l2,0.1l0.6-0.1
		l-0.5-0.1l0.1-0.6l2.2-1.4l1.6-0.6l0.2-0.1l1.2-0.1l3.4,0.7l1,1.3l1.9-1l2.9,2.9l2,0.1l-0.2-3.2v-0.2l0.1-0.1l1.6-0.8l0.7-0.3
		l0.5-0.2l0.8,1.9l3.8,1.2l7.1,2l1.3,0.3l1.6-0.5l0.4-0.7l0.1-0.4l-0.1-0.3h-0.2l-0.5-0.2V269l1.8-1.5l0.7-1.7l0.8-2.5l-1.5-1.6
		l-0.9-0.1l-2.5-1.7l-1.6-0.5l-0.8-3.2l-1.6-3.5l-3.6-3.8l-4.7-8.7l-0.9-0.5l-0.8,0.6l-0.6,0.8l-0.6,1.4l-0.4,1.2l-0.6,0.2l-1.1-0.6
		L478.3,243.4z"/>
	<path id="Berlin" class="st0" d="M478.6,242.3l0.5,0.5l1.1,0.6l0.6-0.2l0.4-1.2l0.6-1.4l0.6-0.8l0.8-0.6l0.9,0.5l4.7,8.7l3.6,3.8
		l1.6,3.5l0.8,3.2l1.6,0.5l2.5,1.7l0.9,0.1l1.5,1.6l-0.8,2.5l-0.7,1.7l-1.8,1.5v0.3l0.5,0.2h0.2l0.1,0.4l-0.1,0.4l-0.4,0.7l-1.6,0.5
		l-1.3-0.3l-7.1-2l-3.8-1.2l-0.8-1.9l-0.5,0.2l-0.7,0.3l-1.6,0.8l-0.1,0.1v0.2l0.2,3.2l-2-0.1l-2.9-2.9l-1.9,1l-1-1.3l-3.4-0.7
		l-1.2,0.1l-0.2,0.1l-1.6,0.6l-2.2,1.4l-0.1,0.6l0.5,0.1l-0.6,0.1l-2-0.1l-2.1-1.3l-0.2-0.2l-0.2-0.8l1-0.5l0.5-0.5l0.6-1l-0.4-0.7
		l-0.5-0.5v-1.5l0.3-0.5l0.5-0.7l0.4-0.3l2.2-2.9l-1.6-1.1l-1.6,0.3l-0.1-0.6l0.4-6.2v-0.4l1.7-1.1l0.5-0.1l0.5,0.3l1.2,0.5l0.5,0.1
		l1.1,0.1l0.1-0.4v-0.1l-0.1-0.1l-0.4-0.3l-0.5-0.6l-0.1-0.3v-0.1l1.1-2.2l5.6-0.2l1.1,0.2l0.9,0.1h0.7l0.4-0.1l0.4-0.2l0.5-0.4
		l0.7-0.9L478.6,242.3z"/>
	<path id="Bayern" class="st0" d="M393.1,475l0.9,0.2l0.7,0.6l2.6,2.6v0.4l-0.2,1.7l-0.3,1.8l0.4,0.3l1.2,0.2l4.5,1.3l2,0.8l0.5,0.6
		l1.5,1.5l1.2,2.7l-0.1,0.2l-0.1,0.1l-0.7,0.6l-0.9,0.2l-0.4,0.4l-1,1.2l0.1,0.3l1.3,1.1l3.3,1.7l0.3,0.2l1.1,1.2l1.4,1.7l1,2.1
		l-0.1,0.4l-0.2,0.6l-0.7,0.7l-0.3,1v0.5l0.2,1.6l0.2,1.2l0.1,0.2l0.5,0.6l0.1,0.1l0.7-0.2l0.5,0.1l1,0.8l1.5,1.6l-0.3,2.1l3.9,0.6
		l3.3,3.4l4.1,2.4h1.7l1,0.2l1.4,0.8l0.6,0.9l2.8,4.8l-0.1,3.5l-0.3,0.3l-0.6,0.7l-2.2,4.2l-0.6,1.7l-0.3,3.4l-0.2,0.7l-4.3,3v0.3
		v0.2l0.4,1.4l0.5,0.8l1.9,2.7l0.2,0.2l0.2,0.1l0.5,0.1l4.5,1.3l0.2,0.1l0.4,1.6l0.8,5.3l2.7,5.9l1,1.4l0.4,0.3l-0.3,0.4l0.9,0.6
		l1.2,0.4l0.5,0.1l0.1-0.4l0.1-0.1h0.3l0.3,0.5l0.1,0.2l0.1,1.4l0.1,2.1v0.6v0.1l-0.6,0.8l1.7,2.6l6.8,5.4l0.3,1.3l-0.2,0.7l1.5,2.8
		l0.5,0.3l1.1,0.4l5,0.7h0.7l0.1-0.1l-0.2-0.6l-0.4-0.5l-0.1-0.7l0.6-0.1l0.8,0.1l3,0.5l0.3,0.1l1.5,0.9l2.1,1.9l2,2.6l5.8,7.8
		l0.9,1.2l1.7,1.5l0.9,0.7l0.3,0.1h0.4l0.1,3l0.9,0.9l1.1,0.7l0.9,0.5l1.7,0.7l0.6-0.2l0.7-0.3l1.4-0.3h0.4l0.5,0.2l2.5,1.8l1.4,1.1
		l3.2,3.6l0.6,0.9l0.7,2.3l1,4.3l1.1,0.7l4.4,2.9h0.2l0.6-0.1v-0.9l-0.1-0.4l-0.1-0.5v-0.9l1.5-0.6l3.4,0.1l0.3,0.2l0.2,0.2l2.5,2.8
		l1.1,1.3l0.8,1.7l0.7,1.5l1.1,1.3l0.3,0.1h0.9l1.9-0.1l0.3-0.2l0.4-0.4h0.6l5.8,8.5l1.3,2.7l-0.6,2.2L526,644l-0.9,1.6l1.3,2.3
		l1.2,5.7v1.6l-1.3,4.5l-4.6,6.5l-0.2,0.2l-1.4-0.4l-2.9-1.5l-0.3-0.2l-5-3.2l-5.4-2l-0.4,1.6l-0.2,0.3l-0.8,0.9l-1.1,0.9l-0.5,0.2
		l-2,0.6l0.8,0.9l0.1,0.1l0.7,2.7v0.2l-1.3,3.9l-0.3,0.5l-0.3,1v0.4v0.2l0.8,1.2l0.1,0.5v0.3l-0.1,0.4l-1.3,5l-0.2,0.5l-0.2,0.3
		L500,682l-5.1,5.2l-0.5,0.4l-3.9,2.6l-0.4,0.2l-0.5,0.1l-5,0.1l-2.8,1.6l-0.5,0.2l-0.7,0.1h-1.2h-0.6l-0.6,0.1l-3.9,2.1l-0.3,0.2
		l-0.3,0.3l-0.2,0.3l-0.3,0.7l-0.2,0.4l-2.3,2.7l-0.4,0.3l-0.4,0.2l-0.4,0.2l-0.3,0.1l-1.9,0.1l-2.9,0.5l-0.2,0.1l-0.3,0.2l-0.2,0.3
		v0.2v0.7l-0.1,0.3l-1,2.1l-0.9,1.1l-0.2,0.2l-2.2,1.7l-2.6,2.1l-0.5,0.6l-0.1,0.2v0.3l0.3,1.8l0.2,0.8l0.3,0.7l0.6,0.8l2.9,2.4
		l2,1.6l0.8,0.8l0.4,0.5l0.3,0.5l0.1,0.3l0.9,3.6l0.2,0.5l0.3,0.3l2.4,0.4l0.5,0.2l0.2,0.2l0.9,1.3l2.3,3.5l2.8,5.1l0.2,0.5l0.1,0.5
		l-0.1,0.3l-2.6,4.6l-3.7,7.5v0.2l0.1,0.2l0.5,0.6l0.9,0.6l3.3,0.3l1-0.1l0.3-0.1l0.7-0.5l0.2-0.2l0.1-0.2l-0.1-0.1l0.2-0.4l0.2-0.1
		h0.5l2,1l0.3,0.2l1.5,1.9l2.1,5.3l0.1,0.5L482,759l-0.3,0.3l-1.3,1.5l-1.8,2.9l-0.1,0.7l-0.6,4.5v0.1l0.1,0.2l0.3,0.3l0.3,0.1
		l0.3,0.2l0.1,0.3l0.1,2.3v0.7l-2.7,3l-0.2,0.1l-0.2-0.1l-2.6-1.1l-0.8-0.4l-2.9-1.6l-7.7-5.2l-0.7-0.7l-0.8-1.2l-0.3-1l0.1-0.4
		l0.7-1.9l1-1l-2.7-5.6l-1.5-0.4l-3.9-1.1h-0.8h-0.4l-0.8,0.2l-3.9,0.9l-0.3,0.1l-0.5,0.7l-0.9,1.9l-4.8,2.5l-0.9,0.1l-2.4-2.5
		l-1.8-2.4l-0.1-0.3l-5.2-0.6l-1.8-0.7l-0.2-0.2l0.2-0.5l-4.8,1.8l-1.2-3.6l0.4-0.6l0.4-1.1l-0.1-0.5l-0.4-0.6l-0.5,0.2l-4.3,4.2
		l-0.1,3.5l1.2,2.5l0.3,1l0.5,1.9v0.2l-0.1,0.3l-0.1,0.2l-0.2,0.1l-1.4,0.3l-3.7-0.1l-3.3-0.3l-1.5-0.9l-2.8,0.8l-3.6-0.4l-3.9,0.5
		l-3.2,1.2l-1.2,2l-0.2,0.1l-1-0.1l-2.8-0.5H382l-1.2-0.2l-1.8,1.1l-0.1,0.1l-1.1,2.5l-0.1,1.1v0.2v0.2l0.1,0.3l0.1,1.4l-1.1,1.1
		l-0.2,0.1l-4.4,1l-3.5-0.3l-0.7-0.2l-0.5-0.6l-0.2,0.1l-0.2,0.2l-1.4,1.6l-0.2,0.4l-1.7,2l-5.5,4.9l-0.6,1l-0.2,0.4l-0.3,1
		l-0.4,0.5l-0.8,0.5l-0.2,0.1l-2.9,0.3h-0.2l-0.2-0.2l0.1-0.4l1.1-1.9l0.9-0.8l-0.2-0.4l-0.1-0.1l-3-0.1l-3.4,1.3l-0.4,0.2l-1.3,0.7
		l-3.5,1.7l-5.3,0.3h-0.7l-1.2-0.2l-0.6-0.3l-0.1-1.2l0.1-0.5l0.1-0.1l0.6-0.1l0.3-0.3l-0.1-0.9l-1.6-1.9l-2.3-2.4l-3.3-0.7h-0.2
		l-0.5-0.2l-0.1-0.4l0.1-1.4l0.4-0.4l2-1.5l-1.4-2l-2.2,0.3l-3.9,1.5l-2.4-0.5l-4.9-2l-0.2-0.6v-0.3l0.1-0.2l-0.1-0.3l-5.1-0.8
		l-1.2-0.1l-0.8,0.9l-0.5,0.9v0.2L307,773h-0.3l-3.1-0.1l-2.5-0.5l-2-1.3l-0.5-0.3l0.4-0.6l0.6-0.8l0.2-1v-0.8h-0.3l-2.2,0.3h-0.1
		l-0.4,0.7l0.1,7.6l0.7,1.8l0.2,0.2l0.2,0.1l0.4-0.2l0.7,0.3l0.5,0.5l0.1,0.8l0.3,3.9l-4,5.4l-4.8,6.2l-1.5,1.4l-3,1.8l-2.8,1
		l-4.5,0.8h-0.3l-0.1-0.4v-0.5l0.2-0.9l0.2-0.8l2.6-6.1l0.6-0.8l0.7-1v-0.1l-0.1-0.9l-0.5-0.7l-0.2-0.1l-3.2-0.3l-0.9,0.7v1.1v0.4
		l-0.3,0.3l-4.6,1.5l-1.6-5l0.5-1.1l0.6-0.3l0.1-0.1l0.7-1.1l-0.9-1.6l-0.9-1.2l-1.9-2.2l-2.1-0.8l-0.9,0.2h-0.5l-0.1-0.1l-0.4-0.4
		l-2.1-3.6v-1.1v-0.7l0.2-0.8l-0.2,0.2l-2.2,1.2l-0.8,0.3l-3.4,0.1l-4.1-1.9v-0.2l0.1-0.4l0.1-0.1h0.1l0.2-0.2l0.2-0.3l0.1-1.9
		l-0.3-0.8l-1.5-0.9h-0.1l-1.6,0.1l-0.8,0.6l-0.6,0.9l-2.5,3.4l-3.8-1.2l-3.2-1.3l-0.9-0.6l-0.3-0.8l2.7-2l1.2-0.8l2.4,0.2l0.1,0.4
		l0.1,0.2l0.3,0.2l0.4,0.1l3.1-0.1l5.5-5.6l0.1-0.1l4.8-0.3l5.5-0.1l0.3-0.5l1.1-1.3l0.2-0.2l0.2-0.1l1.3-0.2l2.6,0.5l0,0l0.3,0.6
		v0.1l0.9,3.6l-0.1-0.3l0.4-1.2l0.4-0.4l0.6-0.8l0.4-0.3l0.7,0.1h0.2l1.1-1l0.7-2.2v-0.6l-2.5-6.2l-0.1-3.7h1l1.3-1.2l-0.3-0.8
		l-0.4-0.3l-0.5-0.6l-0.5-1.1l-0.5-2.5l-0.1-3.5v-0.4v-0.3l0.2-1.8l0.4-1.4l-0.8-0.5l-0.3-0.3l-0.2-0.3l-0.2-0.4l-0.1-0.6v-0.6
		l0.1-0.5l0.1-0.2l0.2-0.2l0.3-0.2l0.7-0.2l0.7-0.1l0.1-1l0.2-1.9l0.4-0.7l0.6-0.6l0.2-0.7l0.3-2.4l-0.1-3l-0.2-3.4l-0.8-0.7
		l-0.9-0.9l-0.1-0.1l-0.2-0.6l-0.9-2.8v-0.5l-0.3-0.7l-0.3-1.8l-0.1-0.8l-1.2-8.8l-1-0.9l-2.9-4.5l-0.8-1.5l-0.4-2l1.5-3.5l0.1-0.2
		l1.2-2.2l0.3-1.7l-0.2-0.7l-0.3-0.5l1.6-0.1l3.3-1.9l0.9,0.7l1.1,1.4l2.3-0.5l4.7-4.2l-0.2-0.6l-0.2-0.5l1.6-0.8l0.2-0.1l0.5-0.1
		l0.9,0.4h0.6l0.7-0.1l1.1-0.6l0.1-3.9l-0.1-0.6l-1-5.7l-1.3-1.8l-1.2-1.6l-0.6-0.8l0.1-1.3l0.1-0.2l0.9-2.4l4,1.3l0.6,0.2l4.8-1
		l1.6-0.1l0.3,0.3l0.1,0.2l0.1,0.3l-1,2.2l-0.4,0.3l-0.1,0.2l0.1,0.2l0,0h1l2.2-0.7l1.5-1.6l0.3-0.4l-0.3-0.6h-0.2l-0.6-0.6
		l-0.7-2.6l-0.1-0.9l-2.5-0.8h-0.2l-0.3-3.3l0.7-0.3l1.2-3.1v-0.1l0.3-5.1l0.1-6.2l-0.4-1.9l-0.5-0.6l-0.1-0.1l-1.3-1.3l-0.7-2
		l-0.1-0.3l-6.1-4.5l-4.2-1.8l-0.2-1v-0.7h0.1l0.4-0.2l-1.3-6.7l-2.1-3.8l-1.7-0.7l-1.5-0.8l-2.6-1.8l-0.3-0.3v-0.2l0.2-6.2l1-2.7
		l-0.5-0.9l-2-4.3l-0.1-0.3v-0.3l0.3-3.5l0.3-0.6l2.3-0.1l0.7-0.3l0.3-0.5l0.1-0.2l-0.6-1.7l-1.1-2.3l-1.2-3.9l-0.1-0.1l-1-1.3
		l-0.1-0.6v-0.2l0.2-0.5l0.4-0.4l-0.3-1.4l-0.8-1.8l-0.7-1.1l-1.1-0.2l-0.3,0.1l-1.5,1.4l-0.1,0.1l0.2,0.3l0.7,0.6l0.6,0.1l-0.5,0.9
		l-0.2,0.2l-2.2,2.4l-0.4,0.1l-4.1,0.3l-1.5-0.4l-0.2-0.1l-0.8-0.8l0.1-0.7l0.4-0.4l0.2-0.4v-0.1l0.2-4.2l-0.2-1.1v-0.1l-0.7-2.2
		l-0.1-0.3l-0.3-0.1h-0.5l-0.3,0.1l-1.7-2.7l-0.2-1l-2.4-8.4l-0.7-0.7l-1.7-1.7l-1.1,0.4l-4.2,1.4l-2.7,1.5l-0.9,0.4l-0.5,0.1
		l-1.4-0.8l-0.5-0.7l0.4-1.4l0.1-0.1l0.6-0.3l0.1-0.3l0.6-6l-0.1-1l-1.2,0.6l-4.3,4.1l-0.1,0.1h-0.2l-0.3-0.1l-2.6-1.7l-0.3-0.2
		l-0.2-0.4l-0.1-0.2v-0.4l0.2-0.6v-0.3l-0.1-0.2l-0.3-0.3l-0.2-0.2l-0.2-0.1l-1.3,0.1l-0.2,0.2l-0.4,0.5l-0.7,1l-1.2-0.5l-5.6,0.3
		l-2.3,0.3l-0.4,0.1l-0.3,0.1l-0.1,0.2v0.6l0.5,1.9l1.5,2.5l0.9,1.3l0.6,0.1l0.7-0.1l0.3-0.1v-1.6l-0.1-0.5l0.4-0.6l0.9,0.2l1,1.8
		l0.4,1.7l-0.8,3.3l0.5,0.5l-0.2,0.5l-0.7,0.8l-1.5,0.3l-2.3-0.7l-3-0.4l-1.3,1.8l-0.7,1.1l0.6,0.8l0.1,0.2l-2.4,3.1l-0.6,0.3
		l-1.2,0.4l-0.6,0.1l-1.3,0.2h-4.9h-0.2l-1-0.4l-0.9-1.6l0.8-7l1.4-3.7l0.5-0.2l1.6-4.3l-1.2-5.3l-0.2-0.1l-0.2-0.1l-0.8-0.2h-0.4
		l-4.4-4.4l-0.3-0.3l-0.1-0.4l-0.1-1.4v-0.6l0.2-0.1l0.9,0.1l-0.7-0.9l-0.1-0.2l-0.4-3l-0.1-2.1l-0.1-2.9l-0.4-3v-0.2l-0.3-0.5
		l1.6-0.9l-0.4-3.9l-0.1-0.3l-0.3-0.3l-0.1-0.1l-0.5-0.2h-0.6l-0.3,0.1L200,514l0.6-1.3l0.5-2.5l0.7-1.2l0.5-0.6l0.1-0.1l13.5-3.7
		l9.7,1.9l0.3,0.1l0.1,0.1l1.9,4.3l0.5,0.4h0.2l1.3-0.1l5.1-0.9l0.4-1.2v-0.8l-0.4-1l-0.2-1.2l-0.7-4.1l0.4-3.4l1.2-2.5l1.1,0.4
		l3.1,0.8h0.8l1.6-0.1l0.1-0.1l0.1-0.4l0.9-2.4l0.7-1.3l0.3-0.5l0.1-0.2l1.7-0.6h0.7h0.1l0.7-0.3l1.6-1.5l0.8-0.8l0.4-0.8l0.1-0.4
		l0.1-1.1l-0.1-1.6l-0.3-0.6l-0.7-1l0.7-0.6l0.2-0.3l0.6-2.1l0.4-1.6l3.6-1l0.8,0.6l2.2,0.9l1.5-0.2l1.2-0.5l1.2-0.7l1.2-1l1.6-0.9
		l3.5-3.8l0.9-1.4l0.5-1.3l0.3-1.6v-0.8l0.3-0.1l0.4-0.2l1-1l1.8-2l6.6-0.7l0.5,0.1l1.8,2.4l1.5,2l4.7,2l0.5,0.4l0.5,0.5l2.4,5.1
		l0.4,2.4v0.6l0.5,0.8h0.2l1.9,0.2l0.9-0.4l0.9-0.4l0.3,1l0.3,1.2l2.3,2.5l4,1.5l3,0.7l-0.3,2.8l-0.3,3.6l0.7,2.9l0.4,1.2l0.2,0.4
		l1.8,0.4l5.2,1.9h0.3l0.2-0.1l0.4-0.8l-0.1-1.8l-0.1-0.1v-1.7l0.1-0.2l0.3-0.2l0.6,0.1l2.4,0.6l2.8,0.6h0.3l0.7-0.2l0.7-0.5
		l0.1-0.2l0.2-0.6l-0.1-1.4l-0.4-0.5l-0.6-0.3l-1.3-0.4l-0.6-0.1l-0.2-0.1l-5.5-3.9l-0.4-0.3l-0.1-0.4l-0.2-3.1l0.2-0.9l7.5-3.1h6.6
		h0.2h0.2l0.6,0.6l1.1,2l1.3,1.5l3.6,0.6l0.4,0.1l1.4-0.5l1.2-0.5l0.4-1.2l0.1-0.1l0.8-0.2h0.9l1.6,1.4l1.4,2.4v0.6l-0.4,0.1
		l-0.6,0.4l-0.3,0.3l-0.4,0.5l-0.1,0.6l0.1,0.5v0.1l0.7,1l2.2,2.1h0.8l0.1-0.1l0.9-1.9l3.1-0.5l2-6.9v-0.1l-1.2-7.6L350,474
		l-0.4-0.2l-0.7-0.5l-0.1-2.1V471l0.1-0.6l0.2-0.3l0.4-0.1l0.5,0.1l0.1,0.2l1.5-0.7l2.2-1.8l0.2-0.8l1.1-1.2l0.2-0.1l1.6-0.2
		l3.5,0.7l0.3,0.2l0.3,0.5l0.6,0.8v0.1l-0.3,0.7l-0.1,0.1h-0.4l-0.4,0.7l-0.1,1.6v2.1l0.1,0.6l0.1,0.2l2,1.2l1.8-0.2l0.6,2.2
		l0.7,1.2l1.7,1.9l0.6,0.3l1.9-0.6l0.4-0.4v-0.2l0.2-0.8l0.2-0.3l0.2-0.1l1.3-0.3l0.4,0.2l0.3,0.2l0.4,0.5l0.6,0.5l0.3,0.2h0.2
		l12.5-1.7l4.1-1.5L393.1,475z"/>
	<path id="Baden__x26__Württemberg" class="st0" d="M207.3,563.1l1,0.4h0.2h4.9l1.3-0.2l0.6-0.1l1.2-0.4l0.6-0.3l2.4-3.1l-0.1-0.2
		l-0.6-0.8l0.7-1.1l1.3-1.8l3,0.4l2.3,0.7l1.5-0.3l0.7-0.8l0.2-0.5l-0.5-0.5l0.8-3.3l-0.4-1.7l-1-1.8l-0.9-0.2l-0.4,0.6l0.1,0.5v1.6
		l-0.3,0.1l-0.7,0.1l-0.6-0.1l-0.9-1.3l-1.5-2.5l-0.5-1.9V544l0.1-0.2l0.3-0.1l0.4-0.1l2.3-0.3l5.5-0.3l1.2,0.5l0.7-1l0.4-0.5
		l0.2-0.2l1.3-0.1l0.2,0.1l0.2,0.2l0.3,0.3l0.1,0.2v0.3l-0.2,0.6v0.4l0.1,0.2l0.2,0.4l0.3,0.2l2.6,1.7l0.3,0.1h0.2l0.1-0.1l4.3-4.1
		l1.2-0.6l0.1,1l-0.6,6l-0.1,0.3l-0.6,0.3l-0.1,0.1l-0.4,1.4l0.5,0.7l1.4,0.8l0.5-0.1l0.9-0.4l2.7-1.5l4.2-1.4l1.1-0.4l1.7,1.7
		l0.7,0.7l2.4,8.4l0.2,1l1.7,2.7l0.3-0.1h0.5l0.3,0.1l0.1,0.3l0.7,2.2v0.1l0.2,1.1l-0.2,4.2v0.1l-0.2,0.4l-0.4,0.4l-0.1,0.7l0.8,0.8
		l0.2,0.1l1.5,0.4l4.1-0.3l0.4-0.1l2.2-2.4l0.2-0.2l0.5-0.9l-0.6-0.2l-0.7-0.6l-0.2-0.3l0.1-0.1l1.5-1.4l0.3-0.1l1.1,0.2l0.7,1.1
		l0.8,1.8l0.3,1.4l-0.4,0.4l-0.2,0.5v0.2l0.1,0.6l1,1.3l0.1,0.1l1.2,3.9l1.1,2.3l0.6,1.7l-0.1,0.2l-0.3,0.5l-0.7,0.3l-2.3,0.1
		l-0.3,0.6l-0.3,3.5v0.3l0.1,0.3l2,4.3l0.5,0.9l-1,2.7l-0.2,6.2v0.2l0.3,0.3l2.6,1.8l1.5,0.8l1.7,0.7l2.1,3.7l1.3,6.7l-0.4,0.2H284
		v0.7l0.2,1l4.2,1.8l6,4.5l0.1,0.4l0.7,2l1.3,1.3l0.1,0.1l0.5,0.6l0.4,1.9l-0.1,6.2l-0.3,5.1v0.1l-1.2,3.1l-0.7,0.3l0.3,3.3h0.2
		l2.5,0.8l0.1,0.9l0.7,2.6l0.6,0.6h0.2l0.3,0.6l-0.3,0.4l-1.5,1.6l-2.2,0.7h-1l0,0l-0.1-0.2l0.1-0.2l0.4-0.3l1-2.2l-0.1-0.3
		l-0.1-0.2l-0.3-0.3l-1.6,0.1l-4.8,1l-0.6-0.2l-4-1.3l-0.9,2.4l-0.1,0.2l-0.1,1.3l0.6,0.8l1.2,1.7l1.3,1.8l1,5.7l0.1,0.6l-0.1,3.9
		l-1.1,0.6l-0.7,0.1h-0.6l-0.9-0.4l-0.5,0.1l-0.2,0.1l-1.6,0.8l0.2,0.5l0.2,0.6l-4.7,4.2l-2.3,0.5l-1.1-1.4l-0.9-0.7l-3.3,1.9
		l-1.6,0.1l0.3,0.5l0.2,0.7l-0.3,1.7l-1.2,2.2l-0.1,0.2l-1.5,3.5l0.4,2l0.8,1.5l2.9,4.5l1,0.9l1.2,8.9l0.1,0.8l0.3,1.8l0.3,0.7v0.5
		l0.9,2.8l0.2,0.6l0.1,0.1l0.9,0.9l0.8,0.7l0.2,3.4l0.1,3l-0.3,2.4l-0.2,0.7l-0.6,0.6l-0.4,0.7l-0.2,1.9l-0.1,1l-0.7,0.1l-0.7,0.2
		l-0.3,0.2l-0.2,0.2l-0.1,0.2l-0.1,0.5v0.6l0.1,0.6l0.2,0.4l0.2,0.3l0.3,0.3l0.8,0.5l-0.4,1.4l-0.2,1.8v0.3v0.4l0.1,3.5l0.5,2.5
		l0.5,1.1l0.5,0.6l0.4,0.3l0.3,0.8l-1.3,1.2h-1l0.1,3.7l2.5,6.2v0.6l-0.7,2.2l-1.1,1h-0.3l-0.7-0.1l-0.4,0.3l-0.6,0.8l-0.2,0.4
		l-0.4,1.2l0.1,0.3l-0.9-3.5V759l-0.3-0.6l0,0l-2.6-0.5l-1.3,0.2l-0.2,0.1l-0.2,0.2l-1.1,1.3l-0.3,0.5l-5.4,0.1l-4.8,0.3l-0.1,0.1
		l-5.4,5.6l-3.1,0.1l-0.4-0.1l-0.3-0.2l-0.1-0.2l-0.1-0.4l-2.4-0.2l-1.2,0.8l-2.7,2h-2.1l-0.8-0.1l-0.3-0.2l-0.3-0.2l-1.4-1.6
		l-0.8-1.9l-0.1-0.9l-0.4-0.8l-0.7-0.9l-0.6-0.5l-4.9-1.6l-1-0.3h-0.6l-0.4,0.1l-1.3,0.2h-0.2l-0.5,0.3l-0.5,0.2h-0.4l-0.3-0.1
		l-0.9-0.5l-2-1.1l-2.7-1.8l-1-0.9l-0.8-0.8l-0.5-0.9l-0.2-0.5l-0.1-0.9l0.1-0.2v-0.4l-0.1-0.1l-0.6-0.6l-7.5-5l-2.1-1.3l-0.3-0.1
		l-0.4-0.6l-0.3-0.2l-1.5-0.3l-0.4,0.6l-0.2,0.5v0.1l0.1,0.2l2.5,2.6l0.8,0.6l0.6,0.4l3.3,2.2h0.1l0.5-0.1h0.3l1.7,1.4l2.6,5.4
		l0.4,1.6l-1.6,1l-1.4,0.2l-2.5-1l-2.3-1.2l-0.4-0.2l-0.5-0.1l-2.5-0.6l-0.4-0.1l-1.8-0.2h-0.3l-0.4,0.1l-1.2,0.5l-1.2,0.6l-0.4,0.3
		l-0.5,0.5l-0.8,0.5L194,760l-2.9,0.8H191l-1.3-0.8l-4.6-4l-1,1.8h-0.3l-0.6-0.2l-3.8-1.7l-0.1-0.3l-1-3.6l0.2-0.9l0.6-0.7l-1.1-1.9
		l-1.6-1.4l-2.3-0.7l0.3,1.1l-0.4,0.6l-0.2,0.3l-0.9,0.6l-0.3-0.1l-0.6-0.9l-0.3-3.4l-2.8-0.6l-0.8,1.1l-0.4,1.2l-3.2,0.7l-1.5,0.3
		l-1.1,0.9l-1.2,1.5l-3.2,5.6l-0.5,2v0.1l0.4,0.7l4,2.9l0.2,0.1l3.9-1.6l-0.1-0.6l0.4-0.3l1.3-0.6l0.6-0.1l2.6-0.2h0.2l0.4,0.1
		l1.5,2v0.3l-0.4,0.9l-1.5,3.1l-0.9,0.9l-0.6,0.5l-1-0.2l-0.3-0.5l0.2-0.7l0.3-0.1l0.1-0.2l-0.1-0.3l-0.1-0.2l-0.7-0.8l-1.3-0.7l0,0
		l-1.1-0.3l-3.7,3l1.4,1.7l0.4,0.6v0.1l-0.6,0.4l-1.5,0.5l-1.8,0.5l-0.5,0.1l-6.6-0.6l-0.4-0.1l-0.1-0.1l-0.3-0.1L150,766l-0.2-0.2
		l-0.1-0.3v-0.4l0.2-0.9v-0.1l-0.2-0.2l-0.6-0.3l-1.9-0.5l-3.2-0.6l-0.5-0.1l-0.3,0.1l-0.2,0.1l-6.1,3.6l-0.3,0.3l-0.1,0.2l-0.1,0.3
		l-0.1,0.9l-0.2,0.4l-0.4,0.3l-0.3,0.1l-4.6,0.6h-0.2l-4.2-0.9l-3.4-1.4l-1.1-1.6l-0.2-0.1l-0.4-0.2h-0.2l-3.5,0.1l-1.4,1.4
		l-0.2,0.4l-1,1.1l-0.5,0.3l-2.7,1l-3.8,1.1H108l-0.8-0.1l-0.8-0.3l-0.1-0.1l-1.2-1.3l-0.7-1.1l0.3-0.1l0.5,0.1l2.5-1v-0.3l-0.2-0.9
		l-0.4-1l-5.7-1.5l-4.4-5.7l-0.2-0.3l-0.2-0.4l-0.1-0.4l-0.4-2.8l0.1-0.4l0.1-0.2l1.6-1.3l0.2-0.3l0.3-0.4l0.2-0.6l0.1-0.7v-0.3
		l-0.1-0.5l-1-2.9l-0.1-0.4l0.1-0.8l0.1-0.4l0.9-2.2l1.2-2.9l0.2-0.7l0-0.3l-0.1-0.6l-0.3-1l-0.1-0.4v-0.7l0.1-0.5l1.8-4.8l1.8-2.5
		l0.5-0.7l0.5-0.9l0.1-0.5v-0.6l-0.3-1.2l-0.3-0.6l-0.5-0.8l-2.1-2.7l-0.2-0.2l0.1-0.3v-0.4l0.2-4.3l0.1-0.4l0.6-3.2v-0.5l0.1-0.3
		l1.6-3.4l0.2-0.3l2.2-2.9l2.4-3.2l0.2-0.4l0.3-1.1l0.7-2.3l0.7-3.7l0.1-0.3l0.2-0.5l0.4-0.5l0.5-0.4l1.7-0.6l0.5-0.3l0.2-0.2
		l0.1-0.2l0.2-0.4l0.1-0.3v-0.3l-0.7-3.9l-0.1-0.9v-0.6l0.1-0.7l0.1-0.7l0.2-0.6l2.1-5.2l2.3-4.7l0.3-0.4l0.3-0.7l0.1-0.5v-0.4v-3.6
		l-0.1-0.9l-0.2-1.1v-0.5v-0.3l0.1-0.4l2.7-5.2l0.1-0.2l0.2-0.2l1.2-0.5l1.5-0.8l0.5-0.4l4.8-5.5l0.7-3.6l0.1-0.3l0.1-0.1l0.5-0.2
		h0.4l2.5-0.6l3.5-2.5l0.8-0.7l0.7-0.9l0.4-0.7l0.2-0.5l0.2-0.8l0.3-1.2l0.4-1.3l0.6-1.7l0.4-0.9l0.4-0.9l0.9-1.6l3.4-5.3l0.3-0.3
		l0.3-0.2l2-0.6l0.4-0.2l1.6-1.2l1.1-0.8l0.4-0.4l0.3-0.5l0.3-0.5l0.4-0.9l0.1-0.3l0.1-0.3l0.2-1.4l0.2-0.9l0.5-1.2l0.4-0.7l0.7-1.1
		l1-1.1l0,0l0.7-0.8l0.4-0.7l0.2-0.5l2.4-10.3l-0.2-1.8h-0.2h-0.1l0,0l0.1-0.7l0.2-0.6l0.3-0.5l0.4-0.4l0.5-0.4l0.6-0.3l1.4-0.9
		l0.5-0.4l1.8-2l1.4-0.7l0.1-0.2l0.1-0.4l-0.1-0.5l-0.2-0.4l-0.3-0.3l-0.2-0.1l-1-0.3l-0.2-0.1l-0.2-0.2l-0.1-0.4V589v-0.2l0.1-0.3
		l0.2-0.3l0.5-0.5l0.4-0.3l0.4-0.3l0.5-0.5l0.6-0.9l0.4-0.8l0.2-0.9v-0.6l-0.1-0.9l-0.2-2.3l0.8-2.1v-0.3l-0.1-0.3l-0.3-0.4
		l-0.4-0.2l-0.6-0.1h-1h-0.7l-0.6-0.1l-0.2-0.1l-0.3-0.2l-0.2-0.2l-0.1-0.2v-0.4l0.1-0.3l0.2-0.2l0.2-0.2l-0.4-3.2l-0.1-0.6
		l-1.1-4.4l-0.4-0.8l-0.1-0.3v-0.4v-0.4l0.1-0.5l0.4-0.7l0.1-1.1l0.2-0.1l1-0.5l0.3-0.1h0.3l1,0.1l0.6,0.5l1.5,1.3l2,2.6l0.4,1.2
		l0.6,0.9l0.9,0.7l0.5,0.2l0.3,0.1h0.9l1.7-1.4l0.7-1.1l0.1-0.5V565l-0.9-4.1l-0.6,0.1l-0.2-0.4v-0.8l0.3-0.6l1.7-0.5l3.9-1l1,0.2
		l0.1,0.5l-0.5,1l-0.1,0.1l-0.4-0.2l-0.1-0.2l-0.4,0.2l1.9,7.6l1.5,1l2.3,1l0.5,0.2l6.4,1.3h2.4l-0.2,0.6l0.2,1.2l-2.3,2.1l-2.3,0.8
		l-1.8,3.7l-0.4,0.9l0.3,0.9l0.6,0.6l0.5,0.1l1.9,0.1h0.1l0.3-0.2l6.4-5.9l-0.6-0.8l-0.7-0.7l0.2-0.6l0.4-0.7l1.6-1.8l1-0.7l0.2-0.1
		l5.5-1.8l1.1,0.3l1.5,1.7l0.9-0.2l0.3-0.4v-0.4l-0.6-1.4l-0.4-0.3l-1.6-0.9l0.5-0.4l0.1-0.2l0.4-1l-0.1-0.1L207.3,563.1z
		 M178.5,755.8l-0.7-1.9l-0.2-0.2l-2.5,0.1l0.2,2.2l0.6,0.5l2.1-0.2l0.7-0.1L178.5,755.8z"/>
</g>
</svg>
