<svg id="Ebene_1" data-name="Ebene 1" xmlns="http://www.w3.org/2000/svg" width="45.085" height="70" viewBox="0 0 45.085 70">
  <path id="Pfad_61" data-name="Pfad 61" d="M22.53,69.98A30.072,30.072,0,0,1,8.547,66.657a16.564,16.564,0,0,1-7.123-6.6A11.071,11.071,0,0,1-.011,54.9a4.279,4.279,0,0,1,1.519-3.663,3.506,3.506,0,0,1,1.187-.61.493.493,0,0,0,.412-.514A6.619,6.619,0,0,1,4.7,45.918c.221-.241.093-.456.009-.684C4,43.26,3.274,41.3,2.6,39.314a18.7,18.7,0,0,1-.9-5.128,24.173,24.173,0,0,1,.584-6.233,36.408,36.408,0,0,0,.524-5.33,70.6,70.6,0,0,1,1.06-8.435c.258-1.409.511-2.82.893-4.2a11.075,11.075,0,0,1,4.38-6.064A20.918,20.918,0,0,1,18.546.3,25.831,25.831,0,0,1,31.384,1.526,16.234,16.234,0,0,1,37.4,5.146a11.039,11.039,0,0,1,3.141,5.7c.626,2.926,1.149,5.866,1.48,8.838.134,1.209.256,2.423.3,3.637a39.591,39.591,0,0,0,.7,5.867,21.022,21.022,0,0,1-1.1,11.757c-.576,1.461-1.064,2.96-1.6,4.435a.511.511,0,0,0,.111.586,6.552,6.552,0,0,1,1.539,4.025.62.62,0,0,0,.482.657,3.7,3.7,0,0,1,2.582,3.4,10.434,10.434,0,0,1-1.619,6.433,16.063,16.063,0,0,1-6.124,5.762,29.034,29.034,0,0,1-12.446,3.652C24.07,69.949,23.3,69.958,22.53,69.98ZM12.435,28.862a14.056,14.056,0,0,0,7.1-2.474c.475-.305.447-.588-.054-.911a27.942,27.942,0,0,0-6.414-3.249,9.717,9.717,0,0,0-3.573-.648,2.5,2.5,0,0,0-2.319,1.613A4.261,4.261,0,0,0,9.4,28.269,7.647,7.647,0,0,0,12.435,28.862Zm20.473,0a6.334,6.334,0,0,0,1.07-.106,4.344,4.344,0,0,0,4.032-3.5,2.9,2.9,0,0,0-1.053-3.248,3.583,3.583,0,0,0-2.642-.361,23.772,23.772,0,0,0-8.777,3.869c-.44.284-.443.562-.006.857a15.014,15.014,0,0,0,1.433.843,13.172,13.172,0,0,0,5.942,1.648ZM22.4,40.354a10.7,10.7,0,0,0-4.958,1.322c-.98.51-1.038,1.3-.169,1.993a8.149,8.149,0,0,0,4.57,1.807,8.238,8.238,0,0,0,6.1-1.911,1.019,1.019,0,0,0-.191-1.833A11.04,11.04,0,0,0,22.4,40.354Z" transform="translate(0.012 0.02)"/>
</svg>
