<svg xmlns="http://www.w3.org/2000/svg" width="148" height="38" viewBox="0 0 148 38">
  <g id="Gruppe_1" data-name="Gruppe 1" transform="translate(-17 -12)">
    <path id="iconmonstr-cursor-30" d="M4.442,12.915a7.715,7.715,0,0,1,3.6,2.152V2.362a2.417,2.417,0,0,1,4.833,0v7.32c0,.947.984,1.069,1.11.124.261-1.938,3.044-2.2,3.254.482.052.66.877.791,1.046.033.394-1.745,3.022-1.762,3.333.916.08.7.962.841,1.025.041s.34-1.129.733-1.129c1.327,0,2.79,2.44,2.79,5.329,0,5.19-3.625,5.2-3.625,13.521H10.458c-.4-4.763-4.183-8.979-7.577-12.375A2.737,2.737,0,0,1,2,14.736,1.919,1.919,0,0,1,4.442,12.915Z" transform="translate(15 16)" fill="#0d1321"/>
    <text id="Klicken_Sie_auf_einen_der_Bezirke" data-name="Klicken Sie auf 
einen der Bezirke" transform="translate(46 27)" fill="#0d1321" font-size="15" font-family="Muli-Regular, Muli"><tspan x="0" y="0">Klicken Sie auf </tspan><tspan x="0" y="19">einen der Bezirke</tspan></text>
  </g>
</svg>
