<svg xmlns="http://www.w3.org/2000/svg" width="496.2" height="496.2" viewBox="0 0 496.2 496.2">
  <g id="Gruppe_250" data-name="Gruppe 250" transform="translate(-869 -88)">
    <path id="Pfad_647" data-name="Pfad 647" d="M496.2,248.1C496.2,111.1,385.1,0,248.1,0S0,111.1,0,248.1,111.1,496.2,248.1,496.2,496.2,385.1,496.2,248.1Z" transform="translate(869 88)" fill="#0d1321"/>
    <path id="Pfad_648" data-name="Pfad 648" d="M247.8,333.4c-77.2,0-139.1,22.1-146.4,49.3-3.3,12.2-7,35.2-10.1,57.5a248.143,248.143,0,0,0,313.8,0c-3.2-22.3-6.9-45.4-10.1-57.5C387.5,355.5,324.9,333.4,247.8,333.4Z" transform="translate(869 88)" fill="#700101"/>
    <path id="Pfad_649" data-name="Pfad 649" d="M353.1,311.1c-24.6-20.7-70.9,5-104.9,5s-80.3-25.7-104.9-5c-16,13.4-14,52.7,23.5,63.5,58.1,16.8,79.5,25.2,81.4,25.9v.1h.2v-.1c1.9-.7,23.2-9.2,81.4-25.9C367.1,363.8,369.1,324.5,353.1,311.1Z" transform="translate(869 88)" fill="#b70404"/>
    <path id="Pfad_650" data-name="Pfad 650" d="M287,282.1H209.2c12.1,36.6,1,53.3,1,53.3s11.9,13.2,37.9,13.2S286,335.4,286,335.4,274.9,318.7,287,282.1Z" transform="translate(869 88)" fill="#e2a379"/>
    <path id="Pfad_651" data-name="Pfad 651" d="M322.1,276.8l-12-6.7-12,19.3-8.5-13.3-79.5-24-2,13.3-9.3,19.4-8-8.7-14.2,9V257.4l-16.5-4,16.5-24.6v-8.7h143l1.2,13.3,14.6,19.4-12,2.6Z" transform="translate(869 88)" fill="#684112"/>
    <g id="Gruppe_243" data-name="Gruppe 243" transform="translate(869 88)">
      <path id="Pfad_652" data-name="Pfad 652" d="M327.9,175.2c0-92.4-35.7-113.6-79.8-113.6-44,0-79.8,21.2-79.8,113.6,0,31.3,5.6,55.8,14,74.7,18.4,41.6,50.3,56.1,65.8,56.1,15.4,0,47.3-14.5,65.8-56.1C322.3,231,327.9,206.5,327.9,175.2Z" fill="#f4b382"/>
      <path id="Pfad_653" data-name="Pfad 653" d="M160.7,207.7c4.3,25.2,9.6,26.3,17.3,25l-8.1-54.8C162.2,179.3,156.4,182.6,160.7,207.7Z" fill="#f4b382"/>
      <path id="Pfad_654" data-name="Pfad 654" d="M326.5,178l-8.1,54.8c7.6,1.3,13,.1,17.3-25C339.9,182.6,334.1,179.3,326.5,178Z" fill="#f4b382"/>
    </g>
    <path id="Pfad_655" data-name="Pfad 655" d="M269.8,75.6c10.6-4.9,35.7,7.6,48.3,26.3s30.7,58.7,6.8,114.7c0,0-30.2-87.3-63.1-124.6C262,91.5,263,78.8,269.8,75.6Z" transform="translate(869 88)" fill="#684112"/>
    <path id="Pfad_656" data-name="Pfad 656" d="M336.8,193.3s-30,31-52.7,31-23.5-10.2-36-10.2-13.8,10.2-35.2,10.2-53.5-31-53.5-31v-14H336.9v14Z" transform="translate(869 88)" fill="#2d2d2d"/>
    <g id="Gruppe_244" data-name="Gruppe 244" transform="translate(869 88)">
      <ellipse id="Ellipse_36" data-name="Ellipse 36" cx="17.7" cy="12.2" rx="17.7" ry="12.2" transform="translate(260.3 188.2)" fill="#f4b382"/>
      <ellipse id="Ellipse_37" data-name="Ellipse 37" cx="17.7" cy="12.2" rx="17.7" ry="12.2" transform="translate(200.5 188.2)" fill="#f4b382"/>
    </g>
    <g id="Gruppe_245" data-name="Gruppe 245" transform="translate(869 88)">
      <path id="Pfad_657" data-name="Pfad 657" d="M288.7,86.6C272.5,69.5,237,74.2,237,74.2h0c-49.9,6.8-95.8,53.4-62.1,143.7,0,0,125.1-84.7,122.7-102.5C297.4,114.5,299,97.6,288.7,86.6Z" fill="#684112"/>
      <path id="Pfad_658" data-name="Pfad 658" d="M305.1,86.9c12.7,18.7,30.7,58.7,6.8,114.7,0,0-30.2-87.3-63.1-124.6C249,76.5,292.4,68.3,305.1,86.9Z" fill="#684112"/>
      <path id="Pfad_659" data-name="Pfad 659" d="M292.1,73.9c12.7,18.7,30.7,58.7,6.8,114.7,0,0-30.2-87.3-63.1-124.6C236,63.5,279.4,55.3,292.1,73.9Z" fill="#684112"/>
    </g>
    <g id="Gruppe_246" data-name="Gruppe 246" transform="translate(869 88)">
      <path id="Pfad_660" data-name="Pfad 660" d="M341.4,166.8c0-90.5-41.8-111.3-93.3-111.3s-93.3,20.7-93.3,111.3Z" fill="#3e3e3e"/>
      <ellipse id="Ellipse_38" data-name="Ellipse 38" cx="12.8" cy="8.7" rx="12.8" ry="8.7" transform="translate(235.3 47.7)" fill="#3e3e3e"/>
    </g>
    <g id="Gruppe_247" data-name="Gruppe 247" transform="translate(869 88)">
      <path id="Pfad_661" data-name="Pfad 661" d="M209.5,156a1.473,1.473,0,0,1-1.5-1.5c0-48,7.2-76.6,22-87.6a1.57,1.57,0,0,1,1.9,2.5c-14,10.4-20.7,38.2-20.7,85.1A1.728,1.728,0,0,1,209.5,156Z" fill="#494949"/>
      <path id="Pfad_662" data-name="Pfad 662" d="M286.7,156a1.473,1.473,0,0,1-1.5-1.5c0-46.9-6.8-74.8-20.7-85.1a1.57,1.57,0,0,1,1.9-2.5c14.8,11,22,39.7,22,87.6A1.9,1.9,0,0,1,286.7,156Z" fill="#494949"/>
      <path id="Pfad_663" data-name="Pfad 663" d="M248.1,130.3a1.473,1.473,0,0,1-1.5-1.5V64.1a1.473,1.473,0,0,1,1.5-1.5,1.538,1.538,0,0,1,1.5,1.5v64.7A1.473,1.473,0,0,1,248.1,130.3Z" fill="#494949"/>
      <path id="Pfad_664" data-name="Pfad 664" d="M321.4,156.4a1.473,1.473,0,0,1-1.5-1.5c0-47-13.1-75-40-85.4a1.551,1.551,0,0,1,1.1-2.9c28.2,10.9,41.9,39.8,41.9,88.2A1.561,1.561,0,0,1,321.4,156.4Z" fill="#494949"/>
      <path id="Pfad_665" data-name="Pfad 665" d="M174.8,156.4a1.473,1.473,0,0,1-1.5-1.5c0-48.5,13.7-77.3,41.9-88.2a1.551,1.551,0,0,1,1.1,2.9c-26.9,10.4-40,38.3-40,85.4A1.392,1.392,0,0,1,174.8,156.4Z" fill="#494949"/>
    </g>
    <path id="Pfad_666" data-name="Pfad 666" d="M354.3,173.9a11.608,11.608,0,0,1-11.6,11.6S304.5,170,248,170s-94.7,15.5-94.7,15.5a11.608,11.608,0,0,1-11.6-11.6v-23a11.608,11.608,0,0,1,11.6-11.6s48.2-15.5,94.7-15.5,94.7,15.5,94.7,15.5a11.608,11.608,0,0,1,11.6,11.6Z" transform="translate(869 88)" fill="#3e3e3e"/>
    <g id="Gruppe_248" data-name="Gruppe 248" transform="translate(869 88)">
      <path id="Pfad_667" data-name="Pfad 667" d="M157.6,177.1a1.538,1.538,0,0,1-1.5-1.5V147.1a1.5,1.5,0,0,1,3,0v28.5A1.538,1.538,0,0,1,157.6,177.1Z" fill="#3a3a3a"/>
      <path id="Pfad_668" data-name="Pfad 668" d="M173.1,173.8a1.538,1.538,0,0,1-1.5-1.5V143.8a1.5,1.5,0,0,1,3,0v28.5A1.538,1.538,0,0,1,173.1,173.8Z" fill="#3a3a3a"/>
      <path id="Pfad_669" data-name="Pfad 669" d="M192.2,169.8a1.538,1.538,0,0,1-1.5-1.5V139.8a1.5,1.5,0,0,1,3,0v28.5A1.538,1.538,0,0,1,192.2,169.8Z" fill="#3a3a3a"/>
      <path id="Pfad_670" data-name="Pfad 670" d="M211.2,166.4a1.538,1.538,0,0,1-1.5-1.5V136.4a1.5,1.5,0,1,1,3,0v28.5A1.473,1.473,0,0,1,211.2,166.4Z" fill="#3a3a3a"/>
      <path id="Pfad_671" data-name="Pfad 671" d="M230.3,164.4a1.538,1.538,0,0,1-1.5-1.5V134.4a1.5,1.5,0,1,1,3,0v28.5A1.473,1.473,0,0,1,230.3,164.4Z" fill="#3a3a3a"/>
      <path id="Pfad_672" data-name="Pfad 672" d="M248.1,164.3a1.538,1.538,0,0,1-1.5-1.5V134.3a1.5,1.5,0,0,1,3,0v28.5A1.538,1.538,0,0,1,248.1,164.3Z" fill="#3a3a3a"/>
      <path id="Pfad_673" data-name="Pfad 673" d="M338.7,177.1a1.538,1.538,0,0,0,1.5-1.5V147.1a1.5,1.5,0,1,0-3,0v28.5A1.538,1.538,0,0,0,338.7,177.1Z" fill="#3a3a3a"/>
      <path id="Pfad_674" data-name="Pfad 674" d="M323.2,173.8a1.538,1.538,0,0,0,1.5-1.5V143.8a1.5,1.5,0,0,0-3,0v28.5A1.538,1.538,0,0,0,323.2,173.8Z" fill="#3a3a3a"/>
      <path id="Pfad_675" data-name="Pfad 675" d="M304.1,169.8a1.538,1.538,0,0,0,1.5-1.5V139.8a1.5,1.5,0,0,0-3,0v28.5A1.538,1.538,0,0,0,304.1,169.8Z" fill="#3a3a3a"/>
      <path id="Pfad_676" data-name="Pfad 676" d="M285.1,166.4a1.538,1.538,0,0,0,1.5-1.5V136.4a1.5,1.5,0,1,0-3,0v28.5A1.417,1.417,0,0,0,285.1,166.4Z" fill="#3a3a3a"/>
      <path id="Pfad_677" data-name="Pfad 677" d="M266,164.4a1.538,1.538,0,0,0,1.5-1.5V134.4a1.5,1.5,0,1,0-3,0v28.5A1.473,1.473,0,0,0,266,164.4Z" fill="#3a3a3a"/>
    </g>
    <path id="Pfad_678" data-name="Pfad 678" d="M274.8,263.8s-14.2,9.6-26.7,9.6-26.7-9.6-26.7-9.6c0-1.4,11.3-5.3,16.1-6,3-.5,10.6,2.5,10.6,2.5s7.5-2.9,10.4-2.5C263.4,258.5,274.8,263.8,274.8,263.8Z" transform="translate(869 88)" fill="#cc785e"/>
    <path id="Pfad_679" data-name="Pfad 679" d="M274.8,263.8s-14.2,13.5-26.7,13.5-26.7-13.5-26.7-13.5,6.5,1.5,19.6.7c2.2-.1,5.1,1.6,7,1.6,1.7,0,4.2-1.8,6.1-1.7C267.9,265.2,274.8,263.8,274.8,263.8Z" transform="translate(869 88)" fill="#c16952"/>
  </g>
</svg>
